<svg width="512" height="512" viewBox="0 0 512 512" fill="none" xmlns="http://www.w3.org/2000/svg">
<circle cx="256" cy="256" r="220" fill="#3141C9"/>
<path d="M97 256C97 224.553 106.325 193.812 123.796 167.664C141.268 141.517 166.1 121.137 195.153 109.103C224.207 97.0688 256.176 93.9201 287.019 100.055C317.862 106.19 346.193 121.333 368.43 143.57C390.667 165.807 405.81 194.138 411.945 224.981C418.08 255.824 414.931 287.793 402.897 316.847C390.862 345.9 370.483 370.733 344.336 388.204C318.188 405.675 287.447 415 256 415L256 325.812C269.808 325.813 283.305 321.718 294.786 314.047C306.266 306.376 315.214 295.473 320.498 282.716C325.782 269.96 327.165 255.923 324.471 242.38C321.777 228.838 315.128 216.399 305.365 206.635C295.601 196.872 283.162 190.223 269.62 187.529C256.077 184.835 242.041 186.218 229.284 191.502C216.527 196.786 205.624 205.734 197.953 217.214C190.282 228.695 186.188 242.192 186.188 256L97 256Z" fill="#BFC2EB"/>
</svg>
