M48
;DRILL file {KiCad (5.0.2)-1} date 19/08/2020 16:15:41
;FORMAT={-:-/ absolute / metric / decimal}
FMAT,2
METRIC,TZ
T1C0.400
T2C1.000
%
G90
G05
T1
X166.375Y-60.67
X166.375Y-65.67
X168.375Y-45.17
X171.375Y-42.67
X171.375Y-48.17
X176.875Y-44.67
X178.375Y-46.67
X183.375Y-42.67
T2
X174.375Y-55.17
X167.375Y-55.17
X185.42Y-54.61
X185.42Y-57.15
X146.375Y-43.17
X146.375Y-45.71
X146.375Y-48.25
X146.375Y-50.79
X177.875Y-55.17
X185.875Y-36.195
X185.875Y-38.735
X185.875Y-41.275
X185.875Y-43.815
X185.875Y-46.355
X185.875Y-48.895
X170.875Y-55.17
X145.875Y-58.13
X145.875Y-60.67
T2
X172.875Y-59.17G85X174.875Y-59.17
G05
X172.875Y-65.17G85X174.875Y-65.17
G05
X178.575Y-63.17G85X178.575Y-61.17
G05
T0
M30
