G04 #@! TF.GenerationSoftware,KiCad,Pcbnew,(5.0.2)-1*
G04 #@! TF.CreationDate,2020-08-19T16:16:04+02:00*
G04 #@! TF.ProjectId,RGB-LED-controller,5247422d-4c45-4442-9d63-6f6e74726f6c,rev?*
G04 #@! TF.SameCoordinates,Original*
G04 #@! TF.FileFunction,Legend,Top*
G04 #@! TF.FilePolarity,Positive*
%FSLAX46Y46*%
G04 Gerber Fmt 4.6, Leading zero omitted, Abs format (unit mm)*
G04 Created by KiCad (PCBNEW (5.0.2)-1) date 19/08/2020 16:16:04*
%MOMM*%
%LPD*%
G01*
G04 APERTURE LIST*
%ADD10C,0.120000*%
%ADD11C,0.150000*%
G04 APERTURE END LIST*
D10*
G04 #@! TO.C,C1*
X152650436Y-58145000D02*
X153854564Y-58145000D01*
X152650436Y-59965000D02*
X153854564Y-59965000D01*
G04 #@! TO.C,C2*
X167455000Y-59800000D02*
X164705000Y-59800000D01*
X158935000Y-59800000D02*
X161685000Y-59800000D01*
X158935000Y-67255563D02*
X158935000Y-59800000D01*
X167455000Y-67255563D02*
X167455000Y-59800000D01*
X166390563Y-68320000D02*
X164705000Y-68320000D01*
X159999437Y-68320000D02*
X161685000Y-68320000D01*
X159999437Y-68320000D02*
X158935000Y-67255563D01*
X166390563Y-68320000D02*
X167455000Y-67255563D01*
X160685000Y-69560000D02*
X160685000Y-68560000D01*
X160185000Y-69060000D02*
X161185000Y-69060000D01*
G04 #@! TO.C,J1*
X170125000Y-58070000D02*
X169075000Y-58070000D01*
X169075000Y-59120000D02*
X169075000Y-58070000D01*
X178475000Y-64170000D02*
X178475000Y-72970000D01*
X178475000Y-72970000D02*
X169275000Y-72970000D01*
X175775000Y-58270000D02*
X178475000Y-58270000D01*
X178475000Y-58270000D02*
X178475000Y-60170000D01*
X169275000Y-72970000D02*
X169275000Y-58270000D01*
X169275000Y-58270000D02*
X171875000Y-58270000D01*
G04 #@! TO.C,J2*
X187205000Y-47625000D02*
X184545000Y-47625000D01*
X187205000Y-47625000D02*
X187205000Y-34865000D01*
X187205000Y-34865000D02*
X184545000Y-34865000D01*
X184545000Y-47625000D02*
X184545000Y-34865000D01*
X184545000Y-50225000D02*
X184545000Y-48895000D01*
X185875000Y-50225000D02*
X184545000Y-50225000D01*
G04 #@! TO.C,J3*
X145045000Y-44440000D02*
X147705000Y-44440000D01*
X145045000Y-44440000D02*
X145045000Y-52120000D01*
X145045000Y-52120000D02*
X147705000Y-52120000D01*
X147705000Y-44440000D02*
X147705000Y-52120000D01*
X147705000Y-41840000D02*
X147705000Y-43170000D01*
X146375000Y-41840000D02*
X147705000Y-41840000D01*
G04 #@! TO.C,JP1*
X184090000Y-58480000D02*
X186750000Y-58480000D01*
X184090000Y-55880000D02*
X184090000Y-58480000D01*
X186750000Y-55880000D02*
X186750000Y-58480000D01*
X184090000Y-55880000D02*
X186750000Y-55880000D01*
X184090000Y-54610000D02*
X184090000Y-53280000D01*
X184090000Y-53280000D02*
X185420000Y-53280000D01*
G04 #@! TO.C,M1*
X165235000Y-27250000D02*
X181475000Y-27250000D01*
X181475000Y-27250000D02*
X181475000Y-34870000D01*
X181475000Y-50870000D02*
X181475000Y-51490000D01*
X181475000Y-51490000D02*
X179355000Y-51490000D01*
X167355000Y-51490000D02*
X165235000Y-51490000D01*
X165235000Y-51490000D02*
X165235000Y-50870000D01*
X165235000Y-34870000D02*
X165235000Y-27250000D01*
X165235000Y-34870000D02*
X164625000Y-34870000D01*
G04 #@! TO.C,Q1*
X155910000Y-41550000D02*
X157410000Y-41550000D01*
X157410000Y-41550000D02*
X157410000Y-41280000D01*
X157410000Y-41280000D02*
X160240000Y-41280000D01*
X155910000Y-34650000D02*
X157410000Y-34650000D01*
X157410000Y-34650000D02*
X157410000Y-34920000D01*
X157410000Y-34920000D02*
X158510000Y-34920000D01*
G04 #@! TO.C,Q2*
X157200000Y-42795000D02*
X158300000Y-42795000D01*
X157200000Y-42525000D02*
X157200000Y-42795000D01*
X155700000Y-42525000D02*
X157200000Y-42525000D01*
X157200000Y-49155000D02*
X160030000Y-49155000D01*
X157200000Y-49425000D02*
X157200000Y-49155000D01*
X155700000Y-49425000D02*
X157200000Y-49425000D01*
G04 #@! TO.C,Q3*
X155520000Y-57165000D02*
X157020000Y-57165000D01*
X157020000Y-57165000D02*
X157020000Y-56895000D01*
X157020000Y-56895000D02*
X159850000Y-56895000D01*
X155520000Y-50265000D02*
X157020000Y-50265000D01*
X157020000Y-50265000D02*
X157020000Y-50535000D01*
X157020000Y-50535000D02*
X158120000Y-50535000D01*
G04 #@! TO.C,R2*
X161415000Y-36606267D02*
X161415000Y-36263733D01*
X162435000Y-36606267D02*
X162435000Y-36263733D01*
G04 #@! TO.C,R3*
X162435000Y-44861267D02*
X162435000Y-44518733D01*
X161415000Y-44861267D02*
X161415000Y-44518733D01*
G04 #@! TO.C,R4*
X161415000Y-52481267D02*
X161415000Y-52138733D01*
X162435000Y-52481267D02*
X162435000Y-52138733D01*
G04 #@! TO.C,SW1*
X152165000Y-28370000D02*
X158985000Y-28370000D01*
X152165000Y-32590000D02*
X158985000Y-32590000D01*
X152165000Y-28370000D02*
X152165000Y-29680000D01*
X152165000Y-31280000D02*
X152165000Y-32590000D01*
X158985000Y-28370000D02*
X158985000Y-29680000D01*
X158985000Y-31280000D02*
X158985000Y-32590000D01*
X151925000Y-28130000D02*
X153308000Y-28130000D01*
X151925000Y-28130000D02*
X151925000Y-29513000D01*
X153765000Y-29845000D02*
X153765000Y-31115000D01*
X153765000Y-31115000D02*
X157385000Y-31115000D01*
X157385000Y-31115000D02*
X157385000Y-29845000D01*
X157385000Y-29845000D02*
X153765000Y-29845000D01*
X153765000Y-29965000D02*
X154971667Y-29965000D01*
X153765000Y-30085000D02*
X154971667Y-30085000D01*
X153765000Y-30205000D02*
X154971667Y-30205000D01*
X153765000Y-30325000D02*
X154971667Y-30325000D01*
X153765000Y-30445000D02*
X154971667Y-30445000D01*
X153765000Y-30565000D02*
X154971667Y-30565000D01*
X153765000Y-30685000D02*
X154971667Y-30685000D01*
X153765000Y-30805000D02*
X154971667Y-30805000D01*
X153765000Y-30925000D02*
X154971667Y-30925000D01*
X153765000Y-31045000D02*
X154971667Y-31045000D01*
X154971667Y-29845000D02*
X154971667Y-31115000D01*
G04 #@! TO.C,SW2*
X147205000Y-62000000D02*
X145875000Y-62000000D01*
X147205000Y-60670000D02*
X147205000Y-62000000D01*
X147205000Y-59400000D02*
X144545000Y-59400000D01*
X144545000Y-59400000D02*
X144545000Y-56800000D01*
X147205000Y-59400000D02*
X147205000Y-56800000D01*
X147205000Y-56800000D02*
X144545000Y-56800000D01*
G04 #@! TO.C,U1*
X155580000Y-68815000D02*
X155580000Y-67555000D01*
X155580000Y-61995000D02*
X155580000Y-63255000D01*
X151820000Y-68815000D02*
X155580000Y-68815000D01*
X149570000Y-61995000D02*
X155580000Y-61995000D01*
G04 #@! TO.C,J4*
X167375000Y-53840000D02*
X168705000Y-53840000D01*
X168705000Y-53840000D02*
X168705000Y-55170000D01*
X168705000Y-56380000D02*
X168705000Y-56500000D01*
X166045000Y-56380000D02*
X166045000Y-56500000D01*
X166045000Y-56500000D02*
X168705000Y-56500000D01*
G04 #@! TO.C,J5*
X169545000Y-56500000D02*
X172205000Y-56500000D01*
X169545000Y-56380000D02*
X169545000Y-56500000D01*
X172205000Y-56380000D02*
X172205000Y-56500000D01*
X172205000Y-53840000D02*
X172205000Y-55170000D01*
X170875000Y-53840000D02*
X172205000Y-53840000D01*
G04 #@! TO.C,J6*
X174375000Y-53840000D02*
X175705000Y-53840000D01*
X175705000Y-53840000D02*
X175705000Y-55170000D01*
X175705000Y-56380000D02*
X175705000Y-56500000D01*
X173045000Y-56380000D02*
X173045000Y-56500000D01*
X173045000Y-56500000D02*
X175705000Y-56500000D01*
G04 #@! TO.C,J7*
X176545000Y-56500000D02*
X179205000Y-56500000D01*
X176545000Y-56380000D02*
X176545000Y-56500000D01*
X179205000Y-56380000D02*
X179205000Y-56500000D01*
X179205000Y-53840000D02*
X179205000Y-55170000D01*
X177875000Y-53840000D02*
X179205000Y-53840000D01*
G04 #@! TO.C,C1*
D11*
X153085833Y-59412142D02*
X153038214Y-59459761D01*
X152895357Y-59507380D01*
X152800119Y-59507380D01*
X152657261Y-59459761D01*
X152562023Y-59364523D01*
X152514404Y-59269285D01*
X152466785Y-59078809D01*
X152466785Y-58935952D01*
X152514404Y-58745476D01*
X152562023Y-58650238D01*
X152657261Y-58555000D01*
X152800119Y-58507380D01*
X152895357Y-58507380D01*
X153038214Y-58555000D01*
X153085833Y-58602619D01*
X154038214Y-59507380D02*
X153466785Y-59507380D01*
X153752500Y-59507380D02*
X153752500Y-58507380D01*
X153657261Y-58650238D01*
X153562023Y-58745476D01*
X153466785Y-58793095D01*
G04 #@! TO.C,C2*
X163552142Y-64226666D02*
X163599761Y-64274285D01*
X163647380Y-64417142D01*
X163647380Y-64512380D01*
X163599761Y-64655238D01*
X163504523Y-64750476D01*
X163409285Y-64798095D01*
X163218809Y-64845714D01*
X163075952Y-64845714D01*
X162885476Y-64798095D01*
X162790238Y-64750476D01*
X162695000Y-64655238D01*
X162647380Y-64512380D01*
X162647380Y-64417142D01*
X162695000Y-64274285D01*
X162742619Y-64226666D01*
X162742619Y-63845714D02*
X162695000Y-63798095D01*
X162647380Y-63702857D01*
X162647380Y-63464761D01*
X162695000Y-63369523D01*
X162742619Y-63321904D01*
X162837857Y-63274285D01*
X162933095Y-63274285D01*
X163075952Y-63321904D01*
X163647380Y-63893333D01*
X163647380Y-63274285D01*
G04 #@! TO.C,J1*
X170541666Y-61622380D02*
X170541666Y-62336666D01*
X170494047Y-62479523D01*
X170398809Y-62574761D01*
X170255952Y-62622380D01*
X170160714Y-62622380D01*
X171541666Y-62622380D02*
X170970238Y-62622380D01*
X171255952Y-62622380D02*
X171255952Y-61622380D01*
X171160714Y-61765238D01*
X171065476Y-61860476D01*
X170970238Y-61908095D01*
G04 #@! TO.C,J2*
X185541666Y-33107380D02*
X185541666Y-33821666D01*
X185494047Y-33964523D01*
X185398809Y-34059761D01*
X185255952Y-34107380D01*
X185160714Y-34107380D01*
X185970238Y-33202619D02*
X186017857Y-33155000D01*
X186113095Y-33107380D01*
X186351190Y-33107380D01*
X186446428Y-33155000D01*
X186494047Y-33202619D01*
X186541666Y-33297857D01*
X186541666Y-33393095D01*
X186494047Y-33535952D01*
X185922619Y-34107380D01*
X186541666Y-34107380D01*
G04 #@! TO.C,J3*
X146041666Y-39852380D02*
X146041666Y-40566666D01*
X145994047Y-40709523D01*
X145898809Y-40804761D01*
X145755952Y-40852380D01*
X145660714Y-40852380D01*
X146422619Y-39852380D02*
X147041666Y-39852380D01*
X146708333Y-40233333D01*
X146851190Y-40233333D01*
X146946428Y-40280952D01*
X146994047Y-40328571D01*
X147041666Y-40423809D01*
X147041666Y-40661904D01*
X146994047Y-40757142D01*
X146946428Y-40804761D01*
X146851190Y-40852380D01*
X146565476Y-40852380D01*
X146470238Y-40804761D01*
X146422619Y-40757142D01*
G04 #@! TO.C,JP1*
X184586666Y-51732380D02*
X184586666Y-52446666D01*
X184539047Y-52589523D01*
X184443809Y-52684761D01*
X184300952Y-52732380D01*
X184205714Y-52732380D01*
X185062857Y-52732380D02*
X185062857Y-51732380D01*
X185443809Y-51732380D01*
X185539047Y-51780000D01*
X185586666Y-51827619D01*
X185634285Y-51922857D01*
X185634285Y-52065714D01*
X185586666Y-52160952D01*
X185539047Y-52208571D01*
X185443809Y-52256190D01*
X185062857Y-52256190D01*
X186586666Y-52732380D02*
X186015238Y-52732380D01*
X186300952Y-52732380D02*
X186300952Y-51732380D01*
X186205714Y-51875238D01*
X186110476Y-51970476D01*
X186015238Y-52018095D01*
G04 #@! TO.C,M1*
X168565476Y-36622380D02*
X168565476Y-35622380D01*
X168898809Y-36336666D01*
X169232142Y-35622380D01*
X169232142Y-36622380D01*
X170232142Y-36622380D02*
X169660714Y-36622380D01*
X169946428Y-36622380D02*
X169946428Y-35622380D01*
X169851190Y-35765238D01*
X169755952Y-35860476D01*
X169660714Y-35908095D01*
G04 #@! TO.C,Q1*
X158027619Y-38195238D02*
X157980000Y-38290476D01*
X157884761Y-38385714D01*
X157741904Y-38528571D01*
X157694285Y-38623809D01*
X157694285Y-38719047D01*
X157932380Y-38671428D02*
X157884761Y-38766666D01*
X157789523Y-38861904D01*
X157599047Y-38909523D01*
X157265714Y-38909523D01*
X157075238Y-38861904D01*
X156980000Y-38766666D01*
X156932380Y-38671428D01*
X156932380Y-38480952D01*
X156980000Y-38385714D01*
X157075238Y-38290476D01*
X157265714Y-38242857D01*
X157599047Y-38242857D01*
X157789523Y-38290476D01*
X157884761Y-38385714D01*
X157932380Y-38480952D01*
X157932380Y-38671428D01*
X157932380Y-37290476D02*
X157932380Y-37861904D01*
X157932380Y-37576190D02*
X156932380Y-37576190D01*
X157075238Y-37671428D01*
X157170476Y-37766666D01*
X157218095Y-37861904D01*
G04 #@! TO.C,Q2*
X157922619Y-46325238D02*
X157875000Y-46420476D01*
X157779761Y-46515714D01*
X157636904Y-46658571D01*
X157589285Y-46753809D01*
X157589285Y-46849047D01*
X157827380Y-46801428D02*
X157779761Y-46896666D01*
X157684523Y-46991904D01*
X157494047Y-47039523D01*
X157160714Y-47039523D01*
X156970238Y-46991904D01*
X156875000Y-46896666D01*
X156827380Y-46801428D01*
X156827380Y-46610952D01*
X156875000Y-46515714D01*
X156970238Y-46420476D01*
X157160714Y-46372857D01*
X157494047Y-46372857D01*
X157684523Y-46420476D01*
X157779761Y-46515714D01*
X157827380Y-46610952D01*
X157827380Y-46801428D01*
X156922619Y-45991904D02*
X156875000Y-45944285D01*
X156827380Y-45849047D01*
X156827380Y-45610952D01*
X156875000Y-45515714D01*
X156922619Y-45468095D01*
X157017857Y-45420476D01*
X157113095Y-45420476D01*
X157255952Y-45468095D01*
X157827380Y-46039523D01*
X157827380Y-45420476D01*
G04 #@! TO.C,Q3*
X157922619Y-53765238D02*
X157875000Y-53860476D01*
X157779761Y-53955714D01*
X157636904Y-54098571D01*
X157589285Y-54193809D01*
X157589285Y-54289047D01*
X157827380Y-54241428D02*
X157779761Y-54336666D01*
X157684523Y-54431904D01*
X157494047Y-54479523D01*
X157160714Y-54479523D01*
X156970238Y-54431904D01*
X156875000Y-54336666D01*
X156827380Y-54241428D01*
X156827380Y-54050952D01*
X156875000Y-53955714D01*
X156970238Y-53860476D01*
X157160714Y-53812857D01*
X157494047Y-53812857D01*
X157684523Y-53860476D01*
X157779761Y-53955714D01*
X157827380Y-54050952D01*
X157827380Y-54241428D01*
X156827380Y-53479523D02*
X156827380Y-52860476D01*
X157208333Y-53193809D01*
X157208333Y-53050952D01*
X157255952Y-52955714D01*
X157303571Y-52908095D01*
X157398809Y-52860476D01*
X157636904Y-52860476D01*
X157732142Y-52908095D01*
X157779761Y-52955714D01*
X157827380Y-53050952D01*
X157827380Y-53336666D01*
X157779761Y-53431904D01*
X157732142Y-53479523D01*
G04 #@! TO.C,R1*
X161827380Y-31836666D02*
X161351190Y-32170000D01*
X161827380Y-32408095D02*
X160827380Y-32408095D01*
X160827380Y-32027142D01*
X160875000Y-31931904D01*
X160922619Y-31884285D01*
X161017857Y-31836666D01*
X161160714Y-31836666D01*
X161255952Y-31884285D01*
X161303571Y-31931904D01*
X161351190Y-32027142D01*
X161351190Y-32408095D01*
X161827380Y-30884285D02*
X161827380Y-31455714D01*
X161827380Y-31170000D02*
X160827380Y-31170000D01*
X160970238Y-31265238D01*
X161065476Y-31360476D01*
X161113095Y-31455714D01*
G04 #@! TO.C,R2*
X163647380Y-36361666D02*
X163171190Y-36695000D01*
X163647380Y-36933095D02*
X162647380Y-36933095D01*
X162647380Y-36552142D01*
X162695000Y-36456904D01*
X162742619Y-36409285D01*
X162837857Y-36361666D01*
X162980714Y-36361666D01*
X163075952Y-36409285D01*
X163123571Y-36456904D01*
X163171190Y-36552142D01*
X163171190Y-36933095D01*
X162742619Y-35980714D02*
X162695000Y-35933095D01*
X162647380Y-35837857D01*
X162647380Y-35599761D01*
X162695000Y-35504523D01*
X162742619Y-35456904D01*
X162837857Y-35409285D01*
X162933095Y-35409285D01*
X163075952Y-35456904D01*
X163647380Y-36028333D01*
X163647380Y-35409285D01*
G04 #@! TO.C,R3*
X163647380Y-44856666D02*
X163171190Y-45190000D01*
X163647380Y-45428095D02*
X162647380Y-45428095D01*
X162647380Y-45047142D01*
X162695000Y-44951904D01*
X162742619Y-44904285D01*
X162837857Y-44856666D01*
X162980714Y-44856666D01*
X163075952Y-44904285D01*
X163123571Y-44951904D01*
X163171190Y-45047142D01*
X163171190Y-45428095D01*
X162647380Y-44523333D02*
X162647380Y-43904285D01*
X163028333Y-44237619D01*
X163028333Y-44094761D01*
X163075952Y-43999523D01*
X163123571Y-43951904D01*
X163218809Y-43904285D01*
X163456904Y-43904285D01*
X163552142Y-43951904D01*
X163599761Y-43999523D01*
X163647380Y-44094761D01*
X163647380Y-44380476D01*
X163599761Y-44475714D01*
X163552142Y-44523333D01*
G04 #@! TO.C,R4*
X163647380Y-52476666D02*
X163171190Y-52810000D01*
X163647380Y-53048095D02*
X162647380Y-53048095D01*
X162647380Y-52667142D01*
X162695000Y-52571904D01*
X162742619Y-52524285D01*
X162837857Y-52476666D01*
X162980714Y-52476666D01*
X163075952Y-52524285D01*
X163123571Y-52571904D01*
X163171190Y-52667142D01*
X163171190Y-53048095D01*
X162980714Y-51619523D02*
X163647380Y-51619523D01*
X162599761Y-51857619D02*
X163314047Y-52095714D01*
X163314047Y-51476666D01*
G04 #@! TO.C,R5*
X163647380Y-55746666D02*
X163171190Y-56080000D01*
X163647380Y-56318095D02*
X162647380Y-56318095D01*
X162647380Y-55937142D01*
X162695000Y-55841904D01*
X162742619Y-55794285D01*
X162837857Y-55746666D01*
X162980714Y-55746666D01*
X163075952Y-55794285D01*
X163123571Y-55841904D01*
X163171190Y-55937142D01*
X163171190Y-56318095D01*
X162647380Y-54841904D02*
X162647380Y-55318095D01*
X163123571Y-55365714D01*
X163075952Y-55318095D01*
X163028333Y-55222857D01*
X163028333Y-54984761D01*
X163075952Y-54889523D01*
X163123571Y-54841904D01*
X163218809Y-54794285D01*
X163456904Y-54794285D01*
X163552142Y-54841904D01*
X163599761Y-54889523D01*
X163647380Y-54984761D01*
X163647380Y-55222857D01*
X163599761Y-55318095D01*
X163552142Y-55365714D01*
G04 #@! TO.C,R6*
X163647380Y-48426666D02*
X163171190Y-48760000D01*
X163647380Y-48998095D02*
X162647380Y-48998095D01*
X162647380Y-48617142D01*
X162695000Y-48521904D01*
X162742619Y-48474285D01*
X162837857Y-48426666D01*
X162980714Y-48426666D01*
X163075952Y-48474285D01*
X163123571Y-48521904D01*
X163171190Y-48617142D01*
X163171190Y-48998095D01*
X162647380Y-47569523D02*
X162647380Y-47760000D01*
X162695000Y-47855238D01*
X162742619Y-47902857D01*
X162885476Y-47998095D01*
X163075952Y-48045714D01*
X163456904Y-48045714D01*
X163552142Y-47998095D01*
X163599761Y-47950476D01*
X163647380Y-47855238D01*
X163647380Y-47664761D01*
X163599761Y-47569523D01*
X163552142Y-47521904D01*
X163456904Y-47474285D01*
X163218809Y-47474285D01*
X163123571Y-47521904D01*
X163075952Y-47569523D01*
X163028333Y-47664761D01*
X163028333Y-47855238D01*
X163075952Y-47950476D01*
X163123571Y-47998095D01*
X163218809Y-48045714D01*
G04 #@! TO.C,R7*
X163647380Y-40806666D02*
X163171190Y-41140000D01*
X163647380Y-41378095D02*
X162647380Y-41378095D01*
X162647380Y-40997142D01*
X162695000Y-40901904D01*
X162742619Y-40854285D01*
X162837857Y-40806666D01*
X162980714Y-40806666D01*
X163075952Y-40854285D01*
X163123571Y-40901904D01*
X163171190Y-40997142D01*
X163171190Y-41378095D01*
X162647380Y-40473333D02*
X162647380Y-39806666D01*
X163647380Y-40235238D01*
G04 #@! TO.C,SW1*
X154541666Y-33574761D02*
X154684523Y-33622380D01*
X154922619Y-33622380D01*
X155017857Y-33574761D01*
X155065476Y-33527142D01*
X155113095Y-33431904D01*
X155113095Y-33336666D01*
X155065476Y-33241428D01*
X155017857Y-33193809D01*
X154922619Y-33146190D01*
X154732142Y-33098571D01*
X154636904Y-33050952D01*
X154589285Y-33003333D01*
X154541666Y-32908095D01*
X154541666Y-32812857D01*
X154589285Y-32717619D01*
X154636904Y-32670000D01*
X154732142Y-32622380D01*
X154970238Y-32622380D01*
X155113095Y-32670000D01*
X155446428Y-32622380D02*
X155684523Y-33622380D01*
X155875000Y-32908095D01*
X156065476Y-33622380D01*
X156303571Y-32622380D01*
X157208333Y-33622380D02*
X156636904Y-33622380D01*
X156922619Y-33622380D02*
X156922619Y-32622380D01*
X156827380Y-32765238D01*
X156732142Y-32860476D01*
X156636904Y-32908095D01*
G04 #@! TO.C,SW2*
X144541666Y-63404761D02*
X144684523Y-63452380D01*
X144922619Y-63452380D01*
X145017857Y-63404761D01*
X145065476Y-63357142D01*
X145113095Y-63261904D01*
X145113095Y-63166666D01*
X145065476Y-63071428D01*
X145017857Y-63023809D01*
X144922619Y-62976190D01*
X144732142Y-62928571D01*
X144636904Y-62880952D01*
X144589285Y-62833333D01*
X144541666Y-62738095D01*
X144541666Y-62642857D01*
X144589285Y-62547619D01*
X144636904Y-62500000D01*
X144732142Y-62452380D01*
X144970238Y-62452380D01*
X145113095Y-62500000D01*
X145446428Y-62452380D02*
X145684523Y-63452380D01*
X145875000Y-62738095D01*
X146065476Y-63452380D01*
X146303571Y-62452380D01*
X146636904Y-62547619D02*
X146684523Y-62500000D01*
X146779761Y-62452380D01*
X147017857Y-62452380D01*
X147113095Y-62500000D01*
X147160714Y-62547619D01*
X147208333Y-62642857D01*
X147208333Y-62738095D01*
X147160714Y-62880952D01*
X146589285Y-63452380D01*
X147208333Y-63452380D01*
G04 #@! TO.C,U1*
X153122380Y-66166904D02*
X153931904Y-66166904D01*
X154027142Y-66119285D01*
X154074761Y-66071666D01*
X154122380Y-65976428D01*
X154122380Y-65785952D01*
X154074761Y-65690714D01*
X154027142Y-65643095D01*
X153931904Y-65595476D01*
X153122380Y-65595476D01*
X154122380Y-64595476D02*
X154122380Y-65166904D01*
X154122380Y-64881190D02*
X153122380Y-64881190D01*
X153265238Y-64976428D01*
X153360476Y-65071666D01*
X153408095Y-65166904D01*
G04 #@! TO.C,J4*
X167041666Y-52622380D02*
X167041666Y-53336666D01*
X166994047Y-53479523D01*
X166898809Y-53574761D01*
X166755952Y-53622380D01*
X166660714Y-53622380D01*
X167946428Y-52955714D02*
X167946428Y-53622380D01*
X167708333Y-52574761D02*
X167470238Y-53289047D01*
X168089285Y-53289047D01*
G04 #@! TO.C,J5*
X170541666Y-52622380D02*
X170541666Y-53336666D01*
X170494047Y-53479523D01*
X170398809Y-53574761D01*
X170255952Y-53622380D01*
X170160714Y-53622380D01*
X171494047Y-52622380D02*
X171017857Y-52622380D01*
X170970238Y-53098571D01*
X171017857Y-53050952D01*
X171113095Y-53003333D01*
X171351190Y-53003333D01*
X171446428Y-53050952D01*
X171494047Y-53098571D01*
X171541666Y-53193809D01*
X171541666Y-53431904D01*
X171494047Y-53527142D01*
X171446428Y-53574761D01*
X171351190Y-53622380D01*
X171113095Y-53622380D01*
X171017857Y-53574761D01*
X170970238Y-53527142D01*
G04 #@! TO.C,J6*
X174041666Y-52622380D02*
X174041666Y-53336666D01*
X173994047Y-53479523D01*
X173898809Y-53574761D01*
X173755952Y-53622380D01*
X173660714Y-53622380D01*
X174946428Y-52622380D02*
X174755952Y-52622380D01*
X174660714Y-52670000D01*
X174613095Y-52717619D01*
X174517857Y-52860476D01*
X174470238Y-53050952D01*
X174470238Y-53431904D01*
X174517857Y-53527142D01*
X174565476Y-53574761D01*
X174660714Y-53622380D01*
X174851190Y-53622380D01*
X174946428Y-53574761D01*
X174994047Y-53527142D01*
X175041666Y-53431904D01*
X175041666Y-53193809D01*
X174994047Y-53098571D01*
X174946428Y-53050952D01*
X174851190Y-53003333D01*
X174660714Y-53003333D01*
X174565476Y-53050952D01*
X174517857Y-53098571D01*
X174470238Y-53193809D01*
G04 #@! TO.C,J7*
X177541666Y-52622380D02*
X177541666Y-53336666D01*
X177494047Y-53479523D01*
X177398809Y-53574761D01*
X177255952Y-53622380D01*
X177160714Y-53622380D01*
X177922619Y-52622380D02*
X178589285Y-52622380D01*
X178160714Y-53622380D01*
G04 #@! TD*
M02*
