G04 #@! TF.GenerationSoftware,KiCad,Pcbnew,(5.0.2)-1*
G04 #@! TF.CreationDate,2020-08-19T16:16:04+02:00*
G04 #@! TF.ProjectId,RGB-LED-controller,5247422d-4c45-4442-9d63-6f6e74726f6c,rev?*
G04 #@! TF.SameCoordinates,Original*
G04 #@! TF.FileFunction,Copper,L2,Bot*
G04 #@! TF.FilePolarity,Positive*
%FSLAX46Y46*%
G04 Gerber Fmt 4.6, Leading zero omitted, Abs format (unit mm)*
G04 Created by KiCad (PCBNEW (5.0.2)-1) date 19/08/2020 16:16:04*
%MOMM*%
%LPD*%
G01*
G04 APERTURE LIST*
G04 #@! TA.AperFunction,ComponentPad*
%ADD10R,3.500000X3.500000*%
G04 #@! TD*
G04 #@! TA.AperFunction,Conductor*
%ADD11C,0.100000*%
G04 #@! TD*
G04 #@! TA.AperFunction,ComponentPad*
%ADD12C,3.000000*%
G04 #@! TD*
G04 #@! TA.AperFunction,ComponentPad*
%ADD13C,3.500000*%
G04 #@! TD*
G04 #@! TA.AperFunction,ComponentPad*
%ADD14R,1.700000X1.700000*%
G04 #@! TD*
G04 #@! TA.AperFunction,ComponentPad*
%ADD15O,1.700000X1.700000*%
G04 #@! TD*
G04 #@! TA.AperFunction,ViaPad*
%ADD16C,0.800000*%
G04 #@! TD*
G04 #@! TA.AperFunction,Conductor*
%ADD17C,0.600000*%
G04 #@! TD*
G04 #@! TA.AperFunction,Conductor*
%ADD18C,0.800000*%
G04 #@! TD*
G04 #@! TA.AperFunction,Conductor*
%ADD19C,1.000000*%
G04 #@! TD*
G04 #@! TA.AperFunction,Conductor*
%ADD20C,0.254000*%
G04 #@! TD*
G04 APERTURE END LIST*
D10*
G04 #@! TO.P,J1,1*
G04 #@! TO.N,Net-(J1-Pad1)*
X173875000Y-59170000D03*
D11*
G04 #@! TD*
G04 #@! TO.N,GND*
G04 #@! TO.C,J1*
G36*
X174948513Y-63673611D02*
X175021318Y-63684411D01*
X175092714Y-63702295D01*
X175162013Y-63727090D01*
X175228548Y-63758559D01*
X175291678Y-63796398D01*
X175350795Y-63840242D01*
X175405330Y-63889670D01*
X175454758Y-63944205D01*
X175498602Y-64003322D01*
X175536441Y-64066452D01*
X175567910Y-64132987D01*
X175592705Y-64202286D01*
X175610589Y-64273682D01*
X175621389Y-64346487D01*
X175625000Y-64420000D01*
X175625000Y-65920000D01*
X175621389Y-65993513D01*
X175610589Y-66066318D01*
X175592705Y-66137714D01*
X175567910Y-66207013D01*
X175536441Y-66273548D01*
X175498602Y-66336678D01*
X175454758Y-66395795D01*
X175405330Y-66450330D01*
X175350795Y-66499758D01*
X175291678Y-66543602D01*
X175228548Y-66581441D01*
X175162013Y-66612910D01*
X175092714Y-66637705D01*
X175021318Y-66655589D01*
X174948513Y-66666389D01*
X174875000Y-66670000D01*
X172875000Y-66670000D01*
X172801487Y-66666389D01*
X172728682Y-66655589D01*
X172657286Y-66637705D01*
X172587987Y-66612910D01*
X172521452Y-66581441D01*
X172458322Y-66543602D01*
X172399205Y-66499758D01*
X172344670Y-66450330D01*
X172295242Y-66395795D01*
X172251398Y-66336678D01*
X172213559Y-66273548D01*
X172182090Y-66207013D01*
X172157295Y-66137714D01*
X172139411Y-66066318D01*
X172128611Y-65993513D01*
X172125000Y-65920000D01*
X172125000Y-64420000D01*
X172128611Y-64346487D01*
X172139411Y-64273682D01*
X172157295Y-64202286D01*
X172182090Y-64132987D01*
X172213559Y-64066452D01*
X172251398Y-64003322D01*
X172295242Y-63944205D01*
X172344670Y-63889670D01*
X172399205Y-63840242D01*
X172458322Y-63796398D01*
X172521452Y-63758559D01*
X172587987Y-63727090D01*
X172657286Y-63702295D01*
X172728682Y-63684411D01*
X172801487Y-63673611D01*
X172875000Y-63670000D01*
X174875000Y-63670000D01*
X174948513Y-63673611D01*
X174948513Y-63673611D01*
G37*
D12*
G04 #@! TO.P,J1,2*
G04 #@! TO.N,GND*
X173875000Y-65170000D03*
D11*
G04 #@! TD*
G04 #@! TO.N,N/C*
G04 #@! TO.C,J1*
G36*
X179535765Y-60424213D02*
X179620704Y-60436813D01*
X179703999Y-60457677D01*
X179784848Y-60486605D01*
X179862472Y-60523319D01*
X179936124Y-60567464D01*
X180005094Y-60618616D01*
X180068718Y-60676282D01*
X180126384Y-60739906D01*
X180177536Y-60808876D01*
X180221681Y-60882528D01*
X180258395Y-60960152D01*
X180287323Y-61041001D01*
X180308187Y-61124296D01*
X180320787Y-61209235D01*
X180325000Y-61295000D01*
X180325000Y-63045000D01*
X180320787Y-63130765D01*
X180308187Y-63215704D01*
X180287323Y-63298999D01*
X180258395Y-63379848D01*
X180221681Y-63457472D01*
X180177536Y-63531124D01*
X180126384Y-63600094D01*
X180068718Y-63663718D01*
X180005094Y-63721384D01*
X179936124Y-63772536D01*
X179862472Y-63816681D01*
X179784848Y-63853395D01*
X179703999Y-63882323D01*
X179620704Y-63903187D01*
X179535765Y-63915787D01*
X179450000Y-63920000D01*
X177700000Y-63920000D01*
X177614235Y-63915787D01*
X177529296Y-63903187D01*
X177446001Y-63882323D01*
X177365152Y-63853395D01*
X177287528Y-63816681D01*
X177213876Y-63772536D01*
X177144906Y-63721384D01*
X177081282Y-63663718D01*
X177023616Y-63600094D01*
X176972464Y-63531124D01*
X176928319Y-63457472D01*
X176891605Y-63379848D01*
X176862677Y-63298999D01*
X176841813Y-63215704D01*
X176829213Y-63130765D01*
X176825000Y-63045000D01*
X176825000Y-61295000D01*
X176829213Y-61209235D01*
X176841813Y-61124296D01*
X176862677Y-61041001D01*
X176891605Y-60960152D01*
X176928319Y-60882528D01*
X176972464Y-60808876D01*
X177023616Y-60739906D01*
X177081282Y-60676282D01*
X177144906Y-60618616D01*
X177213876Y-60567464D01*
X177287528Y-60523319D01*
X177365152Y-60486605D01*
X177446001Y-60457677D01*
X177529296Y-60436813D01*
X177614235Y-60424213D01*
X177700000Y-60420000D01*
X179450000Y-60420000D01*
X179535765Y-60424213D01*
X179535765Y-60424213D01*
G37*
D13*
G04 #@! TO.P,J1,3*
G04 #@! TO.N,N/C*
X178575000Y-62170000D03*
G04 #@! TD*
D14*
G04 #@! TO.P,J2,1*
G04 #@! TO.N,GND*
X185875000Y-48895000D03*
D15*
G04 #@! TO.P,J2,2*
G04 #@! TO.N,Net-(J2-Pad2)*
X185875000Y-46355000D03*
G04 #@! TO.P,J2,3*
G04 #@! TO.N,FTDI_VCC*
X185875000Y-43815000D03*
G04 #@! TO.P,J2,4*
G04 #@! TO.N,Net-(J2-Pad4)*
X185875000Y-41275000D03*
G04 #@! TO.P,J2,5*
G04 #@! TO.N,Net-(J2-Pad5)*
X185875000Y-38735000D03*
G04 #@! TO.P,J2,6*
G04 #@! TO.N,Net-(J2-Pad6)*
X185875000Y-36195000D03*
G04 #@! TD*
D14*
G04 #@! TO.P,J3,1*
G04 #@! TO.N,+12V*
X146375000Y-43170000D03*
D15*
G04 #@! TO.P,J3,2*
G04 #@! TO.N,/R*
X146375000Y-45710000D03*
G04 #@! TO.P,J3,3*
G04 #@! TO.N,/G*
X146375000Y-48250000D03*
G04 #@! TO.P,J3,4*
G04 #@! TO.N,/B*
X146375000Y-50790000D03*
G04 #@! TD*
D14*
G04 #@! TO.P,JP1,1*
G04 #@! TO.N,Net-(JP1-Pad1)*
X185420000Y-54610000D03*
D15*
G04 #@! TO.P,JP1,2*
G04 #@! TO.N,GND*
X185420000Y-57150000D03*
G04 #@! TD*
G04 #@! TO.P,SW2,2*
G04 #@! TO.N,+12V*
X145875000Y-58130000D03*
D14*
G04 #@! TO.P,SW2,1*
G04 #@! TO.N,Net-(J1-Pad1)*
X145875000Y-60670000D03*
G04 #@! TD*
G04 #@! TO.P,J4,1*
G04 #@! TO.N,Net-(J4-Pad1)*
X167375000Y-55170000D03*
G04 #@! TD*
G04 #@! TO.P,J5,1*
G04 #@! TO.N,Net-(J5-Pad1)*
X170875000Y-55170000D03*
G04 #@! TD*
G04 #@! TO.P,J6,1*
G04 #@! TO.N,Net-(J6-Pad1)*
X174375000Y-55170000D03*
G04 #@! TD*
G04 #@! TO.P,J7,1*
G04 #@! TO.N,Net-(J7-Pad1)*
X177875000Y-55170000D03*
G04 #@! TD*
D16*
G04 #@! TO.N,FTDI_VCC*
X166375000Y-60670000D03*
X166375000Y-65670000D03*
X183375000Y-42670000D03*
X171375000Y-42670000D03*
G04 #@! TO.N,Net-(J4-Pad1)*
X168375000Y-45170000D03*
G04 #@! TO.N,Net-(J5-Pad1)*
X171375000Y-48170000D03*
G04 #@! TO.N,Net-(J6-Pad1)*
X176875000Y-44670000D03*
G04 #@! TO.N,Net-(J7-Pad1)*
X178375000Y-46670000D03*
G04 #@! TD*
D17*
G04 #@! TO.N,GND*
X185875000Y-48895000D02*
X184425000Y-48895000D01*
X184425000Y-48895000D02*
X182875000Y-50445000D01*
X183395000Y-56170000D02*
X184375000Y-57150000D01*
X184375000Y-57150000D02*
X185420000Y-57150000D01*
X183375000Y-56170000D02*
X182875000Y-55670000D01*
X183395000Y-56170000D02*
X183375000Y-56170000D01*
X182875000Y-50445000D02*
X182875000Y-55670000D01*
D18*
G04 #@! TO.N,FTDI_VCC*
X166375000Y-60670000D02*
X166375000Y-65670000D01*
D17*
X183375000Y-42670000D02*
X171375000Y-42670000D01*
D19*
G04 #@! TO.N,Net-(J1-Pad1)*
X173375000Y-58670000D02*
X173875000Y-59170000D01*
X160375000Y-58670000D02*
X173375000Y-58670000D01*
X157875000Y-61170000D02*
X160375000Y-58670000D01*
X148225000Y-61170000D02*
X157875000Y-61170000D01*
X145875000Y-60670000D02*
X147725000Y-60670000D01*
X147725000Y-60670000D02*
X148225000Y-61170000D01*
D17*
G04 #@! TO.N,Net-(J4-Pad1)*
X168375000Y-54170000D02*
X167375000Y-55170000D01*
X168375000Y-45170000D02*
X168375000Y-54170000D01*
G04 #@! TO.N,Net-(J5-Pad1)*
X170875000Y-48670000D02*
X171375000Y-48170000D01*
X170875000Y-55170000D02*
X170875000Y-48670000D01*
G04 #@! TO.N,Net-(J6-Pad1)*
X174375000Y-55170000D02*
X174375000Y-47170000D01*
X174375000Y-47170000D02*
X176875000Y-44670000D01*
G04 #@! TO.N,Net-(J7-Pad1)*
X177875000Y-47170000D02*
X177875000Y-55170000D01*
X178375000Y-46670000D02*
X177875000Y-47170000D01*
G04 #@! TD*
D20*
G04 #@! TO.N,GND*
G36*
X164248000Y-34670000D02*
X164257667Y-34718601D01*
X164285197Y-34759803D01*
X164326399Y-34787333D01*
X164375000Y-34797000D01*
X182375000Y-34797000D01*
X182423601Y-34787333D01*
X182464803Y-34759803D01*
X182492333Y-34718601D01*
X182502000Y-34670000D01*
X182502000Y-29821151D01*
X183172455Y-29821151D01*
X183178206Y-30553402D01*
X183420836Y-31244311D01*
X183874182Y-31819377D01*
X184489360Y-32216593D01*
X185200036Y-32393126D01*
X185929578Y-32329940D01*
X186599321Y-32033850D01*
X187137046Y-31536783D01*
X187484770Y-30892336D01*
X187605000Y-30170000D01*
X187604725Y-30134973D01*
X187473164Y-29414614D01*
X187115360Y-28775709D01*
X186569894Y-28287149D01*
X185895583Y-28001615D01*
X185165138Y-27949897D01*
X184457323Y-28137571D01*
X183848460Y-28544400D01*
X183404203Y-29126517D01*
X183172455Y-29821151D01*
X182502000Y-29821151D01*
X182502000Y-27380000D01*
X185760910Y-27380000D01*
X187885001Y-29504092D01*
X187885000Y-67015909D01*
X185760910Y-69140000D01*
X145709091Y-69140000D01*
X143585000Y-67015910D01*
X143585000Y-65821151D01*
X144172455Y-65821151D01*
X144178206Y-66553402D01*
X144420836Y-67244311D01*
X144874182Y-67819377D01*
X145489360Y-68216593D01*
X146200036Y-68393126D01*
X146929578Y-68329940D01*
X147599321Y-68033850D01*
X148137046Y-67536783D01*
X148484770Y-66892336D01*
X148605000Y-66170000D01*
X148604725Y-66134973D01*
X148473164Y-65414614D01*
X148115360Y-64775709D01*
X147569894Y-64287149D01*
X146895583Y-64001615D01*
X146165138Y-63949897D01*
X145457323Y-64137571D01*
X144848460Y-64544400D01*
X144404203Y-65126517D01*
X144172455Y-65821151D01*
X143585000Y-65821151D01*
X143585000Y-58130000D01*
X144360908Y-58130000D01*
X144476161Y-58709418D01*
X144804375Y-59200625D01*
X144822619Y-59212816D01*
X144777235Y-59221843D01*
X144567191Y-59362191D01*
X144426843Y-59572235D01*
X144377560Y-59820000D01*
X144377560Y-61520000D01*
X144426843Y-61767765D01*
X144567191Y-61977809D01*
X144777235Y-62118157D01*
X145025000Y-62167440D01*
X146725000Y-62167440D01*
X146972765Y-62118157D01*
X147182809Y-61977809D01*
X147280890Y-61831021D01*
X147343387Y-61893518D01*
X147406711Y-61988289D01*
X147782145Y-62239146D01*
X148225000Y-62327235D01*
X148336783Y-62305000D01*
X157763217Y-62305000D01*
X157875000Y-62327235D01*
X157986783Y-62305000D01*
X158317855Y-62239146D01*
X158693289Y-61988289D01*
X158756613Y-61893518D01*
X160845132Y-59805000D01*
X165776289Y-59805000D01*
X165715224Y-59866065D01*
X165628807Y-59923807D01*
X165571066Y-60010223D01*
X165497569Y-60083720D01*
X165457793Y-60179749D01*
X165400052Y-60266164D01*
X165379776Y-60368098D01*
X165340000Y-60464126D01*
X165340000Y-60568066D01*
X165340001Y-65464124D01*
X165340000Y-65464126D01*
X165340000Y-65875874D01*
X165379778Y-65971906D01*
X165400053Y-66073837D01*
X165457792Y-66160249D01*
X165497569Y-66256280D01*
X165571068Y-66329779D01*
X165628808Y-66416193D01*
X165715222Y-66473933D01*
X165788720Y-66547431D01*
X165884749Y-66587208D01*
X165971164Y-66644948D01*
X166073098Y-66665224D01*
X166169126Y-66705000D01*
X166273066Y-66705000D01*
X166375000Y-66725276D01*
X166476935Y-66705000D01*
X166580874Y-66705000D01*
X166676902Y-66665224D01*
X166778837Y-66644948D01*
X166865253Y-66587207D01*
X166961280Y-66547431D01*
X167034776Y-66473935D01*
X167121193Y-66416193D01*
X167178935Y-66329776D01*
X167252431Y-66256280D01*
X167292207Y-66160253D01*
X167349948Y-66073837D01*
X167370224Y-65971901D01*
X167410000Y-65875874D01*
X167410000Y-65455750D01*
X171490000Y-65455750D01*
X171490000Y-66796309D01*
X171586673Y-67029698D01*
X171765301Y-67208327D01*
X171998690Y-67305000D01*
X173589250Y-67305000D01*
X173748000Y-67146250D01*
X173748000Y-65297000D01*
X174002000Y-65297000D01*
X174002000Y-67146250D01*
X174160750Y-67305000D01*
X175751310Y-67305000D01*
X175984699Y-67208327D01*
X176163327Y-67029698D01*
X176260000Y-66796309D01*
X176260000Y-65821151D01*
X183172455Y-65821151D01*
X183178206Y-66553402D01*
X183420836Y-67244311D01*
X183874182Y-67819377D01*
X184489360Y-68216593D01*
X185200036Y-68393126D01*
X185929578Y-68329940D01*
X186599321Y-68033850D01*
X187137046Y-67536783D01*
X187484770Y-66892336D01*
X187605000Y-66170000D01*
X187604725Y-66134973D01*
X187473164Y-65414614D01*
X187115360Y-64775709D01*
X186569894Y-64287149D01*
X185895583Y-64001615D01*
X185165138Y-63949897D01*
X184457323Y-64137571D01*
X183848460Y-64544400D01*
X183404203Y-65126517D01*
X183172455Y-65821151D01*
X176260000Y-65821151D01*
X176260000Y-65455750D01*
X176101250Y-65297000D01*
X174002000Y-65297000D01*
X173748000Y-65297000D01*
X171648750Y-65297000D01*
X171490000Y-65455750D01*
X167410000Y-65455750D01*
X167410000Y-63543691D01*
X171490000Y-63543691D01*
X171490000Y-64884250D01*
X171648750Y-65043000D01*
X173748000Y-65043000D01*
X173748000Y-63193750D01*
X174002000Y-63193750D01*
X174002000Y-65043000D01*
X176101250Y-65043000D01*
X176260000Y-64884250D01*
X176260000Y-63543691D01*
X176163327Y-63310302D01*
X175984699Y-63131673D01*
X175751310Y-63035000D01*
X174160750Y-63035000D01*
X174002000Y-63193750D01*
X173748000Y-63193750D01*
X173589250Y-63035000D01*
X171998690Y-63035000D01*
X171765301Y-63131673D01*
X171586673Y-63310302D01*
X171490000Y-63543691D01*
X167410000Y-63543691D01*
X167410000Y-60464126D01*
X167370224Y-60368099D01*
X167349948Y-60266163D01*
X167292207Y-60179747D01*
X167252431Y-60083720D01*
X167178935Y-60010224D01*
X167121193Y-59923807D01*
X167034777Y-59866066D01*
X166973711Y-59805000D01*
X171477560Y-59805000D01*
X171477560Y-60920000D01*
X171526843Y-61167765D01*
X171667191Y-61377809D01*
X171877235Y-61518157D01*
X172125000Y-61567440D01*
X175625000Y-61567440D01*
X175872765Y-61518157D01*
X176082809Y-61377809D01*
X176194269Y-61210999D01*
X176177560Y-61295000D01*
X176177560Y-63045000D01*
X176293449Y-63627613D01*
X176623472Y-64121528D01*
X177117387Y-64451551D01*
X177700000Y-64567440D01*
X179450000Y-64567440D01*
X180032613Y-64451551D01*
X180526528Y-64121528D01*
X180856551Y-63627613D01*
X180972440Y-63045000D01*
X180972440Y-61295000D01*
X180856551Y-60712387D01*
X180526528Y-60218472D01*
X180032613Y-59888449D01*
X179450000Y-59772560D01*
X177700000Y-59772560D01*
X177117387Y-59888449D01*
X176623472Y-60218472D01*
X176293449Y-60712387D01*
X176272440Y-60818006D01*
X176272440Y-57506890D01*
X183978524Y-57506890D01*
X184148355Y-57916924D01*
X184538642Y-58345183D01*
X185063108Y-58591486D01*
X185293000Y-58470819D01*
X185293000Y-57277000D01*
X185547000Y-57277000D01*
X185547000Y-58470819D01*
X185776892Y-58591486D01*
X186301358Y-58345183D01*
X186691645Y-57916924D01*
X186861476Y-57506890D01*
X186740155Y-57277000D01*
X185547000Y-57277000D01*
X185293000Y-57277000D01*
X184099845Y-57277000D01*
X183978524Y-57506890D01*
X176272440Y-57506890D01*
X176272440Y-57420000D01*
X176223157Y-57172235D01*
X176082809Y-56962191D01*
X175872765Y-56821843D01*
X175625000Y-56772560D01*
X172125000Y-56772560D01*
X171877235Y-56821843D01*
X171667191Y-56962191D01*
X171526843Y-57172235D01*
X171477560Y-57420000D01*
X171477560Y-57535000D01*
X160486783Y-57535000D01*
X160375000Y-57512765D01*
X159932145Y-57600854D01*
X159556711Y-57851711D01*
X159493389Y-57946479D01*
X157404869Y-60035000D01*
X148695131Y-60035000D01*
X148606613Y-59946482D01*
X148543289Y-59851711D01*
X148167855Y-59600854D01*
X147836783Y-59535000D01*
X147725000Y-59512765D01*
X147613217Y-59535000D01*
X147298277Y-59535000D01*
X147182809Y-59362191D01*
X146972765Y-59221843D01*
X146927381Y-59212816D01*
X146945625Y-59200625D01*
X147273839Y-58709418D01*
X147389092Y-58130000D01*
X147273839Y-57550582D01*
X146945625Y-57059375D01*
X146454418Y-56731161D01*
X146021256Y-56645000D01*
X145728744Y-56645000D01*
X145295582Y-56731161D01*
X144804375Y-57059375D01*
X144476161Y-57550582D01*
X144360908Y-58130000D01*
X143585000Y-58130000D01*
X143585000Y-54320000D01*
X165877560Y-54320000D01*
X165877560Y-56020000D01*
X165926843Y-56267765D01*
X166067191Y-56477809D01*
X166277235Y-56618157D01*
X166525000Y-56667440D01*
X168225000Y-56667440D01*
X168472765Y-56618157D01*
X168682809Y-56477809D01*
X168823157Y-56267765D01*
X168872440Y-56020000D01*
X168872440Y-54994849D01*
X168971028Y-54896261D01*
X169049097Y-54844097D01*
X169255750Y-54534819D01*
X169298480Y-54320000D01*
X169377560Y-54320000D01*
X169377560Y-56020000D01*
X169426843Y-56267765D01*
X169567191Y-56477809D01*
X169777235Y-56618157D01*
X170025000Y-56667440D01*
X171725000Y-56667440D01*
X171972765Y-56618157D01*
X172182809Y-56477809D01*
X172323157Y-56267765D01*
X172372440Y-56020000D01*
X172372440Y-54320000D01*
X172877560Y-54320000D01*
X172877560Y-56020000D01*
X172926843Y-56267765D01*
X173067191Y-56477809D01*
X173277235Y-56618157D01*
X173525000Y-56667440D01*
X175225000Y-56667440D01*
X175472765Y-56618157D01*
X175682809Y-56477809D01*
X175823157Y-56267765D01*
X175872440Y-56020000D01*
X175872440Y-54320000D01*
X176377560Y-54320000D01*
X176377560Y-56020000D01*
X176426843Y-56267765D01*
X176567191Y-56477809D01*
X176777235Y-56618157D01*
X177025000Y-56667440D01*
X178725000Y-56667440D01*
X178972765Y-56618157D01*
X179182809Y-56477809D01*
X179323157Y-56267765D01*
X179372440Y-56020000D01*
X179372440Y-54320000D01*
X179323157Y-54072235D01*
X179182809Y-53862191D01*
X179029871Y-53760000D01*
X183922560Y-53760000D01*
X183922560Y-55460000D01*
X183971843Y-55707765D01*
X184112191Y-55917809D01*
X184322235Y-56058157D01*
X184425708Y-56078739D01*
X184148355Y-56383076D01*
X183978524Y-56793110D01*
X184099845Y-57023000D01*
X185293000Y-57023000D01*
X185293000Y-57003000D01*
X185547000Y-57003000D01*
X185547000Y-57023000D01*
X186740155Y-57023000D01*
X186861476Y-56793110D01*
X186691645Y-56383076D01*
X186414292Y-56078739D01*
X186517765Y-56058157D01*
X186727809Y-55917809D01*
X186868157Y-55707765D01*
X186917440Y-55460000D01*
X186917440Y-53760000D01*
X186868157Y-53512235D01*
X186727809Y-53302191D01*
X186517765Y-53161843D01*
X186270000Y-53112560D01*
X184570000Y-53112560D01*
X184322235Y-53161843D01*
X184112191Y-53302191D01*
X183971843Y-53512235D01*
X183922560Y-53760000D01*
X179029871Y-53760000D01*
X178972765Y-53721843D01*
X178810000Y-53689467D01*
X178810000Y-49180750D01*
X184390000Y-49180750D01*
X184390000Y-49871310D01*
X184486673Y-50104699D01*
X184665302Y-50283327D01*
X184898691Y-50380000D01*
X185589250Y-50380000D01*
X185748000Y-50221250D01*
X185748000Y-49022000D01*
X186002000Y-49022000D01*
X186002000Y-50221250D01*
X186160750Y-50380000D01*
X186851309Y-50380000D01*
X187084698Y-50283327D01*
X187263327Y-50104699D01*
X187360000Y-49871310D01*
X187360000Y-49180750D01*
X187201250Y-49022000D01*
X186002000Y-49022000D01*
X185748000Y-49022000D01*
X184548750Y-49022000D01*
X184390000Y-49180750D01*
X178810000Y-49180750D01*
X178810000Y-47610093D01*
X178961280Y-47547431D01*
X179252431Y-47256280D01*
X179410000Y-46875874D01*
X179410000Y-46464126D01*
X179252431Y-46083720D01*
X178961280Y-45792569D01*
X178580874Y-45635000D01*
X178169126Y-45635000D01*
X177788720Y-45792569D01*
X177497569Y-46083720D01*
X177397569Y-46325142D01*
X177278972Y-46443739D01*
X177200903Y-46495903D01*
X177021099Y-46765000D01*
X176994250Y-46805182D01*
X176921683Y-47170000D01*
X176940000Y-47262086D01*
X176940001Y-53689467D01*
X176777235Y-53721843D01*
X176567191Y-53862191D01*
X176426843Y-54072235D01*
X176377560Y-54320000D01*
X175872440Y-54320000D01*
X175823157Y-54072235D01*
X175682809Y-53862191D01*
X175472765Y-53721843D01*
X175310000Y-53689467D01*
X175310000Y-47557289D01*
X177219859Y-45647430D01*
X177461280Y-45547431D01*
X177752431Y-45256280D01*
X177910000Y-44875874D01*
X177910000Y-44464126D01*
X177752431Y-44083720D01*
X177461280Y-43792569D01*
X177080874Y-43635000D01*
X176669126Y-43635000D01*
X176288720Y-43792569D01*
X175997569Y-44083720D01*
X175897570Y-44325141D01*
X173778970Y-46443741D01*
X173700904Y-46495903D01*
X173648742Y-46573969D01*
X173648741Y-46573970D01*
X173494250Y-46805182D01*
X173421683Y-47170000D01*
X173440001Y-47262090D01*
X173440000Y-53689467D01*
X173277235Y-53721843D01*
X173067191Y-53862191D01*
X172926843Y-54072235D01*
X172877560Y-54320000D01*
X172372440Y-54320000D01*
X172323157Y-54072235D01*
X172182809Y-53862191D01*
X171972765Y-53721843D01*
X171810000Y-53689467D01*
X171810000Y-49110093D01*
X171961280Y-49047431D01*
X172252431Y-48756280D01*
X172410000Y-48375874D01*
X172410000Y-47964126D01*
X172252431Y-47583720D01*
X171961280Y-47292569D01*
X171580874Y-47135000D01*
X171169126Y-47135000D01*
X170788720Y-47292569D01*
X170497569Y-47583720D01*
X170397569Y-47825142D01*
X170278970Y-47943741D01*
X170200904Y-47995903D01*
X170148742Y-48073969D01*
X170148741Y-48073970D01*
X169994250Y-48305182D01*
X169921683Y-48670000D01*
X169940001Y-48762090D01*
X169940000Y-53689467D01*
X169777235Y-53721843D01*
X169567191Y-53862191D01*
X169426843Y-54072235D01*
X169377560Y-54320000D01*
X169298480Y-54320000D01*
X169310000Y-54262086D01*
X169328317Y-54170000D01*
X169310000Y-54077914D01*
X169310000Y-45617296D01*
X169410000Y-45375874D01*
X169410000Y-44964126D01*
X169252431Y-44583720D01*
X168961280Y-44292569D01*
X168580874Y-44135000D01*
X168169126Y-44135000D01*
X167788720Y-44292569D01*
X167497569Y-44583720D01*
X167340000Y-44964126D01*
X167340000Y-45375874D01*
X167440000Y-45617296D01*
X167440001Y-53672560D01*
X166525000Y-53672560D01*
X166277235Y-53721843D01*
X166067191Y-53862191D01*
X165926843Y-54072235D01*
X165877560Y-54320000D01*
X143585000Y-54320000D01*
X143585000Y-45710000D01*
X144860908Y-45710000D01*
X144976161Y-46289418D01*
X145304375Y-46780625D01*
X145602761Y-46980000D01*
X145304375Y-47179375D01*
X144976161Y-47670582D01*
X144860908Y-48250000D01*
X144976161Y-48829418D01*
X145304375Y-49320625D01*
X145602761Y-49520000D01*
X145304375Y-49719375D01*
X144976161Y-50210582D01*
X144860908Y-50790000D01*
X144976161Y-51369418D01*
X145304375Y-51860625D01*
X145795582Y-52188839D01*
X146228744Y-52275000D01*
X146521256Y-52275000D01*
X146954418Y-52188839D01*
X147445625Y-51860625D01*
X147773839Y-51369418D01*
X147889092Y-50790000D01*
X147773839Y-50210582D01*
X147445625Y-49719375D01*
X147147239Y-49520000D01*
X147445625Y-49320625D01*
X147773839Y-48829418D01*
X147889092Y-48250000D01*
X147773839Y-47670582D01*
X147445625Y-47179375D01*
X147147239Y-46980000D01*
X147445625Y-46780625D01*
X147773839Y-46289418D01*
X147889092Y-45710000D01*
X147773839Y-45130582D01*
X147445625Y-44639375D01*
X147427381Y-44627184D01*
X147472765Y-44618157D01*
X147682809Y-44477809D01*
X147823157Y-44267765D01*
X147872440Y-44020000D01*
X147872440Y-42464126D01*
X170340000Y-42464126D01*
X170340000Y-42875874D01*
X170497569Y-43256280D01*
X170788720Y-43547431D01*
X171169126Y-43705000D01*
X171580874Y-43705000D01*
X171822296Y-43605000D01*
X182927704Y-43605000D01*
X183169126Y-43705000D01*
X183580874Y-43705000D01*
X183961280Y-43547431D01*
X184252431Y-43256280D01*
X184410000Y-42875874D01*
X184410000Y-42464126D01*
X184252431Y-42083720D01*
X183961280Y-41792569D01*
X183580874Y-41635000D01*
X183169126Y-41635000D01*
X182927704Y-41735000D01*
X171822296Y-41735000D01*
X171580874Y-41635000D01*
X171169126Y-41635000D01*
X170788720Y-41792569D01*
X170497569Y-42083720D01*
X170340000Y-42464126D01*
X147872440Y-42464126D01*
X147872440Y-42320000D01*
X147823157Y-42072235D01*
X147682809Y-41862191D01*
X147472765Y-41721843D01*
X147225000Y-41672560D01*
X145525000Y-41672560D01*
X145277235Y-41721843D01*
X145067191Y-41862191D01*
X144926843Y-42072235D01*
X144877560Y-42320000D01*
X144877560Y-44020000D01*
X144926843Y-44267765D01*
X145067191Y-44477809D01*
X145277235Y-44618157D01*
X145322619Y-44627184D01*
X145304375Y-44639375D01*
X144976161Y-45130582D01*
X144860908Y-45710000D01*
X143585000Y-45710000D01*
X143585000Y-36195000D01*
X184360908Y-36195000D01*
X184476161Y-36774418D01*
X184804375Y-37265625D01*
X185102761Y-37465000D01*
X184804375Y-37664375D01*
X184476161Y-38155582D01*
X184360908Y-38735000D01*
X184476161Y-39314418D01*
X184804375Y-39805625D01*
X185102761Y-40005000D01*
X184804375Y-40204375D01*
X184476161Y-40695582D01*
X184360908Y-41275000D01*
X184476161Y-41854418D01*
X184804375Y-42345625D01*
X185102761Y-42545000D01*
X184804375Y-42744375D01*
X184476161Y-43235582D01*
X184360908Y-43815000D01*
X184476161Y-44394418D01*
X184804375Y-44885625D01*
X185102761Y-45085000D01*
X184804375Y-45284375D01*
X184476161Y-45775582D01*
X184360908Y-46355000D01*
X184476161Y-46934418D01*
X184804375Y-47425625D01*
X184826033Y-47440096D01*
X184665302Y-47506673D01*
X184486673Y-47685301D01*
X184390000Y-47918690D01*
X184390000Y-48609250D01*
X184548750Y-48768000D01*
X185748000Y-48768000D01*
X185748000Y-48748000D01*
X186002000Y-48748000D01*
X186002000Y-48768000D01*
X187201250Y-48768000D01*
X187360000Y-48609250D01*
X187360000Y-47918690D01*
X187263327Y-47685301D01*
X187084698Y-47506673D01*
X186923967Y-47440096D01*
X186945625Y-47425625D01*
X187273839Y-46934418D01*
X187389092Y-46355000D01*
X187273839Y-45775582D01*
X186945625Y-45284375D01*
X186647239Y-45085000D01*
X186945625Y-44885625D01*
X187273839Y-44394418D01*
X187389092Y-43815000D01*
X187273839Y-43235582D01*
X186945625Y-42744375D01*
X186647239Y-42545000D01*
X186945625Y-42345625D01*
X187273839Y-41854418D01*
X187389092Y-41275000D01*
X187273839Y-40695582D01*
X186945625Y-40204375D01*
X186647239Y-40005000D01*
X186945625Y-39805625D01*
X187273839Y-39314418D01*
X187389092Y-38735000D01*
X187273839Y-38155582D01*
X186945625Y-37664375D01*
X186647239Y-37465000D01*
X186945625Y-37265625D01*
X187273839Y-36774418D01*
X187389092Y-36195000D01*
X187273839Y-35615582D01*
X186945625Y-35124375D01*
X186454418Y-34796161D01*
X186021256Y-34710000D01*
X185728744Y-34710000D01*
X185295582Y-34796161D01*
X184804375Y-35124375D01*
X184476161Y-35615582D01*
X184360908Y-36195000D01*
X143585000Y-36195000D01*
X143585000Y-29821151D01*
X144172455Y-29821151D01*
X144178206Y-30553402D01*
X144420836Y-31244311D01*
X144874182Y-31819377D01*
X145489360Y-32216593D01*
X146200036Y-32393126D01*
X146929578Y-32329940D01*
X147599321Y-32033850D01*
X148137046Y-31536783D01*
X148484770Y-30892336D01*
X148605000Y-30170000D01*
X148604725Y-30134973D01*
X148473164Y-29414614D01*
X148115360Y-28775709D01*
X147569894Y-28287149D01*
X146895583Y-28001615D01*
X146165138Y-27949897D01*
X145457323Y-28137571D01*
X144848460Y-28544400D01*
X144404203Y-29126517D01*
X144172455Y-29821151D01*
X143585000Y-29821151D01*
X143585000Y-29504090D01*
X145709091Y-27380000D01*
X164248000Y-27380000D01*
X164248000Y-34670000D01*
X164248000Y-34670000D01*
G37*
X164248000Y-34670000D02*
X164257667Y-34718601D01*
X164285197Y-34759803D01*
X164326399Y-34787333D01*
X164375000Y-34797000D01*
X182375000Y-34797000D01*
X182423601Y-34787333D01*
X182464803Y-34759803D01*
X182492333Y-34718601D01*
X182502000Y-34670000D01*
X182502000Y-29821151D01*
X183172455Y-29821151D01*
X183178206Y-30553402D01*
X183420836Y-31244311D01*
X183874182Y-31819377D01*
X184489360Y-32216593D01*
X185200036Y-32393126D01*
X185929578Y-32329940D01*
X186599321Y-32033850D01*
X187137046Y-31536783D01*
X187484770Y-30892336D01*
X187605000Y-30170000D01*
X187604725Y-30134973D01*
X187473164Y-29414614D01*
X187115360Y-28775709D01*
X186569894Y-28287149D01*
X185895583Y-28001615D01*
X185165138Y-27949897D01*
X184457323Y-28137571D01*
X183848460Y-28544400D01*
X183404203Y-29126517D01*
X183172455Y-29821151D01*
X182502000Y-29821151D01*
X182502000Y-27380000D01*
X185760910Y-27380000D01*
X187885001Y-29504092D01*
X187885000Y-67015909D01*
X185760910Y-69140000D01*
X145709091Y-69140000D01*
X143585000Y-67015910D01*
X143585000Y-65821151D01*
X144172455Y-65821151D01*
X144178206Y-66553402D01*
X144420836Y-67244311D01*
X144874182Y-67819377D01*
X145489360Y-68216593D01*
X146200036Y-68393126D01*
X146929578Y-68329940D01*
X147599321Y-68033850D01*
X148137046Y-67536783D01*
X148484770Y-66892336D01*
X148605000Y-66170000D01*
X148604725Y-66134973D01*
X148473164Y-65414614D01*
X148115360Y-64775709D01*
X147569894Y-64287149D01*
X146895583Y-64001615D01*
X146165138Y-63949897D01*
X145457323Y-64137571D01*
X144848460Y-64544400D01*
X144404203Y-65126517D01*
X144172455Y-65821151D01*
X143585000Y-65821151D01*
X143585000Y-58130000D01*
X144360908Y-58130000D01*
X144476161Y-58709418D01*
X144804375Y-59200625D01*
X144822619Y-59212816D01*
X144777235Y-59221843D01*
X144567191Y-59362191D01*
X144426843Y-59572235D01*
X144377560Y-59820000D01*
X144377560Y-61520000D01*
X144426843Y-61767765D01*
X144567191Y-61977809D01*
X144777235Y-62118157D01*
X145025000Y-62167440D01*
X146725000Y-62167440D01*
X146972765Y-62118157D01*
X147182809Y-61977809D01*
X147280890Y-61831021D01*
X147343387Y-61893518D01*
X147406711Y-61988289D01*
X147782145Y-62239146D01*
X148225000Y-62327235D01*
X148336783Y-62305000D01*
X157763217Y-62305000D01*
X157875000Y-62327235D01*
X157986783Y-62305000D01*
X158317855Y-62239146D01*
X158693289Y-61988289D01*
X158756613Y-61893518D01*
X160845132Y-59805000D01*
X165776289Y-59805000D01*
X165715224Y-59866065D01*
X165628807Y-59923807D01*
X165571066Y-60010223D01*
X165497569Y-60083720D01*
X165457793Y-60179749D01*
X165400052Y-60266164D01*
X165379776Y-60368098D01*
X165340000Y-60464126D01*
X165340000Y-60568066D01*
X165340001Y-65464124D01*
X165340000Y-65464126D01*
X165340000Y-65875874D01*
X165379778Y-65971906D01*
X165400053Y-66073837D01*
X165457792Y-66160249D01*
X165497569Y-66256280D01*
X165571068Y-66329779D01*
X165628808Y-66416193D01*
X165715222Y-66473933D01*
X165788720Y-66547431D01*
X165884749Y-66587208D01*
X165971164Y-66644948D01*
X166073098Y-66665224D01*
X166169126Y-66705000D01*
X166273066Y-66705000D01*
X166375000Y-66725276D01*
X166476935Y-66705000D01*
X166580874Y-66705000D01*
X166676902Y-66665224D01*
X166778837Y-66644948D01*
X166865253Y-66587207D01*
X166961280Y-66547431D01*
X167034776Y-66473935D01*
X167121193Y-66416193D01*
X167178935Y-66329776D01*
X167252431Y-66256280D01*
X167292207Y-66160253D01*
X167349948Y-66073837D01*
X167370224Y-65971901D01*
X167410000Y-65875874D01*
X167410000Y-65455750D01*
X171490000Y-65455750D01*
X171490000Y-66796309D01*
X171586673Y-67029698D01*
X171765301Y-67208327D01*
X171998690Y-67305000D01*
X173589250Y-67305000D01*
X173748000Y-67146250D01*
X173748000Y-65297000D01*
X174002000Y-65297000D01*
X174002000Y-67146250D01*
X174160750Y-67305000D01*
X175751310Y-67305000D01*
X175984699Y-67208327D01*
X176163327Y-67029698D01*
X176260000Y-66796309D01*
X176260000Y-65821151D01*
X183172455Y-65821151D01*
X183178206Y-66553402D01*
X183420836Y-67244311D01*
X183874182Y-67819377D01*
X184489360Y-68216593D01*
X185200036Y-68393126D01*
X185929578Y-68329940D01*
X186599321Y-68033850D01*
X187137046Y-67536783D01*
X187484770Y-66892336D01*
X187605000Y-66170000D01*
X187604725Y-66134973D01*
X187473164Y-65414614D01*
X187115360Y-64775709D01*
X186569894Y-64287149D01*
X185895583Y-64001615D01*
X185165138Y-63949897D01*
X184457323Y-64137571D01*
X183848460Y-64544400D01*
X183404203Y-65126517D01*
X183172455Y-65821151D01*
X176260000Y-65821151D01*
X176260000Y-65455750D01*
X176101250Y-65297000D01*
X174002000Y-65297000D01*
X173748000Y-65297000D01*
X171648750Y-65297000D01*
X171490000Y-65455750D01*
X167410000Y-65455750D01*
X167410000Y-63543691D01*
X171490000Y-63543691D01*
X171490000Y-64884250D01*
X171648750Y-65043000D01*
X173748000Y-65043000D01*
X173748000Y-63193750D01*
X174002000Y-63193750D01*
X174002000Y-65043000D01*
X176101250Y-65043000D01*
X176260000Y-64884250D01*
X176260000Y-63543691D01*
X176163327Y-63310302D01*
X175984699Y-63131673D01*
X175751310Y-63035000D01*
X174160750Y-63035000D01*
X174002000Y-63193750D01*
X173748000Y-63193750D01*
X173589250Y-63035000D01*
X171998690Y-63035000D01*
X171765301Y-63131673D01*
X171586673Y-63310302D01*
X171490000Y-63543691D01*
X167410000Y-63543691D01*
X167410000Y-60464126D01*
X167370224Y-60368099D01*
X167349948Y-60266163D01*
X167292207Y-60179747D01*
X167252431Y-60083720D01*
X167178935Y-60010224D01*
X167121193Y-59923807D01*
X167034777Y-59866066D01*
X166973711Y-59805000D01*
X171477560Y-59805000D01*
X171477560Y-60920000D01*
X171526843Y-61167765D01*
X171667191Y-61377809D01*
X171877235Y-61518157D01*
X172125000Y-61567440D01*
X175625000Y-61567440D01*
X175872765Y-61518157D01*
X176082809Y-61377809D01*
X176194269Y-61210999D01*
X176177560Y-61295000D01*
X176177560Y-63045000D01*
X176293449Y-63627613D01*
X176623472Y-64121528D01*
X177117387Y-64451551D01*
X177700000Y-64567440D01*
X179450000Y-64567440D01*
X180032613Y-64451551D01*
X180526528Y-64121528D01*
X180856551Y-63627613D01*
X180972440Y-63045000D01*
X180972440Y-61295000D01*
X180856551Y-60712387D01*
X180526528Y-60218472D01*
X180032613Y-59888449D01*
X179450000Y-59772560D01*
X177700000Y-59772560D01*
X177117387Y-59888449D01*
X176623472Y-60218472D01*
X176293449Y-60712387D01*
X176272440Y-60818006D01*
X176272440Y-57506890D01*
X183978524Y-57506890D01*
X184148355Y-57916924D01*
X184538642Y-58345183D01*
X185063108Y-58591486D01*
X185293000Y-58470819D01*
X185293000Y-57277000D01*
X185547000Y-57277000D01*
X185547000Y-58470819D01*
X185776892Y-58591486D01*
X186301358Y-58345183D01*
X186691645Y-57916924D01*
X186861476Y-57506890D01*
X186740155Y-57277000D01*
X185547000Y-57277000D01*
X185293000Y-57277000D01*
X184099845Y-57277000D01*
X183978524Y-57506890D01*
X176272440Y-57506890D01*
X176272440Y-57420000D01*
X176223157Y-57172235D01*
X176082809Y-56962191D01*
X175872765Y-56821843D01*
X175625000Y-56772560D01*
X172125000Y-56772560D01*
X171877235Y-56821843D01*
X171667191Y-56962191D01*
X171526843Y-57172235D01*
X171477560Y-57420000D01*
X171477560Y-57535000D01*
X160486783Y-57535000D01*
X160375000Y-57512765D01*
X159932145Y-57600854D01*
X159556711Y-57851711D01*
X159493389Y-57946479D01*
X157404869Y-60035000D01*
X148695131Y-60035000D01*
X148606613Y-59946482D01*
X148543289Y-59851711D01*
X148167855Y-59600854D01*
X147836783Y-59535000D01*
X147725000Y-59512765D01*
X147613217Y-59535000D01*
X147298277Y-59535000D01*
X147182809Y-59362191D01*
X146972765Y-59221843D01*
X146927381Y-59212816D01*
X146945625Y-59200625D01*
X147273839Y-58709418D01*
X147389092Y-58130000D01*
X147273839Y-57550582D01*
X146945625Y-57059375D01*
X146454418Y-56731161D01*
X146021256Y-56645000D01*
X145728744Y-56645000D01*
X145295582Y-56731161D01*
X144804375Y-57059375D01*
X144476161Y-57550582D01*
X144360908Y-58130000D01*
X143585000Y-58130000D01*
X143585000Y-54320000D01*
X165877560Y-54320000D01*
X165877560Y-56020000D01*
X165926843Y-56267765D01*
X166067191Y-56477809D01*
X166277235Y-56618157D01*
X166525000Y-56667440D01*
X168225000Y-56667440D01*
X168472765Y-56618157D01*
X168682809Y-56477809D01*
X168823157Y-56267765D01*
X168872440Y-56020000D01*
X168872440Y-54994849D01*
X168971028Y-54896261D01*
X169049097Y-54844097D01*
X169255750Y-54534819D01*
X169298480Y-54320000D01*
X169377560Y-54320000D01*
X169377560Y-56020000D01*
X169426843Y-56267765D01*
X169567191Y-56477809D01*
X169777235Y-56618157D01*
X170025000Y-56667440D01*
X171725000Y-56667440D01*
X171972765Y-56618157D01*
X172182809Y-56477809D01*
X172323157Y-56267765D01*
X172372440Y-56020000D01*
X172372440Y-54320000D01*
X172877560Y-54320000D01*
X172877560Y-56020000D01*
X172926843Y-56267765D01*
X173067191Y-56477809D01*
X173277235Y-56618157D01*
X173525000Y-56667440D01*
X175225000Y-56667440D01*
X175472765Y-56618157D01*
X175682809Y-56477809D01*
X175823157Y-56267765D01*
X175872440Y-56020000D01*
X175872440Y-54320000D01*
X176377560Y-54320000D01*
X176377560Y-56020000D01*
X176426843Y-56267765D01*
X176567191Y-56477809D01*
X176777235Y-56618157D01*
X177025000Y-56667440D01*
X178725000Y-56667440D01*
X178972765Y-56618157D01*
X179182809Y-56477809D01*
X179323157Y-56267765D01*
X179372440Y-56020000D01*
X179372440Y-54320000D01*
X179323157Y-54072235D01*
X179182809Y-53862191D01*
X179029871Y-53760000D01*
X183922560Y-53760000D01*
X183922560Y-55460000D01*
X183971843Y-55707765D01*
X184112191Y-55917809D01*
X184322235Y-56058157D01*
X184425708Y-56078739D01*
X184148355Y-56383076D01*
X183978524Y-56793110D01*
X184099845Y-57023000D01*
X185293000Y-57023000D01*
X185293000Y-57003000D01*
X185547000Y-57003000D01*
X185547000Y-57023000D01*
X186740155Y-57023000D01*
X186861476Y-56793110D01*
X186691645Y-56383076D01*
X186414292Y-56078739D01*
X186517765Y-56058157D01*
X186727809Y-55917809D01*
X186868157Y-55707765D01*
X186917440Y-55460000D01*
X186917440Y-53760000D01*
X186868157Y-53512235D01*
X186727809Y-53302191D01*
X186517765Y-53161843D01*
X186270000Y-53112560D01*
X184570000Y-53112560D01*
X184322235Y-53161843D01*
X184112191Y-53302191D01*
X183971843Y-53512235D01*
X183922560Y-53760000D01*
X179029871Y-53760000D01*
X178972765Y-53721843D01*
X178810000Y-53689467D01*
X178810000Y-49180750D01*
X184390000Y-49180750D01*
X184390000Y-49871310D01*
X184486673Y-50104699D01*
X184665302Y-50283327D01*
X184898691Y-50380000D01*
X185589250Y-50380000D01*
X185748000Y-50221250D01*
X185748000Y-49022000D01*
X186002000Y-49022000D01*
X186002000Y-50221250D01*
X186160750Y-50380000D01*
X186851309Y-50380000D01*
X187084698Y-50283327D01*
X187263327Y-50104699D01*
X187360000Y-49871310D01*
X187360000Y-49180750D01*
X187201250Y-49022000D01*
X186002000Y-49022000D01*
X185748000Y-49022000D01*
X184548750Y-49022000D01*
X184390000Y-49180750D01*
X178810000Y-49180750D01*
X178810000Y-47610093D01*
X178961280Y-47547431D01*
X179252431Y-47256280D01*
X179410000Y-46875874D01*
X179410000Y-46464126D01*
X179252431Y-46083720D01*
X178961280Y-45792569D01*
X178580874Y-45635000D01*
X178169126Y-45635000D01*
X177788720Y-45792569D01*
X177497569Y-46083720D01*
X177397569Y-46325142D01*
X177278972Y-46443739D01*
X177200903Y-46495903D01*
X177021099Y-46765000D01*
X176994250Y-46805182D01*
X176921683Y-47170000D01*
X176940000Y-47262086D01*
X176940001Y-53689467D01*
X176777235Y-53721843D01*
X176567191Y-53862191D01*
X176426843Y-54072235D01*
X176377560Y-54320000D01*
X175872440Y-54320000D01*
X175823157Y-54072235D01*
X175682809Y-53862191D01*
X175472765Y-53721843D01*
X175310000Y-53689467D01*
X175310000Y-47557289D01*
X177219859Y-45647430D01*
X177461280Y-45547431D01*
X177752431Y-45256280D01*
X177910000Y-44875874D01*
X177910000Y-44464126D01*
X177752431Y-44083720D01*
X177461280Y-43792569D01*
X177080874Y-43635000D01*
X176669126Y-43635000D01*
X176288720Y-43792569D01*
X175997569Y-44083720D01*
X175897570Y-44325141D01*
X173778970Y-46443741D01*
X173700904Y-46495903D01*
X173648742Y-46573969D01*
X173648741Y-46573970D01*
X173494250Y-46805182D01*
X173421683Y-47170000D01*
X173440001Y-47262090D01*
X173440000Y-53689467D01*
X173277235Y-53721843D01*
X173067191Y-53862191D01*
X172926843Y-54072235D01*
X172877560Y-54320000D01*
X172372440Y-54320000D01*
X172323157Y-54072235D01*
X172182809Y-53862191D01*
X171972765Y-53721843D01*
X171810000Y-53689467D01*
X171810000Y-49110093D01*
X171961280Y-49047431D01*
X172252431Y-48756280D01*
X172410000Y-48375874D01*
X172410000Y-47964126D01*
X172252431Y-47583720D01*
X171961280Y-47292569D01*
X171580874Y-47135000D01*
X171169126Y-47135000D01*
X170788720Y-47292569D01*
X170497569Y-47583720D01*
X170397569Y-47825142D01*
X170278970Y-47943741D01*
X170200904Y-47995903D01*
X170148742Y-48073969D01*
X170148741Y-48073970D01*
X169994250Y-48305182D01*
X169921683Y-48670000D01*
X169940001Y-48762090D01*
X169940000Y-53689467D01*
X169777235Y-53721843D01*
X169567191Y-53862191D01*
X169426843Y-54072235D01*
X169377560Y-54320000D01*
X169298480Y-54320000D01*
X169310000Y-54262086D01*
X169328317Y-54170000D01*
X169310000Y-54077914D01*
X169310000Y-45617296D01*
X169410000Y-45375874D01*
X169410000Y-44964126D01*
X169252431Y-44583720D01*
X168961280Y-44292569D01*
X168580874Y-44135000D01*
X168169126Y-44135000D01*
X167788720Y-44292569D01*
X167497569Y-44583720D01*
X167340000Y-44964126D01*
X167340000Y-45375874D01*
X167440000Y-45617296D01*
X167440001Y-53672560D01*
X166525000Y-53672560D01*
X166277235Y-53721843D01*
X166067191Y-53862191D01*
X165926843Y-54072235D01*
X165877560Y-54320000D01*
X143585000Y-54320000D01*
X143585000Y-45710000D01*
X144860908Y-45710000D01*
X144976161Y-46289418D01*
X145304375Y-46780625D01*
X145602761Y-46980000D01*
X145304375Y-47179375D01*
X144976161Y-47670582D01*
X144860908Y-48250000D01*
X144976161Y-48829418D01*
X145304375Y-49320625D01*
X145602761Y-49520000D01*
X145304375Y-49719375D01*
X144976161Y-50210582D01*
X144860908Y-50790000D01*
X144976161Y-51369418D01*
X145304375Y-51860625D01*
X145795582Y-52188839D01*
X146228744Y-52275000D01*
X146521256Y-52275000D01*
X146954418Y-52188839D01*
X147445625Y-51860625D01*
X147773839Y-51369418D01*
X147889092Y-50790000D01*
X147773839Y-50210582D01*
X147445625Y-49719375D01*
X147147239Y-49520000D01*
X147445625Y-49320625D01*
X147773839Y-48829418D01*
X147889092Y-48250000D01*
X147773839Y-47670582D01*
X147445625Y-47179375D01*
X147147239Y-46980000D01*
X147445625Y-46780625D01*
X147773839Y-46289418D01*
X147889092Y-45710000D01*
X147773839Y-45130582D01*
X147445625Y-44639375D01*
X147427381Y-44627184D01*
X147472765Y-44618157D01*
X147682809Y-44477809D01*
X147823157Y-44267765D01*
X147872440Y-44020000D01*
X147872440Y-42464126D01*
X170340000Y-42464126D01*
X170340000Y-42875874D01*
X170497569Y-43256280D01*
X170788720Y-43547431D01*
X171169126Y-43705000D01*
X171580874Y-43705000D01*
X171822296Y-43605000D01*
X182927704Y-43605000D01*
X183169126Y-43705000D01*
X183580874Y-43705000D01*
X183961280Y-43547431D01*
X184252431Y-43256280D01*
X184410000Y-42875874D01*
X184410000Y-42464126D01*
X184252431Y-42083720D01*
X183961280Y-41792569D01*
X183580874Y-41635000D01*
X183169126Y-41635000D01*
X182927704Y-41735000D01*
X171822296Y-41735000D01*
X171580874Y-41635000D01*
X171169126Y-41635000D01*
X170788720Y-41792569D01*
X170497569Y-42083720D01*
X170340000Y-42464126D01*
X147872440Y-42464126D01*
X147872440Y-42320000D01*
X147823157Y-42072235D01*
X147682809Y-41862191D01*
X147472765Y-41721843D01*
X147225000Y-41672560D01*
X145525000Y-41672560D01*
X145277235Y-41721843D01*
X145067191Y-41862191D01*
X144926843Y-42072235D01*
X144877560Y-42320000D01*
X144877560Y-44020000D01*
X144926843Y-44267765D01*
X145067191Y-44477809D01*
X145277235Y-44618157D01*
X145322619Y-44627184D01*
X145304375Y-44639375D01*
X144976161Y-45130582D01*
X144860908Y-45710000D01*
X143585000Y-45710000D01*
X143585000Y-36195000D01*
X184360908Y-36195000D01*
X184476161Y-36774418D01*
X184804375Y-37265625D01*
X185102761Y-37465000D01*
X184804375Y-37664375D01*
X184476161Y-38155582D01*
X184360908Y-38735000D01*
X184476161Y-39314418D01*
X184804375Y-39805625D01*
X185102761Y-40005000D01*
X184804375Y-40204375D01*
X184476161Y-40695582D01*
X184360908Y-41275000D01*
X184476161Y-41854418D01*
X184804375Y-42345625D01*
X185102761Y-42545000D01*
X184804375Y-42744375D01*
X184476161Y-43235582D01*
X184360908Y-43815000D01*
X184476161Y-44394418D01*
X184804375Y-44885625D01*
X185102761Y-45085000D01*
X184804375Y-45284375D01*
X184476161Y-45775582D01*
X184360908Y-46355000D01*
X184476161Y-46934418D01*
X184804375Y-47425625D01*
X184826033Y-47440096D01*
X184665302Y-47506673D01*
X184486673Y-47685301D01*
X184390000Y-47918690D01*
X184390000Y-48609250D01*
X184548750Y-48768000D01*
X185748000Y-48768000D01*
X185748000Y-48748000D01*
X186002000Y-48748000D01*
X186002000Y-48768000D01*
X187201250Y-48768000D01*
X187360000Y-48609250D01*
X187360000Y-47918690D01*
X187263327Y-47685301D01*
X187084698Y-47506673D01*
X186923967Y-47440096D01*
X186945625Y-47425625D01*
X187273839Y-46934418D01*
X187389092Y-46355000D01*
X187273839Y-45775582D01*
X186945625Y-45284375D01*
X186647239Y-45085000D01*
X186945625Y-44885625D01*
X187273839Y-44394418D01*
X187389092Y-43815000D01*
X187273839Y-43235582D01*
X186945625Y-42744375D01*
X186647239Y-42545000D01*
X186945625Y-42345625D01*
X187273839Y-41854418D01*
X187389092Y-41275000D01*
X187273839Y-40695582D01*
X186945625Y-40204375D01*
X186647239Y-40005000D01*
X186945625Y-39805625D01*
X187273839Y-39314418D01*
X187389092Y-38735000D01*
X187273839Y-38155582D01*
X186945625Y-37664375D01*
X186647239Y-37465000D01*
X186945625Y-37265625D01*
X187273839Y-36774418D01*
X187389092Y-36195000D01*
X187273839Y-35615582D01*
X186945625Y-35124375D01*
X186454418Y-34796161D01*
X186021256Y-34710000D01*
X185728744Y-34710000D01*
X185295582Y-34796161D01*
X184804375Y-35124375D01*
X184476161Y-35615582D01*
X184360908Y-36195000D01*
X143585000Y-36195000D01*
X143585000Y-29821151D01*
X144172455Y-29821151D01*
X144178206Y-30553402D01*
X144420836Y-31244311D01*
X144874182Y-31819377D01*
X145489360Y-32216593D01*
X146200036Y-32393126D01*
X146929578Y-32329940D01*
X147599321Y-32033850D01*
X148137046Y-31536783D01*
X148484770Y-30892336D01*
X148605000Y-30170000D01*
X148604725Y-30134973D01*
X148473164Y-29414614D01*
X148115360Y-28775709D01*
X147569894Y-28287149D01*
X146895583Y-28001615D01*
X146165138Y-27949897D01*
X145457323Y-28137571D01*
X144848460Y-28544400D01*
X144404203Y-29126517D01*
X144172455Y-29821151D01*
X143585000Y-29821151D01*
X143585000Y-29504090D01*
X145709091Y-27380000D01*
X164248000Y-27380000D01*
X164248000Y-34670000D01*
G04 #@! TD*
M02*
