G04 #@! TF.GenerationSoftware,KiCad,Pcbnew,(5.0.2)-1*
G04 #@! TF.CreationDate,2020-08-19T16:16:04+02:00*
G04 #@! TF.ProjectId,RGB-LED-controller,5247422d-4c45-4442-9d63-6f6e74726f6c,rev?*
G04 #@! TF.SameCoordinates,Original*
G04 #@! TF.FileFunction,Copper,L1,Top*
G04 #@! TF.FilePolarity,Positive*
%FSLAX46Y46*%
G04 Gerber Fmt 4.6, Leading zero omitted, Abs format (unit mm)*
G04 Created by KiCad (PCBNEW (5.0.2)-1) date 19/08/2020 16:16:04*
%MOMM*%
%LPD*%
G01*
G04 APERTURE LIST*
G04 #@! TA.AperFunction,Conductor*
%ADD10C,0.100000*%
G04 #@! TD*
G04 #@! TA.AperFunction,SMDPad,CuDef*
%ADD11C,1.425000*%
G04 #@! TD*
G04 #@! TA.AperFunction,SMDPad,CuDef*
%ADD12C,2.500000*%
G04 #@! TD*
G04 #@! TA.AperFunction,ComponentPad*
%ADD13R,3.500000X3.500000*%
G04 #@! TD*
G04 #@! TA.AperFunction,ComponentPad*
%ADD14C,3.000000*%
G04 #@! TD*
G04 #@! TA.AperFunction,ComponentPad*
%ADD15C,3.500000*%
G04 #@! TD*
G04 #@! TA.AperFunction,ComponentPad*
%ADD16R,1.700000X1.700000*%
G04 #@! TD*
G04 #@! TA.AperFunction,ComponentPad*
%ADD17O,1.700000X1.700000*%
G04 #@! TD*
G04 #@! TA.AperFunction,SMDPad,CuDef*
%ADD18R,2.500000X1.000000*%
G04 #@! TD*
G04 #@! TA.AperFunction,SMDPad,CuDef*
%ADD19R,1.000000X1.800000*%
G04 #@! TD*
G04 #@! TA.AperFunction,SMDPad,CuDef*
%ADD20R,2.200000X1.200000*%
G04 #@! TD*
G04 #@! TA.AperFunction,SMDPad,CuDef*
%ADD21R,6.400000X5.800000*%
G04 #@! TD*
G04 #@! TA.AperFunction,SMDPad,CuDef*
%ADD22C,0.590000*%
G04 #@! TD*
G04 #@! TA.AperFunction,SMDPad,CuDef*
%ADD23C,0.950000*%
G04 #@! TD*
G04 #@! TA.AperFunction,SMDPad,CuDef*
%ADD24R,2.440000X1.120000*%
G04 #@! TD*
G04 #@! TA.AperFunction,SMDPad,CuDef*
%ADD25R,2.000000X3.800000*%
G04 #@! TD*
G04 #@! TA.AperFunction,SMDPad,CuDef*
%ADD26R,2.000000X1.500000*%
G04 #@! TD*
G04 #@! TA.AperFunction,ViaPad*
%ADD27C,0.800000*%
G04 #@! TD*
G04 #@! TA.AperFunction,Conductor*
%ADD28C,1.000000*%
G04 #@! TD*
G04 #@! TA.AperFunction,Conductor*
%ADD29C,0.800000*%
G04 #@! TD*
G04 #@! TA.AperFunction,Conductor*
%ADD30C,0.400000*%
G04 #@! TD*
G04 #@! TA.AperFunction,Conductor*
%ADD31C,0.600000*%
G04 #@! TD*
G04 #@! TA.AperFunction,Conductor*
%ADD32C,0.254000*%
G04 #@! TD*
G04 APERTURE END LIST*
D10*
G04 #@! TO.N,+12V*
G04 #@! TO.C,C1*
G36*
X152252004Y-58181204D02*
X152276273Y-58184804D01*
X152300071Y-58190765D01*
X152323171Y-58199030D01*
X152345349Y-58209520D01*
X152366393Y-58222133D01*
X152386098Y-58236747D01*
X152404277Y-58253223D01*
X152420753Y-58271402D01*
X152435367Y-58291107D01*
X152447980Y-58312151D01*
X152458470Y-58334329D01*
X152466735Y-58357429D01*
X152472696Y-58381227D01*
X152476296Y-58405496D01*
X152477500Y-58430000D01*
X152477500Y-59680000D01*
X152476296Y-59704504D01*
X152472696Y-59728773D01*
X152466735Y-59752571D01*
X152458470Y-59775671D01*
X152447980Y-59797849D01*
X152435367Y-59818893D01*
X152420753Y-59838598D01*
X152404277Y-59856777D01*
X152386098Y-59873253D01*
X152366393Y-59887867D01*
X152345349Y-59900480D01*
X152323171Y-59910970D01*
X152300071Y-59919235D01*
X152276273Y-59925196D01*
X152252004Y-59928796D01*
X152227500Y-59930000D01*
X151302500Y-59930000D01*
X151277996Y-59928796D01*
X151253727Y-59925196D01*
X151229929Y-59919235D01*
X151206829Y-59910970D01*
X151184651Y-59900480D01*
X151163607Y-59887867D01*
X151143902Y-59873253D01*
X151125723Y-59856777D01*
X151109247Y-59838598D01*
X151094633Y-59818893D01*
X151082020Y-59797849D01*
X151071530Y-59775671D01*
X151063265Y-59752571D01*
X151057304Y-59728773D01*
X151053704Y-59704504D01*
X151052500Y-59680000D01*
X151052500Y-58430000D01*
X151053704Y-58405496D01*
X151057304Y-58381227D01*
X151063265Y-58357429D01*
X151071530Y-58334329D01*
X151082020Y-58312151D01*
X151094633Y-58291107D01*
X151109247Y-58271402D01*
X151125723Y-58253223D01*
X151143902Y-58236747D01*
X151163607Y-58222133D01*
X151184651Y-58209520D01*
X151206829Y-58199030D01*
X151229929Y-58190765D01*
X151253727Y-58184804D01*
X151277996Y-58181204D01*
X151302500Y-58180000D01*
X152227500Y-58180000D01*
X152252004Y-58181204D01*
X152252004Y-58181204D01*
G37*
D11*
G04 #@! TD*
G04 #@! TO.P,C1,1*
G04 #@! TO.N,+12V*
X151765000Y-59055000D03*
D10*
G04 #@! TO.N,GND*
G04 #@! TO.C,C1*
G36*
X155227004Y-58181204D02*
X155251273Y-58184804D01*
X155275071Y-58190765D01*
X155298171Y-58199030D01*
X155320349Y-58209520D01*
X155341393Y-58222133D01*
X155361098Y-58236747D01*
X155379277Y-58253223D01*
X155395753Y-58271402D01*
X155410367Y-58291107D01*
X155422980Y-58312151D01*
X155433470Y-58334329D01*
X155441735Y-58357429D01*
X155447696Y-58381227D01*
X155451296Y-58405496D01*
X155452500Y-58430000D01*
X155452500Y-59680000D01*
X155451296Y-59704504D01*
X155447696Y-59728773D01*
X155441735Y-59752571D01*
X155433470Y-59775671D01*
X155422980Y-59797849D01*
X155410367Y-59818893D01*
X155395753Y-59838598D01*
X155379277Y-59856777D01*
X155361098Y-59873253D01*
X155341393Y-59887867D01*
X155320349Y-59900480D01*
X155298171Y-59910970D01*
X155275071Y-59919235D01*
X155251273Y-59925196D01*
X155227004Y-59928796D01*
X155202500Y-59930000D01*
X154277500Y-59930000D01*
X154252996Y-59928796D01*
X154228727Y-59925196D01*
X154204929Y-59919235D01*
X154181829Y-59910970D01*
X154159651Y-59900480D01*
X154138607Y-59887867D01*
X154118902Y-59873253D01*
X154100723Y-59856777D01*
X154084247Y-59838598D01*
X154069633Y-59818893D01*
X154057020Y-59797849D01*
X154046530Y-59775671D01*
X154038265Y-59752571D01*
X154032304Y-59728773D01*
X154028704Y-59704504D01*
X154027500Y-59680000D01*
X154027500Y-58430000D01*
X154028704Y-58405496D01*
X154032304Y-58381227D01*
X154038265Y-58357429D01*
X154046530Y-58334329D01*
X154057020Y-58312151D01*
X154069633Y-58291107D01*
X154084247Y-58271402D01*
X154100723Y-58253223D01*
X154118902Y-58236747D01*
X154138607Y-58222133D01*
X154159651Y-58209520D01*
X154181829Y-58199030D01*
X154204929Y-58190765D01*
X154228727Y-58184804D01*
X154252996Y-58181204D01*
X154277500Y-58180000D01*
X155202500Y-58180000D01*
X155227004Y-58181204D01*
X155227004Y-58181204D01*
G37*
D11*
G04 #@! TD*
G04 #@! TO.P,C1,2*
G04 #@! TO.N,GND*
X154740000Y-59055000D03*
D10*
G04 #@! TO.N,FTDI_VCC*
G04 #@! TO.C,C2*
G36*
X164219504Y-65561204D02*
X164243773Y-65564804D01*
X164267571Y-65570765D01*
X164290671Y-65579030D01*
X164312849Y-65589520D01*
X164333893Y-65602133D01*
X164353598Y-65616747D01*
X164371777Y-65633223D01*
X164388253Y-65651402D01*
X164402867Y-65671107D01*
X164415480Y-65692151D01*
X164425970Y-65714329D01*
X164434235Y-65737429D01*
X164440196Y-65761227D01*
X164443796Y-65785496D01*
X164445000Y-65810000D01*
X164445000Y-68810000D01*
X164443796Y-68834504D01*
X164440196Y-68858773D01*
X164434235Y-68882571D01*
X164425970Y-68905671D01*
X164415480Y-68927849D01*
X164402867Y-68948893D01*
X164388253Y-68968598D01*
X164371777Y-68986777D01*
X164353598Y-69003253D01*
X164333893Y-69017867D01*
X164312849Y-69030480D01*
X164290671Y-69040970D01*
X164267571Y-69049235D01*
X164243773Y-69055196D01*
X164219504Y-69058796D01*
X164195000Y-69060000D01*
X162195000Y-69060000D01*
X162170496Y-69058796D01*
X162146227Y-69055196D01*
X162122429Y-69049235D01*
X162099329Y-69040970D01*
X162077151Y-69030480D01*
X162056107Y-69017867D01*
X162036402Y-69003253D01*
X162018223Y-68986777D01*
X162001747Y-68968598D01*
X161987133Y-68948893D01*
X161974520Y-68927849D01*
X161964030Y-68905671D01*
X161955765Y-68882571D01*
X161949804Y-68858773D01*
X161946204Y-68834504D01*
X161945000Y-68810000D01*
X161945000Y-65810000D01*
X161946204Y-65785496D01*
X161949804Y-65761227D01*
X161955765Y-65737429D01*
X161964030Y-65714329D01*
X161974520Y-65692151D01*
X161987133Y-65671107D01*
X162001747Y-65651402D01*
X162018223Y-65633223D01*
X162036402Y-65616747D01*
X162056107Y-65602133D01*
X162077151Y-65589520D01*
X162099329Y-65579030D01*
X162122429Y-65570765D01*
X162146227Y-65564804D01*
X162170496Y-65561204D01*
X162195000Y-65560000D01*
X164195000Y-65560000D01*
X164219504Y-65561204D01*
X164219504Y-65561204D01*
G37*
D12*
G04 #@! TD*
G04 #@! TO.P,C2,1*
G04 #@! TO.N,FTDI_VCC*
X163195000Y-67310000D03*
D10*
G04 #@! TO.N,GND*
G04 #@! TO.C,C2*
G36*
X164219504Y-59061204D02*
X164243773Y-59064804D01*
X164267571Y-59070765D01*
X164290671Y-59079030D01*
X164312849Y-59089520D01*
X164333893Y-59102133D01*
X164353598Y-59116747D01*
X164371777Y-59133223D01*
X164388253Y-59151402D01*
X164402867Y-59171107D01*
X164415480Y-59192151D01*
X164425970Y-59214329D01*
X164434235Y-59237429D01*
X164440196Y-59261227D01*
X164443796Y-59285496D01*
X164445000Y-59310000D01*
X164445000Y-62310000D01*
X164443796Y-62334504D01*
X164440196Y-62358773D01*
X164434235Y-62382571D01*
X164425970Y-62405671D01*
X164415480Y-62427849D01*
X164402867Y-62448893D01*
X164388253Y-62468598D01*
X164371777Y-62486777D01*
X164353598Y-62503253D01*
X164333893Y-62517867D01*
X164312849Y-62530480D01*
X164290671Y-62540970D01*
X164267571Y-62549235D01*
X164243773Y-62555196D01*
X164219504Y-62558796D01*
X164195000Y-62560000D01*
X162195000Y-62560000D01*
X162170496Y-62558796D01*
X162146227Y-62555196D01*
X162122429Y-62549235D01*
X162099329Y-62540970D01*
X162077151Y-62530480D01*
X162056107Y-62517867D01*
X162036402Y-62503253D01*
X162018223Y-62486777D01*
X162001747Y-62468598D01*
X161987133Y-62448893D01*
X161974520Y-62427849D01*
X161964030Y-62405671D01*
X161955765Y-62382571D01*
X161949804Y-62358773D01*
X161946204Y-62334504D01*
X161945000Y-62310000D01*
X161945000Y-59310000D01*
X161946204Y-59285496D01*
X161949804Y-59261227D01*
X161955765Y-59237429D01*
X161964030Y-59214329D01*
X161974520Y-59192151D01*
X161987133Y-59171107D01*
X162001747Y-59151402D01*
X162018223Y-59133223D01*
X162036402Y-59116747D01*
X162056107Y-59102133D01*
X162077151Y-59089520D01*
X162099329Y-59079030D01*
X162122429Y-59070765D01*
X162146227Y-59064804D01*
X162170496Y-59061204D01*
X162195000Y-59060000D01*
X164195000Y-59060000D01*
X164219504Y-59061204D01*
X164219504Y-59061204D01*
G37*
D12*
G04 #@! TD*
G04 #@! TO.P,C2,2*
G04 #@! TO.N,GND*
X163195000Y-60810000D03*
D13*
G04 #@! TO.P,J1,1*
G04 #@! TO.N,Net-(J1-Pad1)*
X173875000Y-59170000D03*
D10*
G04 #@! TD*
G04 #@! TO.N,GND*
G04 #@! TO.C,J1*
G36*
X174948513Y-63673611D02*
X175021318Y-63684411D01*
X175092714Y-63702295D01*
X175162013Y-63727090D01*
X175228548Y-63758559D01*
X175291678Y-63796398D01*
X175350795Y-63840242D01*
X175405330Y-63889670D01*
X175454758Y-63944205D01*
X175498602Y-64003322D01*
X175536441Y-64066452D01*
X175567910Y-64132987D01*
X175592705Y-64202286D01*
X175610589Y-64273682D01*
X175621389Y-64346487D01*
X175625000Y-64420000D01*
X175625000Y-65920000D01*
X175621389Y-65993513D01*
X175610589Y-66066318D01*
X175592705Y-66137714D01*
X175567910Y-66207013D01*
X175536441Y-66273548D01*
X175498602Y-66336678D01*
X175454758Y-66395795D01*
X175405330Y-66450330D01*
X175350795Y-66499758D01*
X175291678Y-66543602D01*
X175228548Y-66581441D01*
X175162013Y-66612910D01*
X175092714Y-66637705D01*
X175021318Y-66655589D01*
X174948513Y-66666389D01*
X174875000Y-66670000D01*
X172875000Y-66670000D01*
X172801487Y-66666389D01*
X172728682Y-66655589D01*
X172657286Y-66637705D01*
X172587987Y-66612910D01*
X172521452Y-66581441D01*
X172458322Y-66543602D01*
X172399205Y-66499758D01*
X172344670Y-66450330D01*
X172295242Y-66395795D01*
X172251398Y-66336678D01*
X172213559Y-66273548D01*
X172182090Y-66207013D01*
X172157295Y-66137714D01*
X172139411Y-66066318D01*
X172128611Y-65993513D01*
X172125000Y-65920000D01*
X172125000Y-64420000D01*
X172128611Y-64346487D01*
X172139411Y-64273682D01*
X172157295Y-64202286D01*
X172182090Y-64132987D01*
X172213559Y-64066452D01*
X172251398Y-64003322D01*
X172295242Y-63944205D01*
X172344670Y-63889670D01*
X172399205Y-63840242D01*
X172458322Y-63796398D01*
X172521452Y-63758559D01*
X172587987Y-63727090D01*
X172657286Y-63702295D01*
X172728682Y-63684411D01*
X172801487Y-63673611D01*
X172875000Y-63670000D01*
X174875000Y-63670000D01*
X174948513Y-63673611D01*
X174948513Y-63673611D01*
G37*
D14*
G04 #@! TO.P,J1,2*
G04 #@! TO.N,GND*
X173875000Y-65170000D03*
D10*
G04 #@! TD*
G04 #@! TO.N,N/C*
G04 #@! TO.C,J1*
G36*
X179535765Y-60424213D02*
X179620704Y-60436813D01*
X179703999Y-60457677D01*
X179784848Y-60486605D01*
X179862472Y-60523319D01*
X179936124Y-60567464D01*
X180005094Y-60618616D01*
X180068718Y-60676282D01*
X180126384Y-60739906D01*
X180177536Y-60808876D01*
X180221681Y-60882528D01*
X180258395Y-60960152D01*
X180287323Y-61041001D01*
X180308187Y-61124296D01*
X180320787Y-61209235D01*
X180325000Y-61295000D01*
X180325000Y-63045000D01*
X180320787Y-63130765D01*
X180308187Y-63215704D01*
X180287323Y-63298999D01*
X180258395Y-63379848D01*
X180221681Y-63457472D01*
X180177536Y-63531124D01*
X180126384Y-63600094D01*
X180068718Y-63663718D01*
X180005094Y-63721384D01*
X179936124Y-63772536D01*
X179862472Y-63816681D01*
X179784848Y-63853395D01*
X179703999Y-63882323D01*
X179620704Y-63903187D01*
X179535765Y-63915787D01*
X179450000Y-63920000D01*
X177700000Y-63920000D01*
X177614235Y-63915787D01*
X177529296Y-63903187D01*
X177446001Y-63882323D01*
X177365152Y-63853395D01*
X177287528Y-63816681D01*
X177213876Y-63772536D01*
X177144906Y-63721384D01*
X177081282Y-63663718D01*
X177023616Y-63600094D01*
X176972464Y-63531124D01*
X176928319Y-63457472D01*
X176891605Y-63379848D01*
X176862677Y-63298999D01*
X176841813Y-63215704D01*
X176829213Y-63130765D01*
X176825000Y-63045000D01*
X176825000Y-61295000D01*
X176829213Y-61209235D01*
X176841813Y-61124296D01*
X176862677Y-61041001D01*
X176891605Y-60960152D01*
X176928319Y-60882528D01*
X176972464Y-60808876D01*
X177023616Y-60739906D01*
X177081282Y-60676282D01*
X177144906Y-60618616D01*
X177213876Y-60567464D01*
X177287528Y-60523319D01*
X177365152Y-60486605D01*
X177446001Y-60457677D01*
X177529296Y-60436813D01*
X177614235Y-60424213D01*
X177700000Y-60420000D01*
X179450000Y-60420000D01*
X179535765Y-60424213D01*
X179535765Y-60424213D01*
G37*
D15*
G04 #@! TO.P,J1,3*
G04 #@! TO.N,N/C*
X178575000Y-62170000D03*
G04 #@! TD*
D16*
G04 #@! TO.P,J2,1*
G04 #@! TO.N,GND*
X185875000Y-48895000D03*
D17*
G04 #@! TO.P,J2,2*
G04 #@! TO.N,Net-(J2-Pad2)*
X185875000Y-46355000D03*
G04 #@! TO.P,J2,3*
G04 #@! TO.N,FTDI_VCC*
X185875000Y-43815000D03*
G04 #@! TO.P,J2,4*
G04 #@! TO.N,Net-(J2-Pad4)*
X185875000Y-41275000D03*
G04 #@! TO.P,J2,5*
G04 #@! TO.N,Net-(J2-Pad5)*
X185875000Y-38735000D03*
G04 #@! TO.P,J2,6*
G04 #@! TO.N,Net-(J2-Pad6)*
X185875000Y-36195000D03*
G04 #@! TD*
D16*
G04 #@! TO.P,J3,1*
G04 #@! TO.N,+12V*
X146375000Y-43170000D03*
D17*
G04 #@! TO.P,J3,2*
G04 #@! TO.N,/R*
X146375000Y-45710000D03*
G04 #@! TO.P,J3,3*
G04 #@! TO.N,/G*
X146375000Y-48250000D03*
G04 #@! TO.P,J3,4*
G04 #@! TO.N,/B*
X146375000Y-50790000D03*
G04 #@! TD*
D16*
G04 #@! TO.P,JP1,1*
G04 #@! TO.N,Net-(JP1-Pad1)*
X185420000Y-54610000D03*
D17*
G04 #@! TO.P,JP1,2*
G04 #@! TO.N,GND*
X185420000Y-57150000D03*
G04 #@! TD*
D18*
G04 #@! TO.P,M1,1*
G04 #@! TO.N,Net-(M1-Pad1)*
X165755000Y-35870000D03*
G04 #@! TO.P,M1,2*
G04 #@! TO.N,Net-(M1-Pad2)*
X165755000Y-37870000D03*
G04 #@! TO.P,M1,3*
G04 #@! TO.N,FTDI_VCC*
X165755000Y-39870000D03*
G04 #@! TO.P,M1,4*
G04 #@! TO.N,GATE_R*
X165755000Y-41870000D03*
G04 #@! TO.P,M1,5*
G04 #@! TO.N,GATE_G*
X165755000Y-43870000D03*
G04 #@! TO.P,M1,6*
G04 #@! TO.N,GATE_B*
X165755000Y-45870000D03*
G04 #@! TO.P,M1,7*
G04 #@! TO.N,Net-(J4-Pad1)*
X165755000Y-47870000D03*
G04 #@! TO.P,M1,8*
G04 #@! TO.N,FTDI_VCC*
X165755000Y-49870000D03*
D19*
G04 #@! TO.P,M1,9*
G04 #@! TO.N,Net-(M1-Pad9)*
X168355000Y-51370000D03*
G04 #@! TO.P,M1,10*
G04 #@! TO.N,Net-(M1-Pad10)*
X170355000Y-51370000D03*
G04 #@! TO.P,M1,11*
G04 #@! TO.N,Net-(M1-Pad11)*
X172355000Y-51370000D03*
G04 #@! TO.P,M1,12*
G04 #@! TO.N,Net-(M1-Pad12)*
X174355000Y-51370000D03*
G04 #@! TO.P,M1,13*
G04 #@! TO.N,Net-(M1-Pad13)*
X176355000Y-51370000D03*
G04 #@! TO.P,M1,14*
G04 #@! TO.N,Net-(M1-Pad14)*
X178355000Y-51370000D03*
D18*
G04 #@! TO.P,M1,15*
G04 #@! TO.N,GND*
X180955000Y-49870000D03*
G04 #@! TO.P,M1,16*
X180955000Y-47870000D03*
G04 #@! TO.P,M1,17*
G04 #@! TO.N,Net-(J7-Pad1)*
X180955000Y-45870000D03*
G04 #@! TO.P,M1,18*
G04 #@! TO.N,Net-(JP1-Pad1)*
X180955000Y-43870000D03*
G04 #@! TO.P,M1,19*
G04 #@! TO.N,Net-(J6-Pad1)*
X180955000Y-41870000D03*
G04 #@! TO.P,M1,20*
G04 #@! TO.N,Net-(J5-Pad1)*
X180955000Y-39870000D03*
G04 #@! TO.P,M1,21*
G04 #@! TO.N,Net-(J2-Pad4)*
X180955000Y-37870000D03*
G04 #@! TO.P,M1,22*
G04 #@! TO.N,Net-(J2-Pad5)*
X180955000Y-35870000D03*
G04 #@! TD*
D20*
G04 #@! TO.P,Q1,1*
G04 #@! TO.N,Net-(Q1-Pad1)*
X159140000Y-40380000D03*
G04 #@! TO.P,Q1,3*
G04 #@! TO.N,GND*
X159140000Y-35820000D03*
D21*
G04 #@! TO.P,Q1,2*
G04 #@! TO.N,/R*
X152840000Y-38100000D03*
G04 #@! TD*
G04 #@! TO.P,Q2,2*
G04 #@! TO.N,/G*
X152630000Y-45975000D03*
D20*
G04 #@! TO.P,Q2,3*
G04 #@! TO.N,GND*
X158930000Y-43695000D03*
G04 #@! TO.P,Q2,1*
G04 #@! TO.N,Net-(Q2-Pad1)*
X158930000Y-48255000D03*
G04 #@! TD*
G04 #@! TO.P,Q3,1*
G04 #@! TO.N,Net-(Q3-Pad1)*
X158750000Y-55995000D03*
G04 #@! TO.P,Q3,3*
G04 #@! TO.N,GND*
X158750000Y-51435000D03*
D21*
G04 #@! TO.P,Q3,2*
G04 #@! TO.N,/B*
X152450000Y-53715000D03*
G04 #@! TD*
D10*
G04 #@! TO.N,FTDI_VCC*
G04 #@! TO.C,R1*
G36*
X162746958Y-31940710D02*
X162761276Y-31942834D01*
X162775317Y-31946351D01*
X162788946Y-31951228D01*
X162802031Y-31957417D01*
X162814447Y-31964858D01*
X162826073Y-31973481D01*
X162836798Y-31983202D01*
X162846519Y-31993927D01*
X162855142Y-32005553D01*
X162862583Y-32017969D01*
X162868772Y-32031054D01*
X162873649Y-32044683D01*
X162877166Y-32058724D01*
X162879290Y-32073042D01*
X162880000Y-32087500D01*
X162880000Y-32382500D01*
X162879290Y-32396958D01*
X162877166Y-32411276D01*
X162873649Y-32425317D01*
X162868772Y-32438946D01*
X162862583Y-32452031D01*
X162855142Y-32464447D01*
X162846519Y-32476073D01*
X162836798Y-32486798D01*
X162826073Y-32496519D01*
X162814447Y-32505142D01*
X162802031Y-32512583D01*
X162788946Y-32518772D01*
X162775317Y-32523649D01*
X162761276Y-32527166D01*
X162746958Y-32529290D01*
X162732500Y-32530000D01*
X162387500Y-32530000D01*
X162373042Y-32529290D01*
X162358724Y-32527166D01*
X162344683Y-32523649D01*
X162331054Y-32518772D01*
X162317969Y-32512583D01*
X162305553Y-32505142D01*
X162293927Y-32496519D01*
X162283202Y-32486798D01*
X162273481Y-32476073D01*
X162264858Y-32464447D01*
X162257417Y-32452031D01*
X162251228Y-32438946D01*
X162246351Y-32425317D01*
X162242834Y-32411276D01*
X162240710Y-32396958D01*
X162240000Y-32382500D01*
X162240000Y-32087500D01*
X162240710Y-32073042D01*
X162242834Y-32058724D01*
X162246351Y-32044683D01*
X162251228Y-32031054D01*
X162257417Y-32017969D01*
X162264858Y-32005553D01*
X162273481Y-31993927D01*
X162283202Y-31983202D01*
X162293927Y-31973481D01*
X162305553Y-31964858D01*
X162317969Y-31957417D01*
X162331054Y-31951228D01*
X162344683Y-31946351D01*
X162358724Y-31942834D01*
X162373042Y-31940710D01*
X162387500Y-31940000D01*
X162732500Y-31940000D01*
X162746958Y-31940710D01*
X162746958Y-31940710D01*
G37*
D22*
G04 #@! TD*
G04 #@! TO.P,R1,1*
G04 #@! TO.N,FTDI_VCC*
X162560000Y-32235000D03*
D10*
G04 #@! TO.N,Net-(M1-Pad1)*
G04 #@! TO.C,R1*
G36*
X162746958Y-30970710D02*
X162761276Y-30972834D01*
X162775317Y-30976351D01*
X162788946Y-30981228D01*
X162802031Y-30987417D01*
X162814447Y-30994858D01*
X162826073Y-31003481D01*
X162836798Y-31013202D01*
X162846519Y-31023927D01*
X162855142Y-31035553D01*
X162862583Y-31047969D01*
X162868772Y-31061054D01*
X162873649Y-31074683D01*
X162877166Y-31088724D01*
X162879290Y-31103042D01*
X162880000Y-31117500D01*
X162880000Y-31412500D01*
X162879290Y-31426958D01*
X162877166Y-31441276D01*
X162873649Y-31455317D01*
X162868772Y-31468946D01*
X162862583Y-31482031D01*
X162855142Y-31494447D01*
X162846519Y-31506073D01*
X162836798Y-31516798D01*
X162826073Y-31526519D01*
X162814447Y-31535142D01*
X162802031Y-31542583D01*
X162788946Y-31548772D01*
X162775317Y-31553649D01*
X162761276Y-31557166D01*
X162746958Y-31559290D01*
X162732500Y-31560000D01*
X162387500Y-31560000D01*
X162373042Y-31559290D01*
X162358724Y-31557166D01*
X162344683Y-31553649D01*
X162331054Y-31548772D01*
X162317969Y-31542583D01*
X162305553Y-31535142D01*
X162293927Y-31526519D01*
X162283202Y-31516798D01*
X162273481Y-31506073D01*
X162264858Y-31494447D01*
X162257417Y-31482031D01*
X162251228Y-31468946D01*
X162246351Y-31455317D01*
X162242834Y-31441276D01*
X162240710Y-31426958D01*
X162240000Y-31412500D01*
X162240000Y-31117500D01*
X162240710Y-31103042D01*
X162242834Y-31088724D01*
X162246351Y-31074683D01*
X162251228Y-31061054D01*
X162257417Y-31047969D01*
X162264858Y-31035553D01*
X162273481Y-31023927D01*
X162283202Y-31013202D01*
X162293927Y-31003481D01*
X162305553Y-30994858D01*
X162317969Y-30987417D01*
X162331054Y-30981228D01*
X162344683Y-30976351D01*
X162358724Y-30972834D01*
X162373042Y-30970710D01*
X162387500Y-30970000D01*
X162732500Y-30970000D01*
X162746958Y-30970710D01*
X162746958Y-30970710D01*
G37*
D22*
G04 #@! TD*
G04 #@! TO.P,R1,2*
G04 #@! TO.N,Net-(M1-Pad1)*
X162560000Y-31265000D03*
D10*
G04 #@! TO.N,GATE_R*
G04 #@! TO.C,R2*
G36*
X162185779Y-36786144D02*
X162208834Y-36789563D01*
X162231443Y-36795227D01*
X162253387Y-36803079D01*
X162274457Y-36813044D01*
X162294448Y-36825026D01*
X162313168Y-36838910D01*
X162330438Y-36854562D01*
X162346090Y-36871832D01*
X162359974Y-36890552D01*
X162371956Y-36910543D01*
X162381921Y-36931613D01*
X162389773Y-36953557D01*
X162395437Y-36976166D01*
X162398856Y-36999221D01*
X162400000Y-37022500D01*
X162400000Y-37597500D01*
X162398856Y-37620779D01*
X162395437Y-37643834D01*
X162389773Y-37666443D01*
X162381921Y-37688387D01*
X162371956Y-37709457D01*
X162359974Y-37729448D01*
X162346090Y-37748168D01*
X162330438Y-37765438D01*
X162313168Y-37781090D01*
X162294448Y-37794974D01*
X162274457Y-37806956D01*
X162253387Y-37816921D01*
X162231443Y-37824773D01*
X162208834Y-37830437D01*
X162185779Y-37833856D01*
X162162500Y-37835000D01*
X161687500Y-37835000D01*
X161664221Y-37833856D01*
X161641166Y-37830437D01*
X161618557Y-37824773D01*
X161596613Y-37816921D01*
X161575543Y-37806956D01*
X161555552Y-37794974D01*
X161536832Y-37781090D01*
X161519562Y-37765438D01*
X161503910Y-37748168D01*
X161490026Y-37729448D01*
X161478044Y-37709457D01*
X161468079Y-37688387D01*
X161460227Y-37666443D01*
X161454563Y-37643834D01*
X161451144Y-37620779D01*
X161450000Y-37597500D01*
X161450000Y-37022500D01*
X161451144Y-36999221D01*
X161454563Y-36976166D01*
X161460227Y-36953557D01*
X161468079Y-36931613D01*
X161478044Y-36910543D01*
X161490026Y-36890552D01*
X161503910Y-36871832D01*
X161519562Y-36854562D01*
X161536832Y-36838910D01*
X161555552Y-36825026D01*
X161575543Y-36813044D01*
X161596613Y-36803079D01*
X161618557Y-36795227D01*
X161641166Y-36789563D01*
X161664221Y-36786144D01*
X161687500Y-36785000D01*
X162162500Y-36785000D01*
X162185779Y-36786144D01*
X162185779Y-36786144D01*
G37*
D23*
G04 #@! TD*
G04 #@! TO.P,R2,1*
G04 #@! TO.N,GATE_R*
X161925000Y-37310000D03*
D10*
G04 #@! TO.N,GND*
G04 #@! TO.C,R2*
G36*
X162185779Y-35036144D02*
X162208834Y-35039563D01*
X162231443Y-35045227D01*
X162253387Y-35053079D01*
X162274457Y-35063044D01*
X162294448Y-35075026D01*
X162313168Y-35088910D01*
X162330438Y-35104562D01*
X162346090Y-35121832D01*
X162359974Y-35140552D01*
X162371956Y-35160543D01*
X162381921Y-35181613D01*
X162389773Y-35203557D01*
X162395437Y-35226166D01*
X162398856Y-35249221D01*
X162400000Y-35272500D01*
X162400000Y-35847500D01*
X162398856Y-35870779D01*
X162395437Y-35893834D01*
X162389773Y-35916443D01*
X162381921Y-35938387D01*
X162371956Y-35959457D01*
X162359974Y-35979448D01*
X162346090Y-35998168D01*
X162330438Y-36015438D01*
X162313168Y-36031090D01*
X162294448Y-36044974D01*
X162274457Y-36056956D01*
X162253387Y-36066921D01*
X162231443Y-36074773D01*
X162208834Y-36080437D01*
X162185779Y-36083856D01*
X162162500Y-36085000D01*
X161687500Y-36085000D01*
X161664221Y-36083856D01*
X161641166Y-36080437D01*
X161618557Y-36074773D01*
X161596613Y-36066921D01*
X161575543Y-36056956D01*
X161555552Y-36044974D01*
X161536832Y-36031090D01*
X161519562Y-36015438D01*
X161503910Y-35998168D01*
X161490026Y-35979448D01*
X161478044Y-35959457D01*
X161468079Y-35938387D01*
X161460227Y-35916443D01*
X161454563Y-35893834D01*
X161451144Y-35870779D01*
X161450000Y-35847500D01*
X161450000Y-35272500D01*
X161451144Y-35249221D01*
X161454563Y-35226166D01*
X161460227Y-35203557D01*
X161468079Y-35181613D01*
X161478044Y-35160543D01*
X161490026Y-35140552D01*
X161503910Y-35121832D01*
X161519562Y-35104562D01*
X161536832Y-35088910D01*
X161555552Y-35075026D01*
X161575543Y-35063044D01*
X161596613Y-35053079D01*
X161618557Y-35045227D01*
X161641166Y-35039563D01*
X161664221Y-35036144D01*
X161687500Y-35035000D01*
X162162500Y-35035000D01*
X162185779Y-35036144D01*
X162185779Y-35036144D01*
G37*
D23*
G04 #@! TD*
G04 #@! TO.P,R2,2*
G04 #@! TO.N,GND*
X161925000Y-35560000D03*
D10*
G04 #@! TO.N,GND*
G04 #@! TO.C,R3*
G36*
X162185779Y-43291144D02*
X162208834Y-43294563D01*
X162231443Y-43300227D01*
X162253387Y-43308079D01*
X162274457Y-43318044D01*
X162294448Y-43330026D01*
X162313168Y-43343910D01*
X162330438Y-43359562D01*
X162346090Y-43376832D01*
X162359974Y-43395552D01*
X162371956Y-43415543D01*
X162381921Y-43436613D01*
X162389773Y-43458557D01*
X162395437Y-43481166D01*
X162398856Y-43504221D01*
X162400000Y-43527500D01*
X162400000Y-44102500D01*
X162398856Y-44125779D01*
X162395437Y-44148834D01*
X162389773Y-44171443D01*
X162381921Y-44193387D01*
X162371956Y-44214457D01*
X162359974Y-44234448D01*
X162346090Y-44253168D01*
X162330438Y-44270438D01*
X162313168Y-44286090D01*
X162294448Y-44299974D01*
X162274457Y-44311956D01*
X162253387Y-44321921D01*
X162231443Y-44329773D01*
X162208834Y-44335437D01*
X162185779Y-44338856D01*
X162162500Y-44340000D01*
X161687500Y-44340000D01*
X161664221Y-44338856D01*
X161641166Y-44335437D01*
X161618557Y-44329773D01*
X161596613Y-44321921D01*
X161575543Y-44311956D01*
X161555552Y-44299974D01*
X161536832Y-44286090D01*
X161519562Y-44270438D01*
X161503910Y-44253168D01*
X161490026Y-44234448D01*
X161478044Y-44214457D01*
X161468079Y-44193387D01*
X161460227Y-44171443D01*
X161454563Y-44148834D01*
X161451144Y-44125779D01*
X161450000Y-44102500D01*
X161450000Y-43527500D01*
X161451144Y-43504221D01*
X161454563Y-43481166D01*
X161460227Y-43458557D01*
X161468079Y-43436613D01*
X161478044Y-43415543D01*
X161490026Y-43395552D01*
X161503910Y-43376832D01*
X161519562Y-43359562D01*
X161536832Y-43343910D01*
X161555552Y-43330026D01*
X161575543Y-43318044D01*
X161596613Y-43308079D01*
X161618557Y-43300227D01*
X161641166Y-43294563D01*
X161664221Y-43291144D01*
X161687500Y-43290000D01*
X162162500Y-43290000D01*
X162185779Y-43291144D01*
X162185779Y-43291144D01*
G37*
D23*
G04 #@! TD*
G04 #@! TO.P,R3,2*
G04 #@! TO.N,GND*
X161925000Y-43815000D03*
D10*
G04 #@! TO.N,GATE_G*
G04 #@! TO.C,R3*
G36*
X162185779Y-45041144D02*
X162208834Y-45044563D01*
X162231443Y-45050227D01*
X162253387Y-45058079D01*
X162274457Y-45068044D01*
X162294448Y-45080026D01*
X162313168Y-45093910D01*
X162330438Y-45109562D01*
X162346090Y-45126832D01*
X162359974Y-45145552D01*
X162371956Y-45165543D01*
X162381921Y-45186613D01*
X162389773Y-45208557D01*
X162395437Y-45231166D01*
X162398856Y-45254221D01*
X162400000Y-45277500D01*
X162400000Y-45852500D01*
X162398856Y-45875779D01*
X162395437Y-45898834D01*
X162389773Y-45921443D01*
X162381921Y-45943387D01*
X162371956Y-45964457D01*
X162359974Y-45984448D01*
X162346090Y-46003168D01*
X162330438Y-46020438D01*
X162313168Y-46036090D01*
X162294448Y-46049974D01*
X162274457Y-46061956D01*
X162253387Y-46071921D01*
X162231443Y-46079773D01*
X162208834Y-46085437D01*
X162185779Y-46088856D01*
X162162500Y-46090000D01*
X161687500Y-46090000D01*
X161664221Y-46088856D01*
X161641166Y-46085437D01*
X161618557Y-46079773D01*
X161596613Y-46071921D01*
X161575543Y-46061956D01*
X161555552Y-46049974D01*
X161536832Y-46036090D01*
X161519562Y-46020438D01*
X161503910Y-46003168D01*
X161490026Y-45984448D01*
X161478044Y-45964457D01*
X161468079Y-45943387D01*
X161460227Y-45921443D01*
X161454563Y-45898834D01*
X161451144Y-45875779D01*
X161450000Y-45852500D01*
X161450000Y-45277500D01*
X161451144Y-45254221D01*
X161454563Y-45231166D01*
X161460227Y-45208557D01*
X161468079Y-45186613D01*
X161478044Y-45165543D01*
X161490026Y-45145552D01*
X161503910Y-45126832D01*
X161519562Y-45109562D01*
X161536832Y-45093910D01*
X161555552Y-45080026D01*
X161575543Y-45068044D01*
X161596613Y-45058079D01*
X161618557Y-45050227D01*
X161641166Y-45044563D01*
X161664221Y-45041144D01*
X161687500Y-45040000D01*
X162162500Y-45040000D01*
X162185779Y-45041144D01*
X162185779Y-45041144D01*
G37*
D23*
G04 #@! TD*
G04 #@! TO.P,R3,1*
G04 #@! TO.N,GATE_G*
X161925000Y-45565000D03*
D10*
G04 #@! TO.N,GATE_B*
G04 #@! TO.C,R4*
G36*
X162185779Y-52661144D02*
X162208834Y-52664563D01*
X162231443Y-52670227D01*
X162253387Y-52678079D01*
X162274457Y-52688044D01*
X162294448Y-52700026D01*
X162313168Y-52713910D01*
X162330438Y-52729562D01*
X162346090Y-52746832D01*
X162359974Y-52765552D01*
X162371956Y-52785543D01*
X162381921Y-52806613D01*
X162389773Y-52828557D01*
X162395437Y-52851166D01*
X162398856Y-52874221D01*
X162400000Y-52897500D01*
X162400000Y-53472500D01*
X162398856Y-53495779D01*
X162395437Y-53518834D01*
X162389773Y-53541443D01*
X162381921Y-53563387D01*
X162371956Y-53584457D01*
X162359974Y-53604448D01*
X162346090Y-53623168D01*
X162330438Y-53640438D01*
X162313168Y-53656090D01*
X162294448Y-53669974D01*
X162274457Y-53681956D01*
X162253387Y-53691921D01*
X162231443Y-53699773D01*
X162208834Y-53705437D01*
X162185779Y-53708856D01*
X162162500Y-53710000D01*
X161687500Y-53710000D01*
X161664221Y-53708856D01*
X161641166Y-53705437D01*
X161618557Y-53699773D01*
X161596613Y-53691921D01*
X161575543Y-53681956D01*
X161555552Y-53669974D01*
X161536832Y-53656090D01*
X161519562Y-53640438D01*
X161503910Y-53623168D01*
X161490026Y-53604448D01*
X161478044Y-53584457D01*
X161468079Y-53563387D01*
X161460227Y-53541443D01*
X161454563Y-53518834D01*
X161451144Y-53495779D01*
X161450000Y-53472500D01*
X161450000Y-52897500D01*
X161451144Y-52874221D01*
X161454563Y-52851166D01*
X161460227Y-52828557D01*
X161468079Y-52806613D01*
X161478044Y-52785543D01*
X161490026Y-52765552D01*
X161503910Y-52746832D01*
X161519562Y-52729562D01*
X161536832Y-52713910D01*
X161555552Y-52700026D01*
X161575543Y-52688044D01*
X161596613Y-52678079D01*
X161618557Y-52670227D01*
X161641166Y-52664563D01*
X161664221Y-52661144D01*
X161687500Y-52660000D01*
X162162500Y-52660000D01*
X162185779Y-52661144D01*
X162185779Y-52661144D01*
G37*
D23*
G04 #@! TD*
G04 #@! TO.P,R4,1*
G04 #@! TO.N,GATE_B*
X161925000Y-53185000D03*
D10*
G04 #@! TO.N,GND*
G04 #@! TO.C,R4*
G36*
X162185779Y-50911144D02*
X162208834Y-50914563D01*
X162231443Y-50920227D01*
X162253387Y-50928079D01*
X162274457Y-50938044D01*
X162294448Y-50950026D01*
X162313168Y-50963910D01*
X162330438Y-50979562D01*
X162346090Y-50996832D01*
X162359974Y-51015552D01*
X162371956Y-51035543D01*
X162381921Y-51056613D01*
X162389773Y-51078557D01*
X162395437Y-51101166D01*
X162398856Y-51124221D01*
X162400000Y-51147500D01*
X162400000Y-51722500D01*
X162398856Y-51745779D01*
X162395437Y-51768834D01*
X162389773Y-51791443D01*
X162381921Y-51813387D01*
X162371956Y-51834457D01*
X162359974Y-51854448D01*
X162346090Y-51873168D01*
X162330438Y-51890438D01*
X162313168Y-51906090D01*
X162294448Y-51919974D01*
X162274457Y-51931956D01*
X162253387Y-51941921D01*
X162231443Y-51949773D01*
X162208834Y-51955437D01*
X162185779Y-51958856D01*
X162162500Y-51960000D01*
X161687500Y-51960000D01*
X161664221Y-51958856D01*
X161641166Y-51955437D01*
X161618557Y-51949773D01*
X161596613Y-51941921D01*
X161575543Y-51931956D01*
X161555552Y-51919974D01*
X161536832Y-51906090D01*
X161519562Y-51890438D01*
X161503910Y-51873168D01*
X161490026Y-51854448D01*
X161478044Y-51834457D01*
X161468079Y-51813387D01*
X161460227Y-51791443D01*
X161454563Y-51768834D01*
X161451144Y-51745779D01*
X161450000Y-51722500D01*
X161450000Y-51147500D01*
X161451144Y-51124221D01*
X161454563Y-51101166D01*
X161460227Y-51078557D01*
X161468079Y-51056613D01*
X161478044Y-51035543D01*
X161490026Y-51015552D01*
X161503910Y-50996832D01*
X161519562Y-50979562D01*
X161536832Y-50963910D01*
X161555552Y-50950026D01*
X161575543Y-50938044D01*
X161596613Y-50928079D01*
X161618557Y-50920227D01*
X161641166Y-50914563D01*
X161664221Y-50911144D01*
X161687500Y-50910000D01*
X162162500Y-50910000D01*
X162185779Y-50911144D01*
X162185779Y-50911144D01*
G37*
D23*
G04 #@! TD*
G04 #@! TO.P,R4,2*
G04 #@! TO.N,GND*
X161925000Y-51435000D03*
D10*
G04 #@! TO.N,GATE_B*
G04 #@! TO.C,R5*
G36*
X162111958Y-54950710D02*
X162126276Y-54952834D01*
X162140317Y-54956351D01*
X162153946Y-54961228D01*
X162167031Y-54967417D01*
X162179447Y-54974858D01*
X162191073Y-54983481D01*
X162201798Y-54993202D01*
X162211519Y-55003927D01*
X162220142Y-55015553D01*
X162227583Y-55027969D01*
X162233772Y-55041054D01*
X162238649Y-55054683D01*
X162242166Y-55068724D01*
X162244290Y-55083042D01*
X162245000Y-55097500D01*
X162245000Y-55392500D01*
X162244290Y-55406958D01*
X162242166Y-55421276D01*
X162238649Y-55435317D01*
X162233772Y-55448946D01*
X162227583Y-55462031D01*
X162220142Y-55474447D01*
X162211519Y-55486073D01*
X162201798Y-55496798D01*
X162191073Y-55506519D01*
X162179447Y-55515142D01*
X162167031Y-55522583D01*
X162153946Y-55528772D01*
X162140317Y-55533649D01*
X162126276Y-55537166D01*
X162111958Y-55539290D01*
X162097500Y-55540000D01*
X161752500Y-55540000D01*
X161738042Y-55539290D01*
X161723724Y-55537166D01*
X161709683Y-55533649D01*
X161696054Y-55528772D01*
X161682969Y-55522583D01*
X161670553Y-55515142D01*
X161658927Y-55506519D01*
X161648202Y-55496798D01*
X161638481Y-55486073D01*
X161629858Y-55474447D01*
X161622417Y-55462031D01*
X161616228Y-55448946D01*
X161611351Y-55435317D01*
X161607834Y-55421276D01*
X161605710Y-55406958D01*
X161605000Y-55392500D01*
X161605000Y-55097500D01*
X161605710Y-55083042D01*
X161607834Y-55068724D01*
X161611351Y-55054683D01*
X161616228Y-55041054D01*
X161622417Y-55027969D01*
X161629858Y-55015553D01*
X161638481Y-55003927D01*
X161648202Y-54993202D01*
X161658927Y-54983481D01*
X161670553Y-54974858D01*
X161682969Y-54967417D01*
X161696054Y-54961228D01*
X161709683Y-54956351D01*
X161723724Y-54952834D01*
X161738042Y-54950710D01*
X161752500Y-54950000D01*
X162097500Y-54950000D01*
X162111958Y-54950710D01*
X162111958Y-54950710D01*
G37*
D22*
G04 #@! TD*
G04 #@! TO.P,R5,2*
G04 #@! TO.N,GATE_B*
X161925000Y-55245000D03*
D10*
G04 #@! TO.N,Net-(Q3-Pad1)*
G04 #@! TO.C,R5*
G36*
X162111958Y-55920710D02*
X162126276Y-55922834D01*
X162140317Y-55926351D01*
X162153946Y-55931228D01*
X162167031Y-55937417D01*
X162179447Y-55944858D01*
X162191073Y-55953481D01*
X162201798Y-55963202D01*
X162211519Y-55973927D01*
X162220142Y-55985553D01*
X162227583Y-55997969D01*
X162233772Y-56011054D01*
X162238649Y-56024683D01*
X162242166Y-56038724D01*
X162244290Y-56053042D01*
X162245000Y-56067500D01*
X162245000Y-56362500D01*
X162244290Y-56376958D01*
X162242166Y-56391276D01*
X162238649Y-56405317D01*
X162233772Y-56418946D01*
X162227583Y-56432031D01*
X162220142Y-56444447D01*
X162211519Y-56456073D01*
X162201798Y-56466798D01*
X162191073Y-56476519D01*
X162179447Y-56485142D01*
X162167031Y-56492583D01*
X162153946Y-56498772D01*
X162140317Y-56503649D01*
X162126276Y-56507166D01*
X162111958Y-56509290D01*
X162097500Y-56510000D01*
X161752500Y-56510000D01*
X161738042Y-56509290D01*
X161723724Y-56507166D01*
X161709683Y-56503649D01*
X161696054Y-56498772D01*
X161682969Y-56492583D01*
X161670553Y-56485142D01*
X161658927Y-56476519D01*
X161648202Y-56466798D01*
X161638481Y-56456073D01*
X161629858Y-56444447D01*
X161622417Y-56432031D01*
X161616228Y-56418946D01*
X161611351Y-56405317D01*
X161607834Y-56391276D01*
X161605710Y-56376958D01*
X161605000Y-56362500D01*
X161605000Y-56067500D01*
X161605710Y-56053042D01*
X161607834Y-56038724D01*
X161611351Y-56024683D01*
X161616228Y-56011054D01*
X161622417Y-55997969D01*
X161629858Y-55985553D01*
X161638481Y-55973927D01*
X161648202Y-55963202D01*
X161658927Y-55953481D01*
X161670553Y-55944858D01*
X161682969Y-55937417D01*
X161696054Y-55931228D01*
X161709683Y-55926351D01*
X161723724Y-55922834D01*
X161738042Y-55920710D01*
X161752500Y-55920000D01*
X162097500Y-55920000D01*
X162111958Y-55920710D01*
X162111958Y-55920710D01*
G37*
D22*
G04 #@! TD*
G04 #@! TO.P,R5,1*
G04 #@! TO.N,Net-(Q3-Pad1)*
X161925000Y-56215000D03*
D10*
G04 #@! TO.N,Net-(Q2-Pad1)*
G04 #@! TO.C,R6*
G36*
X162111958Y-48300710D02*
X162126276Y-48302834D01*
X162140317Y-48306351D01*
X162153946Y-48311228D01*
X162167031Y-48317417D01*
X162179447Y-48324858D01*
X162191073Y-48333481D01*
X162201798Y-48343202D01*
X162211519Y-48353927D01*
X162220142Y-48365553D01*
X162227583Y-48377969D01*
X162233772Y-48391054D01*
X162238649Y-48404683D01*
X162242166Y-48418724D01*
X162244290Y-48433042D01*
X162245000Y-48447500D01*
X162245000Y-48742500D01*
X162244290Y-48756958D01*
X162242166Y-48771276D01*
X162238649Y-48785317D01*
X162233772Y-48798946D01*
X162227583Y-48812031D01*
X162220142Y-48824447D01*
X162211519Y-48836073D01*
X162201798Y-48846798D01*
X162191073Y-48856519D01*
X162179447Y-48865142D01*
X162167031Y-48872583D01*
X162153946Y-48878772D01*
X162140317Y-48883649D01*
X162126276Y-48887166D01*
X162111958Y-48889290D01*
X162097500Y-48890000D01*
X161752500Y-48890000D01*
X161738042Y-48889290D01*
X161723724Y-48887166D01*
X161709683Y-48883649D01*
X161696054Y-48878772D01*
X161682969Y-48872583D01*
X161670553Y-48865142D01*
X161658927Y-48856519D01*
X161648202Y-48846798D01*
X161638481Y-48836073D01*
X161629858Y-48824447D01*
X161622417Y-48812031D01*
X161616228Y-48798946D01*
X161611351Y-48785317D01*
X161607834Y-48771276D01*
X161605710Y-48756958D01*
X161605000Y-48742500D01*
X161605000Y-48447500D01*
X161605710Y-48433042D01*
X161607834Y-48418724D01*
X161611351Y-48404683D01*
X161616228Y-48391054D01*
X161622417Y-48377969D01*
X161629858Y-48365553D01*
X161638481Y-48353927D01*
X161648202Y-48343202D01*
X161658927Y-48333481D01*
X161670553Y-48324858D01*
X161682969Y-48317417D01*
X161696054Y-48311228D01*
X161709683Y-48306351D01*
X161723724Y-48302834D01*
X161738042Y-48300710D01*
X161752500Y-48300000D01*
X162097500Y-48300000D01*
X162111958Y-48300710D01*
X162111958Y-48300710D01*
G37*
D22*
G04 #@! TD*
G04 #@! TO.P,R6,1*
G04 #@! TO.N,Net-(Q2-Pad1)*
X161925000Y-48595000D03*
D10*
G04 #@! TO.N,GATE_G*
G04 #@! TO.C,R6*
G36*
X162111958Y-47330710D02*
X162126276Y-47332834D01*
X162140317Y-47336351D01*
X162153946Y-47341228D01*
X162167031Y-47347417D01*
X162179447Y-47354858D01*
X162191073Y-47363481D01*
X162201798Y-47373202D01*
X162211519Y-47383927D01*
X162220142Y-47395553D01*
X162227583Y-47407969D01*
X162233772Y-47421054D01*
X162238649Y-47434683D01*
X162242166Y-47448724D01*
X162244290Y-47463042D01*
X162245000Y-47477500D01*
X162245000Y-47772500D01*
X162244290Y-47786958D01*
X162242166Y-47801276D01*
X162238649Y-47815317D01*
X162233772Y-47828946D01*
X162227583Y-47842031D01*
X162220142Y-47854447D01*
X162211519Y-47866073D01*
X162201798Y-47876798D01*
X162191073Y-47886519D01*
X162179447Y-47895142D01*
X162167031Y-47902583D01*
X162153946Y-47908772D01*
X162140317Y-47913649D01*
X162126276Y-47917166D01*
X162111958Y-47919290D01*
X162097500Y-47920000D01*
X161752500Y-47920000D01*
X161738042Y-47919290D01*
X161723724Y-47917166D01*
X161709683Y-47913649D01*
X161696054Y-47908772D01*
X161682969Y-47902583D01*
X161670553Y-47895142D01*
X161658927Y-47886519D01*
X161648202Y-47876798D01*
X161638481Y-47866073D01*
X161629858Y-47854447D01*
X161622417Y-47842031D01*
X161616228Y-47828946D01*
X161611351Y-47815317D01*
X161607834Y-47801276D01*
X161605710Y-47786958D01*
X161605000Y-47772500D01*
X161605000Y-47477500D01*
X161605710Y-47463042D01*
X161607834Y-47448724D01*
X161611351Y-47434683D01*
X161616228Y-47421054D01*
X161622417Y-47407969D01*
X161629858Y-47395553D01*
X161638481Y-47383927D01*
X161648202Y-47373202D01*
X161658927Y-47363481D01*
X161670553Y-47354858D01*
X161682969Y-47347417D01*
X161696054Y-47341228D01*
X161709683Y-47336351D01*
X161723724Y-47332834D01*
X161738042Y-47330710D01*
X161752500Y-47330000D01*
X162097500Y-47330000D01*
X162111958Y-47330710D01*
X162111958Y-47330710D01*
G37*
D22*
G04 #@! TD*
G04 #@! TO.P,R6,2*
G04 #@! TO.N,GATE_G*
X161925000Y-47625000D03*
D10*
G04 #@! TO.N,GATE_R*
G04 #@! TO.C,R7*
G36*
X162111958Y-39710710D02*
X162126276Y-39712834D01*
X162140317Y-39716351D01*
X162153946Y-39721228D01*
X162167031Y-39727417D01*
X162179447Y-39734858D01*
X162191073Y-39743481D01*
X162201798Y-39753202D01*
X162211519Y-39763927D01*
X162220142Y-39775553D01*
X162227583Y-39787969D01*
X162233772Y-39801054D01*
X162238649Y-39814683D01*
X162242166Y-39828724D01*
X162244290Y-39843042D01*
X162245000Y-39857500D01*
X162245000Y-40152500D01*
X162244290Y-40166958D01*
X162242166Y-40181276D01*
X162238649Y-40195317D01*
X162233772Y-40208946D01*
X162227583Y-40222031D01*
X162220142Y-40234447D01*
X162211519Y-40246073D01*
X162201798Y-40256798D01*
X162191073Y-40266519D01*
X162179447Y-40275142D01*
X162167031Y-40282583D01*
X162153946Y-40288772D01*
X162140317Y-40293649D01*
X162126276Y-40297166D01*
X162111958Y-40299290D01*
X162097500Y-40300000D01*
X161752500Y-40300000D01*
X161738042Y-40299290D01*
X161723724Y-40297166D01*
X161709683Y-40293649D01*
X161696054Y-40288772D01*
X161682969Y-40282583D01*
X161670553Y-40275142D01*
X161658927Y-40266519D01*
X161648202Y-40256798D01*
X161638481Y-40246073D01*
X161629858Y-40234447D01*
X161622417Y-40222031D01*
X161616228Y-40208946D01*
X161611351Y-40195317D01*
X161607834Y-40181276D01*
X161605710Y-40166958D01*
X161605000Y-40152500D01*
X161605000Y-39857500D01*
X161605710Y-39843042D01*
X161607834Y-39828724D01*
X161611351Y-39814683D01*
X161616228Y-39801054D01*
X161622417Y-39787969D01*
X161629858Y-39775553D01*
X161638481Y-39763927D01*
X161648202Y-39753202D01*
X161658927Y-39743481D01*
X161670553Y-39734858D01*
X161682969Y-39727417D01*
X161696054Y-39721228D01*
X161709683Y-39716351D01*
X161723724Y-39712834D01*
X161738042Y-39710710D01*
X161752500Y-39710000D01*
X162097500Y-39710000D01*
X162111958Y-39710710D01*
X162111958Y-39710710D01*
G37*
D22*
G04 #@! TD*
G04 #@! TO.P,R7,2*
G04 #@! TO.N,GATE_R*
X161925000Y-40005000D03*
D10*
G04 #@! TO.N,Net-(Q1-Pad1)*
G04 #@! TO.C,R7*
G36*
X162111958Y-40680710D02*
X162126276Y-40682834D01*
X162140317Y-40686351D01*
X162153946Y-40691228D01*
X162167031Y-40697417D01*
X162179447Y-40704858D01*
X162191073Y-40713481D01*
X162201798Y-40723202D01*
X162211519Y-40733927D01*
X162220142Y-40745553D01*
X162227583Y-40757969D01*
X162233772Y-40771054D01*
X162238649Y-40784683D01*
X162242166Y-40798724D01*
X162244290Y-40813042D01*
X162245000Y-40827500D01*
X162245000Y-41122500D01*
X162244290Y-41136958D01*
X162242166Y-41151276D01*
X162238649Y-41165317D01*
X162233772Y-41178946D01*
X162227583Y-41192031D01*
X162220142Y-41204447D01*
X162211519Y-41216073D01*
X162201798Y-41226798D01*
X162191073Y-41236519D01*
X162179447Y-41245142D01*
X162167031Y-41252583D01*
X162153946Y-41258772D01*
X162140317Y-41263649D01*
X162126276Y-41267166D01*
X162111958Y-41269290D01*
X162097500Y-41270000D01*
X161752500Y-41270000D01*
X161738042Y-41269290D01*
X161723724Y-41267166D01*
X161709683Y-41263649D01*
X161696054Y-41258772D01*
X161682969Y-41252583D01*
X161670553Y-41245142D01*
X161658927Y-41236519D01*
X161648202Y-41226798D01*
X161638481Y-41216073D01*
X161629858Y-41204447D01*
X161622417Y-41192031D01*
X161616228Y-41178946D01*
X161611351Y-41165317D01*
X161607834Y-41151276D01*
X161605710Y-41136958D01*
X161605000Y-41122500D01*
X161605000Y-40827500D01*
X161605710Y-40813042D01*
X161607834Y-40798724D01*
X161611351Y-40784683D01*
X161616228Y-40771054D01*
X161622417Y-40757969D01*
X161629858Y-40745553D01*
X161638481Y-40733927D01*
X161648202Y-40723202D01*
X161658927Y-40713481D01*
X161670553Y-40704858D01*
X161682969Y-40697417D01*
X161696054Y-40691228D01*
X161709683Y-40686351D01*
X161723724Y-40682834D01*
X161738042Y-40680710D01*
X161752500Y-40680000D01*
X162097500Y-40680000D01*
X162111958Y-40680710D01*
X162111958Y-40680710D01*
G37*
D22*
G04 #@! TD*
G04 #@! TO.P,R7,1*
G04 #@! TO.N,Net-(Q1-Pad1)*
X161925000Y-40975000D03*
D24*
G04 #@! TO.P,SW1,1*
G04 #@! TO.N,GND*
X151270000Y-30480000D03*
G04 #@! TO.P,SW1,2*
G04 #@! TO.N,Net-(M1-Pad1)*
X159880000Y-30480000D03*
G04 #@! TD*
D17*
G04 #@! TO.P,SW2,2*
G04 #@! TO.N,+12V*
X145875000Y-58130000D03*
D16*
G04 #@! TO.P,SW2,1*
G04 #@! TO.N,Net-(J1-Pad1)*
X145875000Y-60670000D03*
G04 #@! TD*
D25*
G04 #@! TO.P,U1,2*
G04 #@! TO.N,FTDI_VCC*
X156820000Y-65405000D03*
D26*
X150520000Y-65405000D03*
G04 #@! TO.P,U1,3*
G04 #@! TO.N,+12V*
X150520000Y-67705000D03*
G04 #@! TO.P,U1,1*
G04 #@! TO.N,GND*
X150520000Y-63105000D03*
G04 #@! TD*
D16*
G04 #@! TO.P,J4,1*
G04 #@! TO.N,Net-(J4-Pad1)*
X167375000Y-55170000D03*
G04 #@! TD*
G04 #@! TO.P,J5,1*
G04 #@! TO.N,Net-(J5-Pad1)*
X170875000Y-55170000D03*
G04 #@! TD*
G04 #@! TO.P,J6,1*
G04 #@! TO.N,Net-(J6-Pad1)*
X174375000Y-55170000D03*
G04 #@! TD*
G04 #@! TO.P,J7,1*
G04 #@! TO.N,Net-(J7-Pad1)*
X177875000Y-55170000D03*
G04 #@! TD*
D27*
G04 #@! TO.N,FTDI_VCC*
X166375000Y-60670000D03*
X166375000Y-65670000D03*
X183375000Y-42670000D03*
X171375000Y-42670000D03*
G04 #@! TO.N,Net-(J4-Pad1)*
X168375000Y-45170000D03*
G04 #@! TO.N,Net-(J5-Pad1)*
X171375000Y-48170000D03*
G04 #@! TO.N,Net-(J6-Pad1)*
X176875000Y-44670000D03*
G04 #@! TO.N,Net-(J7-Pad1)*
X178375000Y-46670000D03*
G04 #@! TD*
D28*
G04 #@! TO.N,+12V*
X145375000Y-43170000D02*
X146375000Y-43170000D01*
X144375000Y-44170000D02*
X145375000Y-43170000D01*
X144375000Y-56630000D02*
X144375000Y-44170000D01*
X145875000Y-58130000D02*
X144375000Y-56630000D01*
X145875000Y-58130000D02*
X147835000Y-58130000D01*
X148760000Y-59055000D02*
X151765000Y-59055000D01*
X147835000Y-58130000D02*
X148760000Y-59055000D01*
D29*
X149121823Y-67705000D02*
X150520000Y-67705000D01*
X148586823Y-67170000D02*
X149121823Y-67705000D01*
X148586823Y-61420677D02*
X148586823Y-67170000D01*
X150952500Y-59055000D02*
X148586823Y-61420677D01*
X151765000Y-59055000D02*
X150952500Y-59055000D01*
D28*
G04 #@! TO.N,GND*
X185420000Y-57150000D02*
X183515000Y-57150000D01*
X180955000Y-54590000D02*
X180955000Y-49870000D01*
X183515000Y-57150000D02*
X180955000Y-54590000D01*
X180955000Y-47870000D02*
X180955000Y-49870000D01*
X163195000Y-60810000D02*
X159235000Y-60810000D01*
X159235000Y-60810000D02*
X157480000Y-59055000D01*
X154740000Y-59055000D02*
X154740000Y-61395000D01*
X153030000Y-63105000D02*
X150520000Y-63105000D01*
X154740000Y-61395000D02*
X153030000Y-63105000D01*
D30*
X158750000Y-51435000D02*
X161925000Y-51435000D01*
X159050000Y-43815000D02*
X158930000Y-43695000D01*
X161925000Y-43815000D02*
X159050000Y-43815000D01*
X159400000Y-35560000D02*
X159140000Y-35820000D01*
X161925000Y-35560000D02*
X159400000Y-35560000D01*
D28*
X157480000Y-59055000D02*
X156845000Y-59055000D01*
X156845000Y-59055000D02*
X154740000Y-59055000D01*
X185420000Y-57150000D02*
X184217919Y-57150000D01*
D31*
X159140000Y-34620000D02*
X159140000Y-35820000D01*
X155000000Y-30480000D02*
X159140000Y-34620000D01*
X151270000Y-30480000D02*
X155000000Y-30480000D01*
D28*
X172025000Y-65170000D02*
X170525000Y-63670000D01*
X173875000Y-65170000D02*
X172025000Y-65170000D01*
X166055000Y-63670000D02*
X163195000Y-60810000D01*
X170525000Y-63670000D02*
X166055000Y-63670000D01*
X175335455Y-66630455D02*
X180164545Y-66630455D01*
X173875000Y-65170000D02*
X175335455Y-66630455D01*
X185420000Y-61375000D02*
X185420000Y-57150000D01*
X180164545Y-66630455D02*
X185420000Y-61375000D01*
D29*
X159140000Y-35820000D02*
X158475000Y-35820000D01*
X156850000Y-59050000D02*
X156845000Y-59055000D01*
X158475000Y-35820000D02*
X156850000Y-37445000D01*
X158250000Y-51435000D02*
X158750000Y-51435000D01*
X156850000Y-52835000D02*
X158250000Y-51435000D01*
X156850000Y-53920000D02*
X156850000Y-52835000D01*
X156850000Y-53920000D02*
X156850000Y-59050000D01*
X158430000Y-43695000D02*
X158930000Y-43695000D01*
X156850000Y-45275000D02*
X158430000Y-43695000D01*
X156850000Y-46420000D02*
X156850000Y-45275000D01*
X156850000Y-46420000D02*
X156850000Y-53920000D01*
X156850000Y-37445000D02*
X156850000Y-46420000D01*
D28*
G04 #@! TO.N,FTDI_VCC*
X158725000Y-67310000D02*
X156820000Y-65405000D01*
X163195000Y-67310000D02*
X158725000Y-67310000D01*
X150520000Y-65405000D02*
X156820000Y-65405000D01*
D30*
X165005000Y-39870000D02*
X165755000Y-39870000D01*
D29*
X165755000Y-49870000D02*
X165175000Y-49870000D01*
X165175000Y-49870000D02*
X164375000Y-50670000D01*
X164375000Y-50670000D02*
X164375000Y-57170000D01*
X164375000Y-57170000D02*
X166375000Y-59170000D01*
X166375000Y-59170000D02*
X166375000Y-60670000D01*
X166375000Y-65670000D02*
X166375000Y-66670000D01*
X165735000Y-67310000D02*
X163195000Y-67310000D01*
X166375000Y-66670000D02*
X165735000Y-67310000D01*
X165755000Y-49870000D02*
X166585002Y-49870000D01*
D30*
X162560000Y-32235000D02*
X162560000Y-32630000D01*
X162560000Y-32630000D02*
X163125000Y-33195000D01*
X163125000Y-33195000D02*
X163125000Y-37990000D01*
X163125000Y-37990000D02*
X165005000Y-39870000D01*
D31*
X166505000Y-49870000D02*
X165755000Y-49870000D01*
X185875000Y-43815000D02*
X184520000Y-43815000D01*
X184520000Y-43815000D02*
X183375000Y-42670000D01*
X168575000Y-39870000D02*
X171375000Y-42670000D01*
X165755000Y-39870000D02*
X168575000Y-39870000D01*
X171375000Y-45000000D02*
X169705000Y-46670000D01*
X171375000Y-42670000D02*
X171375000Y-45000000D01*
X169875000Y-46500000D02*
X169705000Y-46670000D01*
X169705000Y-46670000D02*
X166505000Y-49870000D01*
G04 #@! TO.N,Net-(J2-Pad4)*
X185025001Y-40425001D02*
X185875000Y-41275000D01*
X182470000Y-37870000D02*
X185025001Y-40425001D01*
X180955000Y-37870000D02*
X182470000Y-37870000D01*
G04 #@! TO.N,Net-(J2-Pad5)*
X183010000Y-35870000D02*
X185875000Y-38735000D01*
X180955000Y-35870000D02*
X183010000Y-35870000D01*
D29*
G04 #@! TO.N,/R*
X152540000Y-38100000D02*
X152840000Y-38100000D01*
D28*
X149375000Y-38100000D02*
X152840000Y-38100000D01*
X148375000Y-39100000D02*
X149375000Y-38100000D01*
X148375000Y-44912081D02*
X148375000Y-39100000D01*
X147577081Y-45710000D02*
X148375000Y-44912081D01*
X146375000Y-45710000D02*
X147577081Y-45710000D01*
D29*
G04 #@! TO.N,/G*
X150345000Y-48260000D02*
X152630000Y-45975000D01*
D28*
X150355000Y-48250000D02*
X152630000Y-45975000D01*
X146375000Y-48250000D02*
X150355000Y-48250000D01*
G04 #@! TO.N,/B*
X146375000Y-50790000D02*
X146375000Y-52170000D01*
X147920000Y-53715000D02*
X152450000Y-53715000D01*
X146375000Y-52170000D02*
X147920000Y-53715000D01*
D29*
G04 #@! TO.N,Net-(JP1-Pad1)*
X183515000Y-52705000D02*
X185420000Y-54610000D01*
X183515000Y-44560000D02*
X183515000Y-52705000D01*
X180955000Y-43870000D02*
X182825000Y-43870000D01*
X182825000Y-43870000D02*
X183515000Y-44560000D01*
D31*
G04 #@! TO.N,Net-(M1-Pad1)*
X161775000Y-30480000D02*
X162560000Y-31265000D01*
X159880000Y-30480000D02*
X161775000Y-30480000D01*
D30*
X164075000Y-35870000D02*
X165755000Y-35870000D01*
X163875000Y-35670000D02*
X164075000Y-35870000D01*
X163875000Y-31670000D02*
X163875000Y-35670000D01*
X163470000Y-31265000D02*
X163875000Y-31670000D01*
X162560000Y-31265000D02*
X163470000Y-31265000D01*
G04 #@! TO.N,GATE_R*
X165005000Y-41870000D02*
X165755000Y-41870000D01*
X163140000Y-40005000D02*
X165005000Y-41870000D01*
X161925000Y-40005000D02*
X163140000Y-40005000D01*
X161925000Y-40005000D02*
X161925000Y-37310000D01*
G04 #@! TO.N,GATE_G*
X165005000Y-43870000D02*
X165755000Y-43870000D01*
X163310000Y-45565000D02*
X165005000Y-43870000D01*
X161925000Y-45565000D02*
X163310000Y-45565000D01*
X161925000Y-47625000D02*
X161925000Y-45565000D01*
G04 #@! TO.N,GATE_B*
X162715000Y-53185000D02*
X161925000Y-53185000D01*
X163195000Y-52705000D02*
X162715000Y-53185000D01*
X163195000Y-46780000D02*
X163195000Y-52705000D01*
X165755000Y-45870000D02*
X164105000Y-45870000D01*
X164105000Y-45870000D02*
X163195000Y-46780000D01*
X161925000Y-55245000D02*
X161925000Y-53185000D01*
G04 #@! TO.N,Net-(Q1-Pad1)*
X159735000Y-40975000D02*
X159140000Y-40380000D01*
X161925000Y-40975000D02*
X159735000Y-40975000D01*
G04 #@! TO.N,Net-(Q2-Pad1)*
X159270000Y-48595000D02*
X158930000Y-48255000D01*
X161925000Y-48595000D02*
X159270000Y-48595000D01*
G04 #@! TO.N,Net-(Q3-Pad1)*
X158970000Y-56215000D02*
X158750000Y-55995000D01*
X161925000Y-56215000D02*
X158970000Y-56215000D01*
D31*
G04 #@! TO.N,Net-(J4-Pad1)*
X168375000Y-46000000D02*
X168375000Y-45170000D01*
X165755000Y-47870000D02*
X166505000Y-47870000D01*
X166505000Y-47870000D02*
X168375000Y-46000000D01*
G04 #@! TO.N,Net-(J5-Pad1)*
X179675000Y-39870000D02*
X180955000Y-39870000D01*
X171375000Y-48170000D02*
X179675000Y-39870000D01*
G04 #@! TO.N,Net-(J6-Pad1)*
X179675000Y-41870000D02*
X180955000Y-41870000D01*
X176875000Y-44670000D02*
X179675000Y-41870000D01*
G04 #@! TO.N,Net-(J7-Pad1)*
X180955000Y-45870000D02*
X179175000Y-45870000D01*
X179175000Y-45870000D02*
X178375000Y-46670000D01*
G04 #@! TD*
D32*
G04 #@! TO.N,GND*
G36*
X164248000Y-30862133D02*
X164118587Y-30732720D01*
X164072001Y-30662999D01*
X163795801Y-30478448D01*
X163552237Y-30430000D01*
X163552233Y-30430000D01*
X163470000Y-30413643D01*
X163387767Y-30430000D01*
X163106944Y-30430000D01*
X163036710Y-30383071D01*
X162991334Y-30374045D01*
X162501261Y-29883972D01*
X162449097Y-29805903D01*
X162139819Y-29599250D01*
X161867086Y-29545000D01*
X161775000Y-29526683D01*
X161682914Y-29545000D01*
X161613141Y-29545000D01*
X161557809Y-29462191D01*
X161347765Y-29321843D01*
X161100000Y-29272560D01*
X158660000Y-29272560D01*
X158412235Y-29321843D01*
X158202191Y-29462191D01*
X158061843Y-29672235D01*
X158012560Y-29920000D01*
X158012560Y-31040000D01*
X158061843Y-31287765D01*
X158202191Y-31497809D01*
X158412235Y-31638157D01*
X158660000Y-31687440D01*
X161100000Y-31687440D01*
X161347765Y-31638157D01*
X161505483Y-31532772D01*
X161644045Y-31671334D01*
X161653071Y-31716710D01*
X161675315Y-31750000D01*
X161653071Y-31783290D01*
X161592560Y-32087500D01*
X161592560Y-32382500D01*
X161653071Y-32686710D01*
X161748259Y-32829169D01*
X161773448Y-32955801D01*
X161958000Y-33232001D01*
X162027718Y-33278585D01*
X162290000Y-33540868D01*
X162290000Y-34400000D01*
X162210750Y-34400000D01*
X162052000Y-34558750D01*
X162052000Y-35433000D01*
X162072000Y-35433000D01*
X162072000Y-35687000D01*
X162052000Y-35687000D01*
X162052000Y-35707000D01*
X161798000Y-35707000D01*
X161798000Y-35687000D01*
X161778000Y-35687000D01*
X161778000Y-35433000D01*
X161798000Y-35433000D01*
X161798000Y-34558750D01*
X161639250Y-34400000D01*
X161323690Y-34400000D01*
X161090301Y-34496673D01*
X160911673Y-34675302D01*
X160815000Y-34908691D01*
X160815000Y-34948837D01*
X160778327Y-34860301D01*
X160599698Y-34681673D01*
X160366309Y-34585000D01*
X159425750Y-34585000D01*
X159267000Y-34743750D01*
X159267000Y-35693000D01*
X159287000Y-35693000D01*
X159287000Y-35947000D01*
X159267000Y-35947000D01*
X159267000Y-36896250D01*
X159425750Y-37055000D01*
X160366309Y-37055000D01*
X160599698Y-36958327D01*
X160778327Y-36779699D01*
X160875000Y-36546310D01*
X160875000Y-36356162D01*
X160911673Y-36444698D01*
X160982435Y-36515460D01*
X160869922Y-36683848D01*
X160802560Y-37022500D01*
X160802560Y-37597500D01*
X160869922Y-37936152D01*
X161061753Y-38223247D01*
X161090001Y-38242121D01*
X161090000Y-39445641D01*
X161018071Y-39553290D01*
X160957560Y-39857500D01*
X160957560Y-40140000D01*
X160887440Y-40140000D01*
X160887440Y-39780000D01*
X160838157Y-39532235D01*
X160697809Y-39322191D01*
X160487765Y-39181843D01*
X160240000Y-39132560D01*
X158040000Y-39132560D01*
X157792235Y-39181843D01*
X157582191Y-39322191D01*
X157441843Y-39532235D01*
X157392560Y-39780000D01*
X157392560Y-40980000D01*
X157441843Y-41227765D01*
X157582191Y-41437809D01*
X157792235Y-41578157D01*
X158040000Y-41627440D01*
X159208486Y-41627440D01*
X159409199Y-41761552D01*
X159652763Y-41810000D01*
X159652766Y-41810000D01*
X159734999Y-41826357D01*
X159817232Y-41810000D01*
X161378056Y-41810000D01*
X161448290Y-41856929D01*
X161752500Y-41917440D01*
X162097500Y-41917440D01*
X162401710Y-41856929D01*
X162659607Y-41684607D01*
X162831929Y-41426710D01*
X162892440Y-41122500D01*
X162892440Y-40938307D01*
X163857560Y-41903428D01*
X163857560Y-42370000D01*
X163906843Y-42617765D01*
X164047191Y-42827809D01*
X164110334Y-42870000D01*
X164047191Y-42912191D01*
X163906843Y-43122235D01*
X163857560Y-43370000D01*
X163857560Y-43836572D01*
X162964133Y-44730000D01*
X162908025Y-44730000D01*
X162938327Y-44699698D01*
X163035000Y-44466309D01*
X163035000Y-44100750D01*
X162876250Y-43942000D01*
X162052000Y-43942000D01*
X162052000Y-43962000D01*
X161798000Y-43962000D01*
X161798000Y-43942000D01*
X160973750Y-43942000D01*
X160815000Y-44100750D01*
X160815000Y-44466309D01*
X160911673Y-44699698D01*
X160982435Y-44770460D01*
X160869922Y-44938848D01*
X160802560Y-45277500D01*
X160802560Y-45852500D01*
X160869922Y-46191152D01*
X161061753Y-46478247D01*
X161090001Y-46497121D01*
X161090000Y-47065641D01*
X161018071Y-47173290D01*
X160957560Y-47477500D01*
X160957560Y-47760000D01*
X160677440Y-47760000D01*
X160677440Y-47655000D01*
X160628157Y-47407235D01*
X160487809Y-47197191D01*
X160277765Y-47056843D01*
X160030000Y-47007560D01*
X157830000Y-47007560D01*
X157582235Y-47056843D01*
X157372191Y-47197191D01*
X157231843Y-47407235D01*
X157182560Y-47655000D01*
X157182560Y-48855000D01*
X157231843Y-49102765D01*
X157372191Y-49312809D01*
X157582235Y-49453157D01*
X157830000Y-49502440D01*
X160030000Y-49502440D01*
X160277765Y-49453157D01*
X160312422Y-49430000D01*
X161378056Y-49430000D01*
X161448290Y-49476929D01*
X161752500Y-49537440D01*
X162097500Y-49537440D01*
X162360000Y-49485226D01*
X162360001Y-50275000D01*
X162210750Y-50275000D01*
X162052000Y-50433750D01*
X162052000Y-51308000D01*
X162072000Y-51308000D01*
X162072000Y-51562000D01*
X162052000Y-51562000D01*
X162052000Y-51582000D01*
X161798000Y-51582000D01*
X161798000Y-51562000D01*
X160973750Y-51562000D01*
X160815000Y-51720750D01*
X160815000Y-52086309D01*
X160911673Y-52319698D01*
X160982435Y-52390460D01*
X160869922Y-52558848D01*
X160802560Y-52897500D01*
X160802560Y-53472500D01*
X160869922Y-53811152D01*
X161061753Y-54098247D01*
X161090001Y-54117121D01*
X161090000Y-54685641D01*
X161018071Y-54793290D01*
X160957560Y-55097500D01*
X160957560Y-55380000D01*
X160494456Y-55380000D01*
X160448157Y-55147235D01*
X160307809Y-54937191D01*
X160097765Y-54796843D01*
X159850000Y-54747560D01*
X157650000Y-54747560D01*
X157402235Y-54796843D01*
X157192191Y-54937191D01*
X157051843Y-55147235D01*
X157002560Y-55395000D01*
X157002560Y-56595000D01*
X157051843Y-56842765D01*
X157192191Y-57052809D01*
X157402235Y-57193157D01*
X157650000Y-57242440D01*
X159850000Y-57242440D01*
X160097765Y-57193157D01*
X160307809Y-57052809D01*
X160309686Y-57050000D01*
X161378056Y-57050000D01*
X161448290Y-57096929D01*
X161752500Y-57157440D01*
X162097500Y-57157440D01*
X162401710Y-57096929D01*
X162659607Y-56924607D01*
X162831929Y-56666710D01*
X162892440Y-56362500D01*
X162892440Y-56067500D01*
X162831929Y-55763290D01*
X162809685Y-55730000D01*
X162831929Y-55696710D01*
X162892440Y-55392500D01*
X162892440Y-55097500D01*
X162831929Y-54793290D01*
X162760000Y-54685641D01*
X162760000Y-54117121D01*
X162788247Y-54098247D01*
X162847166Y-54010068D01*
X163040801Y-53971552D01*
X163317001Y-53787001D01*
X163340000Y-53752580D01*
X163340001Y-57068061D01*
X163319724Y-57170000D01*
X163400052Y-57573836D01*
X163483782Y-57699146D01*
X163628808Y-57916193D01*
X163715225Y-57973935D01*
X164166290Y-58425000D01*
X163480750Y-58425000D01*
X163322000Y-58583750D01*
X163322000Y-60683000D01*
X164921250Y-60683000D01*
X165080000Y-60524250D01*
X165080000Y-59338711D01*
X165340000Y-59598711D01*
X165340001Y-60464124D01*
X165340000Y-60464126D01*
X165340000Y-60875874D01*
X165379778Y-60971906D01*
X165400053Y-61073837D01*
X165457792Y-61160249D01*
X165497569Y-61256280D01*
X165571068Y-61329779D01*
X165628808Y-61416193D01*
X165715222Y-61473933D01*
X165788720Y-61547431D01*
X165884749Y-61587208D01*
X165971164Y-61644948D01*
X166073098Y-61665224D01*
X166169126Y-61705000D01*
X166273066Y-61705000D01*
X166375000Y-61725276D01*
X166476935Y-61705000D01*
X166580874Y-61705000D01*
X166676902Y-61665224D01*
X166778837Y-61644948D01*
X166865253Y-61587207D01*
X166961280Y-61547431D01*
X167034776Y-61473935D01*
X167121193Y-61416193D01*
X167178935Y-61329776D01*
X167252431Y-61256280D01*
X167292207Y-61160253D01*
X167349948Y-61073837D01*
X167370224Y-60971901D01*
X167410000Y-60875874D01*
X167410000Y-59271934D01*
X167430276Y-59169999D01*
X167349948Y-58766163D01*
X167247036Y-58612145D01*
X167121193Y-58423807D01*
X167034776Y-58366065D01*
X166088711Y-57420000D01*
X171477560Y-57420000D01*
X171477560Y-60920000D01*
X171526843Y-61167765D01*
X171667191Y-61377809D01*
X171877235Y-61518157D01*
X172125000Y-61567440D01*
X175625000Y-61567440D01*
X175872765Y-61518157D01*
X176082809Y-61377809D01*
X176194269Y-61210999D01*
X176177560Y-61295000D01*
X176177560Y-63045000D01*
X176293449Y-63627613D01*
X176623472Y-64121528D01*
X177117387Y-64451551D01*
X177700000Y-64567440D01*
X179450000Y-64567440D01*
X180032613Y-64451551D01*
X180526528Y-64121528D01*
X180856551Y-63627613D01*
X180972440Y-63045000D01*
X180972440Y-61295000D01*
X180856551Y-60712387D01*
X180526528Y-60218472D01*
X180032613Y-59888449D01*
X179450000Y-59772560D01*
X177700000Y-59772560D01*
X177117387Y-59888449D01*
X176623472Y-60218472D01*
X176293449Y-60712387D01*
X176272440Y-60818006D01*
X176272440Y-57506890D01*
X183978524Y-57506890D01*
X184148355Y-57916924D01*
X184538642Y-58345183D01*
X185063108Y-58591486D01*
X185293000Y-58470819D01*
X185293000Y-57277000D01*
X185547000Y-57277000D01*
X185547000Y-58470819D01*
X185776892Y-58591486D01*
X186301358Y-58345183D01*
X186691645Y-57916924D01*
X186861476Y-57506890D01*
X186740155Y-57277000D01*
X185547000Y-57277000D01*
X185293000Y-57277000D01*
X184099845Y-57277000D01*
X183978524Y-57506890D01*
X176272440Y-57506890D01*
X176272440Y-57420000D01*
X176223157Y-57172235D01*
X176082809Y-56962191D01*
X175872765Y-56821843D01*
X175625000Y-56772560D01*
X172125000Y-56772560D01*
X171877235Y-56821843D01*
X171667191Y-56962191D01*
X171526843Y-57172235D01*
X171477560Y-57420000D01*
X166088711Y-57420000D01*
X165410000Y-56741290D01*
X165410000Y-54320000D01*
X165877560Y-54320000D01*
X165877560Y-56020000D01*
X165926843Y-56267765D01*
X166067191Y-56477809D01*
X166277235Y-56618157D01*
X166525000Y-56667440D01*
X168225000Y-56667440D01*
X168472765Y-56618157D01*
X168682809Y-56477809D01*
X168823157Y-56267765D01*
X168872440Y-56020000D01*
X168872440Y-54320000D01*
X169377560Y-54320000D01*
X169377560Y-56020000D01*
X169426843Y-56267765D01*
X169567191Y-56477809D01*
X169777235Y-56618157D01*
X170025000Y-56667440D01*
X171725000Y-56667440D01*
X171972765Y-56618157D01*
X172182809Y-56477809D01*
X172323157Y-56267765D01*
X172372440Y-56020000D01*
X172372440Y-54320000D01*
X172877560Y-54320000D01*
X172877560Y-56020000D01*
X172926843Y-56267765D01*
X173067191Y-56477809D01*
X173277235Y-56618157D01*
X173525000Y-56667440D01*
X175225000Y-56667440D01*
X175472765Y-56618157D01*
X175682809Y-56477809D01*
X175823157Y-56267765D01*
X175872440Y-56020000D01*
X175872440Y-54320000D01*
X176377560Y-54320000D01*
X176377560Y-56020000D01*
X176426843Y-56267765D01*
X176567191Y-56477809D01*
X176777235Y-56618157D01*
X177025000Y-56667440D01*
X178725000Y-56667440D01*
X178972765Y-56618157D01*
X179182809Y-56477809D01*
X179323157Y-56267765D01*
X179372440Y-56020000D01*
X179372440Y-54320000D01*
X179323157Y-54072235D01*
X179182809Y-53862191D01*
X178972765Y-53721843D01*
X178725000Y-53672560D01*
X177025000Y-53672560D01*
X176777235Y-53721843D01*
X176567191Y-53862191D01*
X176426843Y-54072235D01*
X176377560Y-54320000D01*
X175872440Y-54320000D01*
X175823157Y-54072235D01*
X175682809Y-53862191D01*
X175472765Y-53721843D01*
X175225000Y-53672560D01*
X173525000Y-53672560D01*
X173277235Y-53721843D01*
X173067191Y-53862191D01*
X172926843Y-54072235D01*
X172877560Y-54320000D01*
X172372440Y-54320000D01*
X172323157Y-54072235D01*
X172182809Y-53862191D01*
X171972765Y-53721843D01*
X171725000Y-53672560D01*
X170025000Y-53672560D01*
X169777235Y-53721843D01*
X169567191Y-53862191D01*
X169426843Y-54072235D01*
X169377560Y-54320000D01*
X168872440Y-54320000D01*
X168823157Y-54072235D01*
X168682809Y-53862191D01*
X168472765Y-53721843D01*
X168225000Y-53672560D01*
X166525000Y-53672560D01*
X166277235Y-53721843D01*
X166067191Y-53862191D01*
X165926843Y-54072235D01*
X165877560Y-54320000D01*
X165410000Y-54320000D01*
X165410000Y-51098710D01*
X165491270Y-51017440D01*
X167005000Y-51017440D01*
X167207560Y-50977149D01*
X167207560Y-52270000D01*
X167256843Y-52517765D01*
X167397191Y-52727809D01*
X167607235Y-52868157D01*
X167855000Y-52917440D01*
X168855000Y-52917440D01*
X169102765Y-52868157D01*
X169312809Y-52727809D01*
X169355000Y-52664666D01*
X169397191Y-52727809D01*
X169607235Y-52868157D01*
X169855000Y-52917440D01*
X170855000Y-52917440D01*
X171102765Y-52868157D01*
X171312809Y-52727809D01*
X171355000Y-52664666D01*
X171397191Y-52727809D01*
X171607235Y-52868157D01*
X171855000Y-52917440D01*
X172855000Y-52917440D01*
X173102765Y-52868157D01*
X173312809Y-52727809D01*
X173355000Y-52664666D01*
X173397191Y-52727809D01*
X173607235Y-52868157D01*
X173855000Y-52917440D01*
X174855000Y-52917440D01*
X175102765Y-52868157D01*
X175312809Y-52727809D01*
X175355000Y-52664666D01*
X175397191Y-52727809D01*
X175607235Y-52868157D01*
X175855000Y-52917440D01*
X176855000Y-52917440D01*
X177102765Y-52868157D01*
X177312809Y-52727809D01*
X177355000Y-52664666D01*
X177397191Y-52727809D01*
X177607235Y-52868157D01*
X177855000Y-52917440D01*
X178855000Y-52917440D01*
X179102765Y-52868157D01*
X179312809Y-52727809D01*
X179453157Y-52517765D01*
X179502440Y-52270000D01*
X179502440Y-50973416D01*
X179578691Y-51005000D01*
X180669250Y-51005000D01*
X180828000Y-50846250D01*
X180828000Y-49997000D01*
X180808000Y-49997000D01*
X180808000Y-49743000D01*
X180828000Y-49743000D01*
X180828000Y-48893750D01*
X180804250Y-48870000D01*
X180828000Y-48846250D01*
X180828000Y-47997000D01*
X179228750Y-47997000D01*
X179070000Y-48155750D01*
X179070000Y-48496310D01*
X179166673Y-48729699D01*
X179306975Y-48870000D01*
X179166673Y-49010301D01*
X179070000Y-49243690D01*
X179070000Y-49584250D01*
X179228748Y-49742998D01*
X179070000Y-49742998D01*
X179070000Y-49865326D01*
X178855000Y-49822560D01*
X177855000Y-49822560D01*
X177607235Y-49871843D01*
X177397191Y-50012191D01*
X177355000Y-50075334D01*
X177312809Y-50012191D01*
X177102765Y-49871843D01*
X176855000Y-49822560D01*
X175855000Y-49822560D01*
X175607235Y-49871843D01*
X175397191Y-50012191D01*
X175355000Y-50075334D01*
X175312809Y-50012191D01*
X175102765Y-49871843D01*
X174855000Y-49822560D01*
X173855000Y-49822560D01*
X173607235Y-49871843D01*
X173397191Y-50012191D01*
X173355000Y-50075334D01*
X173312809Y-50012191D01*
X173102765Y-49871843D01*
X172855000Y-49822560D01*
X171855000Y-49822560D01*
X171607235Y-49871843D01*
X171397191Y-50012191D01*
X171355000Y-50075334D01*
X171312809Y-50012191D01*
X171102765Y-49871843D01*
X170855000Y-49822560D01*
X169855000Y-49822560D01*
X169607235Y-49871843D01*
X169397191Y-50012191D01*
X169355000Y-50075334D01*
X169312809Y-50012191D01*
X169102765Y-49871843D01*
X168855000Y-49822560D01*
X167874729Y-49822560D01*
X170431259Y-47266031D01*
X170431261Y-47266028D01*
X171971028Y-45726261D01*
X172049097Y-45674097D01*
X172255750Y-45364819D01*
X172310000Y-45092086D01*
X172328317Y-45000000D01*
X172310000Y-44907914D01*
X172310000Y-43117296D01*
X172410000Y-42875874D01*
X172410000Y-42464126D01*
X172252431Y-42083720D01*
X171961280Y-41792569D01*
X171719859Y-41692570D01*
X169301261Y-39273972D01*
X169249097Y-39195903D01*
X168939819Y-38989250D01*
X168667086Y-38935000D01*
X168575000Y-38916683D01*
X168482914Y-38935000D01*
X167478050Y-38935000D01*
X167462809Y-38912191D01*
X167399666Y-38870000D01*
X167462809Y-38827809D01*
X167603157Y-38617765D01*
X167652440Y-38370000D01*
X167652440Y-37370000D01*
X167603157Y-37122235D01*
X167462809Y-36912191D01*
X167399666Y-36870000D01*
X167462809Y-36827809D01*
X167603157Y-36617765D01*
X167652440Y-36370000D01*
X167652440Y-35370000D01*
X167603157Y-35122235D01*
X167462809Y-34912191D01*
X167290415Y-34797000D01*
X179419585Y-34797000D01*
X179247191Y-34912191D01*
X179106843Y-35122235D01*
X179057560Y-35370000D01*
X179057560Y-36370000D01*
X179106843Y-36617765D01*
X179247191Y-36827809D01*
X179310334Y-36870000D01*
X179247191Y-36912191D01*
X179106843Y-37122235D01*
X179057560Y-37370000D01*
X179057560Y-38370000D01*
X179106843Y-38617765D01*
X179247191Y-38827809D01*
X179310334Y-38870000D01*
X179247191Y-38912191D01*
X179106843Y-39122235D01*
X179106182Y-39125558D01*
X179000903Y-39195903D01*
X178948739Y-39273972D01*
X171030142Y-47192569D01*
X170788720Y-47292569D01*
X170497569Y-47583720D01*
X170340000Y-47964126D01*
X170340000Y-48375874D01*
X170497569Y-48756280D01*
X170788720Y-49047431D01*
X171169126Y-49205000D01*
X171580874Y-49205000D01*
X171961280Y-49047431D01*
X172252431Y-48756280D01*
X172352431Y-48514858D01*
X175884348Y-44982941D01*
X175997569Y-45256280D01*
X176288720Y-45547431D01*
X176669126Y-45705000D01*
X177080874Y-45705000D01*
X177461280Y-45547431D01*
X177752431Y-45256280D01*
X177852431Y-45014858D01*
X179057560Y-43809730D01*
X179057560Y-44370000D01*
X179106843Y-44617765D01*
X179247191Y-44827809D01*
X179310334Y-44870000D01*
X179247191Y-44912191D01*
X179236072Y-44928831D01*
X179175000Y-44916683D01*
X179082914Y-44935000D01*
X178810181Y-44989250D01*
X178500903Y-45195903D01*
X178448741Y-45273970D01*
X178030141Y-45692569D01*
X177788720Y-45792569D01*
X177497569Y-46083720D01*
X177340000Y-46464126D01*
X177340000Y-46875874D01*
X177497569Y-47256280D01*
X177788720Y-47547431D01*
X178169126Y-47705000D01*
X178580874Y-47705000D01*
X178961280Y-47547431D01*
X179070000Y-47438711D01*
X179070000Y-47584250D01*
X179228750Y-47743000D01*
X180828000Y-47743000D01*
X180828000Y-47723000D01*
X181082000Y-47723000D01*
X181082000Y-47743000D01*
X181102000Y-47743000D01*
X181102000Y-47997000D01*
X181082000Y-47997000D01*
X181082000Y-48846250D01*
X181105750Y-48870000D01*
X181082000Y-48893750D01*
X181082000Y-49743000D01*
X181102000Y-49743000D01*
X181102000Y-49997000D01*
X181082000Y-49997000D01*
X181082000Y-50846250D01*
X181240750Y-51005000D01*
X182331309Y-51005000D01*
X182480001Y-50943410D01*
X182480001Y-52603061D01*
X182459724Y-52705000D01*
X182540052Y-53108836D01*
X182575470Y-53161843D01*
X182768808Y-53451193D01*
X182855225Y-53508935D01*
X183922560Y-54576271D01*
X183922560Y-55460000D01*
X183971843Y-55707765D01*
X184112191Y-55917809D01*
X184322235Y-56058157D01*
X184425708Y-56078739D01*
X184148355Y-56383076D01*
X183978524Y-56793110D01*
X184099845Y-57023000D01*
X185293000Y-57023000D01*
X185293000Y-57003000D01*
X185547000Y-57003000D01*
X185547000Y-57023000D01*
X186740155Y-57023000D01*
X186861476Y-56793110D01*
X186691645Y-56383076D01*
X186414292Y-56078739D01*
X186517765Y-56058157D01*
X186727809Y-55917809D01*
X186868157Y-55707765D01*
X186917440Y-55460000D01*
X186917440Y-53760000D01*
X186868157Y-53512235D01*
X186727809Y-53302191D01*
X186517765Y-53161843D01*
X186270000Y-53112560D01*
X185386271Y-53112560D01*
X184550000Y-52276290D01*
X184550000Y-50168026D01*
X184665302Y-50283327D01*
X184898691Y-50380000D01*
X185589250Y-50380000D01*
X185748000Y-50221250D01*
X185748000Y-49022000D01*
X186002000Y-49022000D01*
X186002000Y-50221250D01*
X186160750Y-50380000D01*
X186851309Y-50380000D01*
X187084698Y-50283327D01*
X187263327Y-50104699D01*
X187360000Y-49871310D01*
X187360000Y-49180750D01*
X187201250Y-49022000D01*
X186002000Y-49022000D01*
X185748000Y-49022000D01*
X185728000Y-49022000D01*
X185728000Y-48768000D01*
X185748000Y-48768000D01*
X185748000Y-48748000D01*
X186002000Y-48748000D01*
X186002000Y-48768000D01*
X187201250Y-48768000D01*
X187360000Y-48609250D01*
X187360000Y-47918690D01*
X187263327Y-47685301D01*
X187084698Y-47506673D01*
X186923967Y-47440096D01*
X186945625Y-47425625D01*
X187273839Y-46934418D01*
X187389092Y-46355000D01*
X187273839Y-45775582D01*
X186945625Y-45284375D01*
X186647239Y-45085000D01*
X186945625Y-44885625D01*
X187273839Y-44394418D01*
X187389092Y-43815000D01*
X187273839Y-43235582D01*
X186945625Y-42744375D01*
X186647239Y-42545000D01*
X186945625Y-42345625D01*
X187273839Y-41854418D01*
X187389092Y-41275000D01*
X187273839Y-40695582D01*
X186945625Y-40204375D01*
X186647239Y-40005000D01*
X186945625Y-39805625D01*
X187273839Y-39314418D01*
X187389092Y-38735000D01*
X187273839Y-38155582D01*
X186945625Y-37664375D01*
X186647239Y-37465000D01*
X186945625Y-37265625D01*
X187273839Y-36774418D01*
X187389092Y-36195000D01*
X187273839Y-35615582D01*
X186945625Y-35124375D01*
X186454418Y-34796161D01*
X186021256Y-34710000D01*
X185728744Y-34710000D01*
X185295582Y-34796161D01*
X184804375Y-35124375D01*
X184476161Y-35615582D01*
X184410081Y-35947791D01*
X183736261Y-35273972D01*
X183684097Y-35195903D01*
X183374819Y-34989250D01*
X183102086Y-34935000D01*
X183010000Y-34916683D01*
X182917914Y-34935000D01*
X182678050Y-34935000D01*
X182662809Y-34912191D01*
X182452765Y-34771843D01*
X182448156Y-34770926D01*
X182464803Y-34759803D01*
X182492333Y-34718601D01*
X182502000Y-34670000D01*
X182502000Y-29821151D01*
X183172455Y-29821151D01*
X183178206Y-30553402D01*
X183420836Y-31244311D01*
X183874182Y-31819377D01*
X184489360Y-32216593D01*
X185200036Y-32393126D01*
X185929578Y-32329940D01*
X186599321Y-32033850D01*
X187137046Y-31536783D01*
X187484770Y-30892336D01*
X187605000Y-30170000D01*
X187604725Y-30134973D01*
X187473164Y-29414614D01*
X187115360Y-28775709D01*
X186569894Y-28287149D01*
X185895583Y-28001615D01*
X185165138Y-27949897D01*
X184457323Y-28137571D01*
X183848460Y-28544400D01*
X183404203Y-29126517D01*
X183172455Y-29821151D01*
X182502000Y-29821151D01*
X182502000Y-27380000D01*
X185760910Y-27380000D01*
X187885001Y-29504092D01*
X187885000Y-67015909D01*
X185760910Y-69140000D01*
X165026798Y-69140000D01*
X165092440Y-68810000D01*
X165092440Y-68345000D01*
X165633066Y-68345000D01*
X165735000Y-68365276D01*
X165836934Y-68345000D01*
X165836935Y-68345000D01*
X166138837Y-68284948D01*
X166481193Y-68056193D01*
X166538937Y-67969773D01*
X167034773Y-67473937D01*
X167121193Y-67416193D01*
X167349948Y-67073837D01*
X167410000Y-66771935D01*
X167430276Y-66670000D01*
X167410000Y-66568066D01*
X167410000Y-65464126D01*
X167406531Y-65455750D01*
X171490000Y-65455750D01*
X171490000Y-66796309D01*
X171586673Y-67029698D01*
X171765301Y-67208327D01*
X171998690Y-67305000D01*
X173589250Y-67305000D01*
X173748000Y-67146250D01*
X173748000Y-65297000D01*
X174002000Y-65297000D01*
X174002000Y-67146250D01*
X174160750Y-67305000D01*
X175751310Y-67305000D01*
X175984699Y-67208327D01*
X176163327Y-67029698D01*
X176260000Y-66796309D01*
X176260000Y-65821151D01*
X183172455Y-65821151D01*
X183178206Y-66553402D01*
X183420836Y-67244311D01*
X183874182Y-67819377D01*
X184489360Y-68216593D01*
X185200036Y-68393126D01*
X185929578Y-68329940D01*
X186599321Y-68033850D01*
X187137046Y-67536783D01*
X187484770Y-66892336D01*
X187605000Y-66170000D01*
X187604725Y-66134973D01*
X187473164Y-65414614D01*
X187115360Y-64775709D01*
X186569894Y-64287149D01*
X185895583Y-64001615D01*
X185165138Y-63949897D01*
X184457323Y-64137571D01*
X183848460Y-64544400D01*
X183404203Y-65126517D01*
X183172455Y-65821151D01*
X176260000Y-65821151D01*
X176260000Y-65455750D01*
X176101250Y-65297000D01*
X174002000Y-65297000D01*
X173748000Y-65297000D01*
X171648750Y-65297000D01*
X171490000Y-65455750D01*
X167406531Y-65455750D01*
X167370224Y-65368099D01*
X167349948Y-65266163D01*
X167292207Y-65179747D01*
X167252431Y-65083720D01*
X167178935Y-65010224D01*
X167121193Y-64923807D01*
X167034777Y-64866066D01*
X166961280Y-64792569D01*
X166865251Y-64752793D01*
X166778836Y-64695052D01*
X166676902Y-64674776D01*
X166580874Y-64635000D01*
X166476934Y-64635000D01*
X166375000Y-64614724D01*
X166273065Y-64635000D01*
X166169126Y-64635000D01*
X166073098Y-64674776D01*
X165971163Y-64695052D01*
X165884747Y-64752793D01*
X165788720Y-64792569D01*
X165715224Y-64866065D01*
X165628807Y-64923807D01*
X165571066Y-65010223D01*
X165497569Y-65083720D01*
X165457793Y-65179749D01*
X165400052Y-65266164D01*
X165379776Y-65368098D01*
X165340000Y-65464126D01*
X165340000Y-65568066D01*
X165340001Y-66241289D01*
X165306290Y-66275000D01*
X165092440Y-66275000D01*
X165092440Y-65810000D01*
X165024126Y-65466565D01*
X164829586Y-65175414D01*
X164538435Y-64980874D01*
X164195000Y-64912560D01*
X162195000Y-64912560D01*
X161851565Y-64980874D01*
X161560414Y-65175414D01*
X161365874Y-65466565D01*
X161297560Y-65810000D01*
X161297560Y-66175000D01*
X159195132Y-66175000D01*
X158467440Y-65447309D01*
X158467440Y-63543691D01*
X171490000Y-63543691D01*
X171490000Y-64884250D01*
X171648750Y-65043000D01*
X173748000Y-65043000D01*
X173748000Y-63193750D01*
X174002000Y-63193750D01*
X174002000Y-65043000D01*
X176101250Y-65043000D01*
X176260000Y-64884250D01*
X176260000Y-63543691D01*
X176163327Y-63310302D01*
X175984699Y-63131673D01*
X175751310Y-63035000D01*
X174160750Y-63035000D01*
X174002000Y-63193750D01*
X173748000Y-63193750D01*
X173589250Y-63035000D01*
X171998690Y-63035000D01*
X171765301Y-63131673D01*
X171586673Y-63310302D01*
X171490000Y-63543691D01*
X158467440Y-63543691D01*
X158467440Y-63505000D01*
X158418157Y-63257235D01*
X158277809Y-63047191D01*
X158067765Y-62906843D01*
X157820000Y-62857560D01*
X155820000Y-62857560D01*
X155572235Y-62906843D01*
X155362191Y-63047191D01*
X155221843Y-63257235D01*
X155172560Y-63505000D01*
X155172560Y-64270000D01*
X152026459Y-64270000D01*
X152017073Y-64255953D01*
X152058327Y-64214699D01*
X152155000Y-63981310D01*
X152155000Y-63390750D01*
X151996250Y-63232000D01*
X150647000Y-63232000D01*
X150647000Y-63252000D01*
X150393000Y-63252000D01*
X150393000Y-63232000D01*
X150373000Y-63232000D01*
X150373000Y-62978000D01*
X150393000Y-62978000D01*
X150393000Y-61878750D01*
X150647000Y-61878750D01*
X150647000Y-62978000D01*
X151996250Y-62978000D01*
X152155000Y-62819250D01*
X152155000Y-62228690D01*
X152058327Y-61995301D01*
X151879698Y-61816673D01*
X151646309Y-61720000D01*
X150805750Y-61720000D01*
X150647000Y-61878750D01*
X150393000Y-61878750D01*
X150234250Y-61720000D01*
X149751210Y-61720000D01*
X150375460Y-61095750D01*
X161310000Y-61095750D01*
X161310000Y-62686309D01*
X161406673Y-62919698D01*
X161585301Y-63098327D01*
X161818690Y-63195000D01*
X162909250Y-63195000D01*
X163068000Y-63036250D01*
X163068000Y-60937000D01*
X163322000Y-60937000D01*
X163322000Y-63036250D01*
X163480750Y-63195000D01*
X164571310Y-63195000D01*
X164804699Y-63098327D01*
X164983327Y-62919698D01*
X165080000Y-62686309D01*
X165080000Y-61095750D01*
X164921250Y-60937000D01*
X163322000Y-60937000D01*
X163068000Y-60937000D01*
X161468750Y-60937000D01*
X161310000Y-61095750D01*
X150375460Y-61095750D01*
X150961584Y-60509627D01*
X151302500Y-60577440D01*
X152227500Y-60577440D01*
X152570935Y-60509126D01*
X152862086Y-60314586D01*
X153056626Y-60023435D01*
X153124940Y-59680000D01*
X153124940Y-59340750D01*
X153392500Y-59340750D01*
X153392500Y-60056310D01*
X153489173Y-60289699D01*
X153667802Y-60468327D01*
X153901191Y-60565000D01*
X154454250Y-60565000D01*
X154613000Y-60406250D01*
X154613000Y-59182000D01*
X154867000Y-59182000D01*
X154867000Y-60406250D01*
X155025750Y-60565000D01*
X155578809Y-60565000D01*
X155812198Y-60468327D01*
X155990827Y-60289699D01*
X156087500Y-60056310D01*
X156087500Y-59340750D01*
X155928750Y-59182000D01*
X154867000Y-59182000D01*
X154613000Y-59182000D01*
X153551250Y-59182000D01*
X153392500Y-59340750D01*
X153124940Y-59340750D01*
X153124940Y-58933691D01*
X161310000Y-58933691D01*
X161310000Y-60524250D01*
X161468750Y-60683000D01*
X163068000Y-60683000D01*
X163068000Y-58583750D01*
X162909250Y-58425000D01*
X161818690Y-58425000D01*
X161585301Y-58521673D01*
X161406673Y-58700302D01*
X161310000Y-58933691D01*
X153124940Y-58933691D01*
X153124940Y-58430000D01*
X153056626Y-58086565D01*
X153034660Y-58053690D01*
X153392500Y-58053690D01*
X153392500Y-58769250D01*
X153551250Y-58928000D01*
X154613000Y-58928000D01*
X154613000Y-57703750D01*
X154867000Y-57703750D01*
X154867000Y-58928000D01*
X155928750Y-58928000D01*
X156087500Y-58769250D01*
X156087500Y-58053690D01*
X155990827Y-57820301D01*
X155812198Y-57641673D01*
X155578809Y-57545000D01*
X155025750Y-57545000D01*
X154867000Y-57703750D01*
X154613000Y-57703750D01*
X154454250Y-57545000D01*
X153901191Y-57545000D01*
X153667802Y-57641673D01*
X153489173Y-57820301D01*
X153392500Y-58053690D01*
X153034660Y-58053690D01*
X152862086Y-57795414D01*
X152570935Y-57600874D01*
X152227500Y-57532560D01*
X151302500Y-57532560D01*
X150959065Y-57600874D01*
X150667914Y-57795414D01*
X150584669Y-57920000D01*
X149230132Y-57920000D01*
X148716612Y-57406481D01*
X148653289Y-57311711D01*
X148277855Y-57060854D01*
X147946783Y-56995000D01*
X147835000Y-56972765D01*
X147723217Y-56995000D01*
X146849281Y-56995000D01*
X146454418Y-56731161D01*
X146021256Y-56645000D01*
X145995132Y-56645000D01*
X145510000Y-56159869D01*
X145510000Y-52918380D01*
X145556712Y-52988289D01*
X145651480Y-53051611D01*
X147038389Y-54438521D01*
X147101711Y-54533289D01*
X147422390Y-54747560D01*
X147477145Y-54784146D01*
X147920000Y-54872235D01*
X148031783Y-54850000D01*
X148602560Y-54850000D01*
X148602560Y-56615000D01*
X148651843Y-56862765D01*
X148792191Y-57072809D01*
X149002235Y-57213157D01*
X149250000Y-57262440D01*
X155650000Y-57262440D01*
X155897765Y-57213157D01*
X156107809Y-57072809D01*
X156248157Y-56862765D01*
X156297440Y-56615000D01*
X156297440Y-51720750D01*
X157015000Y-51720750D01*
X157015000Y-52161310D01*
X157111673Y-52394699D01*
X157290302Y-52573327D01*
X157523691Y-52670000D01*
X158464250Y-52670000D01*
X158623000Y-52511250D01*
X158623000Y-51562000D01*
X158877000Y-51562000D01*
X158877000Y-52511250D01*
X159035750Y-52670000D01*
X159976309Y-52670000D01*
X160209698Y-52573327D01*
X160388327Y-52394699D01*
X160485000Y-52161310D01*
X160485000Y-51720750D01*
X160326250Y-51562000D01*
X158877000Y-51562000D01*
X158623000Y-51562000D01*
X157173750Y-51562000D01*
X157015000Y-51720750D01*
X156297440Y-51720750D01*
X156297440Y-50815000D01*
X156276294Y-50708690D01*
X157015000Y-50708690D01*
X157015000Y-51149250D01*
X157173750Y-51308000D01*
X158623000Y-51308000D01*
X158623000Y-50358750D01*
X158877000Y-50358750D01*
X158877000Y-51308000D01*
X160326250Y-51308000D01*
X160485000Y-51149250D01*
X160485000Y-50783691D01*
X160815000Y-50783691D01*
X160815000Y-51149250D01*
X160973750Y-51308000D01*
X161798000Y-51308000D01*
X161798000Y-50433750D01*
X161639250Y-50275000D01*
X161323690Y-50275000D01*
X161090301Y-50371673D01*
X160911673Y-50550302D01*
X160815000Y-50783691D01*
X160485000Y-50783691D01*
X160485000Y-50708690D01*
X160388327Y-50475301D01*
X160209698Y-50296673D01*
X159976309Y-50200000D01*
X159035750Y-50200000D01*
X158877000Y-50358750D01*
X158623000Y-50358750D01*
X158464250Y-50200000D01*
X157523691Y-50200000D01*
X157290302Y-50296673D01*
X157111673Y-50475301D01*
X157015000Y-50708690D01*
X156276294Y-50708690D01*
X156248157Y-50567235D01*
X156107809Y-50357191D01*
X155897765Y-50216843D01*
X155650000Y-50167560D01*
X149250000Y-50167560D01*
X149002235Y-50216843D01*
X148792191Y-50357191D01*
X148651843Y-50567235D01*
X148602560Y-50815000D01*
X148602560Y-52580000D01*
X148390132Y-52580000D01*
X147535800Y-51725669D01*
X147773839Y-51369418D01*
X147889092Y-50790000D01*
X147773839Y-50210582D01*
X147445625Y-49719375D01*
X147147239Y-49520000D01*
X147349281Y-49385000D01*
X149050300Y-49385000D01*
X149182235Y-49473157D01*
X149430000Y-49522440D01*
X155830000Y-49522440D01*
X156077765Y-49473157D01*
X156287809Y-49332809D01*
X156428157Y-49122765D01*
X156477440Y-48875000D01*
X156477440Y-43980750D01*
X157195000Y-43980750D01*
X157195000Y-44421310D01*
X157291673Y-44654699D01*
X157470302Y-44833327D01*
X157703691Y-44930000D01*
X158644250Y-44930000D01*
X158803000Y-44771250D01*
X158803000Y-43822000D01*
X159057000Y-43822000D01*
X159057000Y-44771250D01*
X159215750Y-44930000D01*
X160156309Y-44930000D01*
X160389698Y-44833327D01*
X160568327Y-44654699D01*
X160665000Y-44421310D01*
X160665000Y-43980750D01*
X160506250Y-43822000D01*
X159057000Y-43822000D01*
X158803000Y-43822000D01*
X157353750Y-43822000D01*
X157195000Y-43980750D01*
X156477440Y-43980750D01*
X156477440Y-43075000D01*
X156456294Y-42968690D01*
X157195000Y-42968690D01*
X157195000Y-43409250D01*
X157353750Y-43568000D01*
X158803000Y-43568000D01*
X158803000Y-42618750D01*
X159057000Y-42618750D01*
X159057000Y-43568000D01*
X160506250Y-43568000D01*
X160665000Y-43409250D01*
X160665000Y-43163691D01*
X160815000Y-43163691D01*
X160815000Y-43529250D01*
X160973750Y-43688000D01*
X161798000Y-43688000D01*
X161798000Y-42813750D01*
X162052000Y-42813750D01*
X162052000Y-43688000D01*
X162876250Y-43688000D01*
X163035000Y-43529250D01*
X163035000Y-43163691D01*
X162938327Y-42930302D01*
X162759699Y-42751673D01*
X162526310Y-42655000D01*
X162210750Y-42655000D01*
X162052000Y-42813750D01*
X161798000Y-42813750D01*
X161639250Y-42655000D01*
X161323690Y-42655000D01*
X161090301Y-42751673D01*
X160911673Y-42930302D01*
X160815000Y-43163691D01*
X160665000Y-43163691D01*
X160665000Y-42968690D01*
X160568327Y-42735301D01*
X160389698Y-42556673D01*
X160156309Y-42460000D01*
X159215750Y-42460000D01*
X159057000Y-42618750D01*
X158803000Y-42618750D01*
X158644250Y-42460000D01*
X157703691Y-42460000D01*
X157470302Y-42556673D01*
X157291673Y-42735301D01*
X157195000Y-42968690D01*
X156456294Y-42968690D01*
X156428157Y-42827235D01*
X156287809Y-42617191D01*
X156077765Y-42476843D01*
X155830000Y-42427560D01*
X149510000Y-42427560D01*
X149510000Y-41621582D01*
X149640000Y-41647440D01*
X156040000Y-41647440D01*
X156287765Y-41598157D01*
X156497809Y-41457809D01*
X156638157Y-41247765D01*
X156687440Y-41000000D01*
X156687440Y-36105750D01*
X157405000Y-36105750D01*
X157405000Y-36546310D01*
X157501673Y-36779699D01*
X157680302Y-36958327D01*
X157913691Y-37055000D01*
X158854250Y-37055000D01*
X159013000Y-36896250D01*
X159013000Y-35947000D01*
X157563750Y-35947000D01*
X157405000Y-36105750D01*
X156687440Y-36105750D01*
X156687440Y-35200000D01*
X156666294Y-35093690D01*
X157405000Y-35093690D01*
X157405000Y-35534250D01*
X157563750Y-35693000D01*
X159013000Y-35693000D01*
X159013000Y-34743750D01*
X158854250Y-34585000D01*
X157913691Y-34585000D01*
X157680302Y-34681673D01*
X157501673Y-34860301D01*
X157405000Y-35093690D01*
X156666294Y-35093690D01*
X156638157Y-34952235D01*
X156497809Y-34742191D01*
X156287765Y-34601843D01*
X156040000Y-34552560D01*
X149640000Y-34552560D01*
X149392235Y-34601843D01*
X149182191Y-34742191D01*
X149041843Y-34952235D01*
X148992560Y-35200000D01*
X148992560Y-37018837D01*
X148932145Y-37030854D01*
X148556711Y-37281711D01*
X148493391Y-37376477D01*
X147651479Y-38218390D01*
X147556712Y-38281711D01*
X147433554Y-38466030D01*
X147305854Y-38657146D01*
X147217765Y-39100000D01*
X147240001Y-39211788D01*
X147240001Y-41675544D01*
X147225000Y-41672560D01*
X145525000Y-41672560D01*
X145277235Y-41721843D01*
X145067191Y-41862191D01*
X144926843Y-42072235D01*
X144919465Y-42109326D01*
X144556711Y-42351711D01*
X144493391Y-42446477D01*
X143651479Y-43288390D01*
X143585000Y-43332810D01*
X143585000Y-29821151D01*
X144172455Y-29821151D01*
X144178206Y-30553402D01*
X144420836Y-31244311D01*
X144874182Y-31819377D01*
X145489360Y-32216593D01*
X146200036Y-32393126D01*
X146929578Y-32329940D01*
X147599321Y-32033850D01*
X148137046Y-31536783D01*
X148484770Y-30892336D01*
X148505839Y-30765750D01*
X149415000Y-30765750D01*
X149415000Y-31166310D01*
X149511673Y-31399699D01*
X149690302Y-31578327D01*
X149923691Y-31675000D01*
X150984250Y-31675000D01*
X151143000Y-31516250D01*
X151143000Y-30607000D01*
X151397000Y-30607000D01*
X151397000Y-31516250D01*
X151555750Y-31675000D01*
X152616309Y-31675000D01*
X152849698Y-31578327D01*
X153028327Y-31399699D01*
X153125000Y-31166310D01*
X153125000Y-30765750D01*
X152966250Y-30607000D01*
X151397000Y-30607000D01*
X151143000Y-30607000D01*
X149573750Y-30607000D01*
X149415000Y-30765750D01*
X148505839Y-30765750D01*
X148605000Y-30170000D01*
X148604725Y-30134973D01*
X148542396Y-29793690D01*
X149415000Y-29793690D01*
X149415000Y-30194250D01*
X149573750Y-30353000D01*
X151143000Y-30353000D01*
X151143000Y-29443750D01*
X151397000Y-29443750D01*
X151397000Y-30353000D01*
X152966250Y-30353000D01*
X153125000Y-30194250D01*
X153125000Y-29793690D01*
X153028327Y-29560301D01*
X152849698Y-29381673D01*
X152616309Y-29285000D01*
X151555750Y-29285000D01*
X151397000Y-29443750D01*
X151143000Y-29443750D01*
X150984250Y-29285000D01*
X149923691Y-29285000D01*
X149690302Y-29381673D01*
X149511673Y-29560301D01*
X149415000Y-29793690D01*
X148542396Y-29793690D01*
X148473164Y-29414614D01*
X148115360Y-28775709D01*
X147569894Y-28287149D01*
X146895583Y-28001615D01*
X146165138Y-27949897D01*
X145457323Y-28137571D01*
X144848460Y-28544400D01*
X144404203Y-29126517D01*
X144172455Y-29821151D01*
X143585000Y-29821151D01*
X143585000Y-29504090D01*
X145709091Y-27380000D01*
X164248000Y-27380000D01*
X164248000Y-30862133D01*
X164248000Y-30862133D01*
G37*
X164248000Y-30862133D02*
X164118587Y-30732720D01*
X164072001Y-30662999D01*
X163795801Y-30478448D01*
X163552237Y-30430000D01*
X163552233Y-30430000D01*
X163470000Y-30413643D01*
X163387767Y-30430000D01*
X163106944Y-30430000D01*
X163036710Y-30383071D01*
X162991334Y-30374045D01*
X162501261Y-29883972D01*
X162449097Y-29805903D01*
X162139819Y-29599250D01*
X161867086Y-29545000D01*
X161775000Y-29526683D01*
X161682914Y-29545000D01*
X161613141Y-29545000D01*
X161557809Y-29462191D01*
X161347765Y-29321843D01*
X161100000Y-29272560D01*
X158660000Y-29272560D01*
X158412235Y-29321843D01*
X158202191Y-29462191D01*
X158061843Y-29672235D01*
X158012560Y-29920000D01*
X158012560Y-31040000D01*
X158061843Y-31287765D01*
X158202191Y-31497809D01*
X158412235Y-31638157D01*
X158660000Y-31687440D01*
X161100000Y-31687440D01*
X161347765Y-31638157D01*
X161505483Y-31532772D01*
X161644045Y-31671334D01*
X161653071Y-31716710D01*
X161675315Y-31750000D01*
X161653071Y-31783290D01*
X161592560Y-32087500D01*
X161592560Y-32382500D01*
X161653071Y-32686710D01*
X161748259Y-32829169D01*
X161773448Y-32955801D01*
X161958000Y-33232001D01*
X162027718Y-33278585D01*
X162290000Y-33540868D01*
X162290000Y-34400000D01*
X162210750Y-34400000D01*
X162052000Y-34558750D01*
X162052000Y-35433000D01*
X162072000Y-35433000D01*
X162072000Y-35687000D01*
X162052000Y-35687000D01*
X162052000Y-35707000D01*
X161798000Y-35707000D01*
X161798000Y-35687000D01*
X161778000Y-35687000D01*
X161778000Y-35433000D01*
X161798000Y-35433000D01*
X161798000Y-34558750D01*
X161639250Y-34400000D01*
X161323690Y-34400000D01*
X161090301Y-34496673D01*
X160911673Y-34675302D01*
X160815000Y-34908691D01*
X160815000Y-34948837D01*
X160778327Y-34860301D01*
X160599698Y-34681673D01*
X160366309Y-34585000D01*
X159425750Y-34585000D01*
X159267000Y-34743750D01*
X159267000Y-35693000D01*
X159287000Y-35693000D01*
X159287000Y-35947000D01*
X159267000Y-35947000D01*
X159267000Y-36896250D01*
X159425750Y-37055000D01*
X160366309Y-37055000D01*
X160599698Y-36958327D01*
X160778327Y-36779699D01*
X160875000Y-36546310D01*
X160875000Y-36356162D01*
X160911673Y-36444698D01*
X160982435Y-36515460D01*
X160869922Y-36683848D01*
X160802560Y-37022500D01*
X160802560Y-37597500D01*
X160869922Y-37936152D01*
X161061753Y-38223247D01*
X161090001Y-38242121D01*
X161090000Y-39445641D01*
X161018071Y-39553290D01*
X160957560Y-39857500D01*
X160957560Y-40140000D01*
X160887440Y-40140000D01*
X160887440Y-39780000D01*
X160838157Y-39532235D01*
X160697809Y-39322191D01*
X160487765Y-39181843D01*
X160240000Y-39132560D01*
X158040000Y-39132560D01*
X157792235Y-39181843D01*
X157582191Y-39322191D01*
X157441843Y-39532235D01*
X157392560Y-39780000D01*
X157392560Y-40980000D01*
X157441843Y-41227765D01*
X157582191Y-41437809D01*
X157792235Y-41578157D01*
X158040000Y-41627440D01*
X159208486Y-41627440D01*
X159409199Y-41761552D01*
X159652763Y-41810000D01*
X159652766Y-41810000D01*
X159734999Y-41826357D01*
X159817232Y-41810000D01*
X161378056Y-41810000D01*
X161448290Y-41856929D01*
X161752500Y-41917440D01*
X162097500Y-41917440D01*
X162401710Y-41856929D01*
X162659607Y-41684607D01*
X162831929Y-41426710D01*
X162892440Y-41122500D01*
X162892440Y-40938307D01*
X163857560Y-41903428D01*
X163857560Y-42370000D01*
X163906843Y-42617765D01*
X164047191Y-42827809D01*
X164110334Y-42870000D01*
X164047191Y-42912191D01*
X163906843Y-43122235D01*
X163857560Y-43370000D01*
X163857560Y-43836572D01*
X162964133Y-44730000D01*
X162908025Y-44730000D01*
X162938327Y-44699698D01*
X163035000Y-44466309D01*
X163035000Y-44100750D01*
X162876250Y-43942000D01*
X162052000Y-43942000D01*
X162052000Y-43962000D01*
X161798000Y-43962000D01*
X161798000Y-43942000D01*
X160973750Y-43942000D01*
X160815000Y-44100750D01*
X160815000Y-44466309D01*
X160911673Y-44699698D01*
X160982435Y-44770460D01*
X160869922Y-44938848D01*
X160802560Y-45277500D01*
X160802560Y-45852500D01*
X160869922Y-46191152D01*
X161061753Y-46478247D01*
X161090001Y-46497121D01*
X161090000Y-47065641D01*
X161018071Y-47173290D01*
X160957560Y-47477500D01*
X160957560Y-47760000D01*
X160677440Y-47760000D01*
X160677440Y-47655000D01*
X160628157Y-47407235D01*
X160487809Y-47197191D01*
X160277765Y-47056843D01*
X160030000Y-47007560D01*
X157830000Y-47007560D01*
X157582235Y-47056843D01*
X157372191Y-47197191D01*
X157231843Y-47407235D01*
X157182560Y-47655000D01*
X157182560Y-48855000D01*
X157231843Y-49102765D01*
X157372191Y-49312809D01*
X157582235Y-49453157D01*
X157830000Y-49502440D01*
X160030000Y-49502440D01*
X160277765Y-49453157D01*
X160312422Y-49430000D01*
X161378056Y-49430000D01*
X161448290Y-49476929D01*
X161752500Y-49537440D01*
X162097500Y-49537440D01*
X162360000Y-49485226D01*
X162360001Y-50275000D01*
X162210750Y-50275000D01*
X162052000Y-50433750D01*
X162052000Y-51308000D01*
X162072000Y-51308000D01*
X162072000Y-51562000D01*
X162052000Y-51562000D01*
X162052000Y-51582000D01*
X161798000Y-51582000D01*
X161798000Y-51562000D01*
X160973750Y-51562000D01*
X160815000Y-51720750D01*
X160815000Y-52086309D01*
X160911673Y-52319698D01*
X160982435Y-52390460D01*
X160869922Y-52558848D01*
X160802560Y-52897500D01*
X160802560Y-53472500D01*
X160869922Y-53811152D01*
X161061753Y-54098247D01*
X161090001Y-54117121D01*
X161090000Y-54685641D01*
X161018071Y-54793290D01*
X160957560Y-55097500D01*
X160957560Y-55380000D01*
X160494456Y-55380000D01*
X160448157Y-55147235D01*
X160307809Y-54937191D01*
X160097765Y-54796843D01*
X159850000Y-54747560D01*
X157650000Y-54747560D01*
X157402235Y-54796843D01*
X157192191Y-54937191D01*
X157051843Y-55147235D01*
X157002560Y-55395000D01*
X157002560Y-56595000D01*
X157051843Y-56842765D01*
X157192191Y-57052809D01*
X157402235Y-57193157D01*
X157650000Y-57242440D01*
X159850000Y-57242440D01*
X160097765Y-57193157D01*
X160307809Y-57052809D01*
X160309686Y-57050000D01*
X161378056Y-57050000D01*
X161448290Y-57096929D01*
X161752500Y-57157440D01*
X162097500Y-57157440D01*
X162401710Y-57096929D01*
X162659607Y-56924607D01*
X162831929Y-56666710D01*
X162892440Y-56362500D01*
X162892440Y-56067500D01*
X162831929Y-55763290D01*
X162809685Y-55730000D01*
X162831929Y-55696710D01*
X162892440Y-55392500D01*
X162892440Y-55097500D01*
X162831929Y-54793290D01*
X162760000Y-54685641D01*
X162760000Y-54117121D01*
X162788247Y-54098247D01*
X162847166Y-54010068D01*
X163040801Y-53971552D01*
X163317001Y-53787001D01*
X163340000Y-53752580D01*
X163340001Y-57068061D01*
X163319724Y-57170000D01*
X163400052Y-57573836D01*
X163483782Y-57699146D01*
X163628808Y-57916193D01*
X163715225Y-57973935D01*
X164166290Y-58425000D01*
X163480750Y-58425000D01*
X163322000Y-58583750D01*
X163322000Y-60683000D01*
X164921250Y-60683000D01*
X165080000Y-60524250D01*
X165080000Y-59338711D01*
X165340000Y-59598711D01*
X165340001Y-60464124D01*
X165340000Y-60464126D01*
X165340000Y-60875874D01*
X165379778Y-60971906D01*
X165400053Y-61073837D01*
X165457792Y-61160249D01*
X165497569Y-61256280D01*
X165571068Y-61329779D01*
X165628808Y-61416193D01*
X165715222Y-61473933D01*
X165788720Y-61547431D01*
X165884749Y-61587208D01*
X165971164Y-61644948D01*
X166073098Y-61665224D01*
X166169126Y-61705000D01*
X166273066Y-61705000D01*
X166375000Y-61725276D01*
X166476935Y-61705000D01*
X166580874Y-61705000D01*
X166676902Y-61665224D01*
X166778837Y-61644948D01*
X166865253Y-61587207D01*
X166961280Y-61547431D01*
X167034776Y-61473935D01*
X167121193Y-61416193D01*
X167178935Y-61329776D01*
X167252431Y-61256280D01*
X167292207Y-61160253D01*
X167349948Y-61073837D01*
X167370224Y-60971901D01*
X167410000Y-60875874D01*
X167410000Y-59271934D01*
X167430276Y-59169999D01*
X167349948Y-58766163D01*
X167247036Y-58612145D01*
X167121193Y-58423807D01*
X167034776Y-58366065D01*
X166088711Y-57420000D01*
X171477560Y-57420000D01*
X171477560Y-60920000D01*
X171526843Y-61167765D01*
X171667191Y-61377809D01*
X171877235Y-61518157D01*
X172125000Y-61567440D01*
X175625000Y-61567440D01*
X175872765Y-61518157D01*
X176082809Y-61377809D01*
X176194269Y-61210999D01*
X176177560Y-61295000D01*
X176177560Y-63045000D01*
X176293449Y-63627613D01*
X176623472Y-64121528D01*
X177117387Y-64451551D01*
X177700000Y-64567440D01*
X179450000Y-64567440D01*
X180032613Y-64451551D01*
X180526528Y-64121528D01*
X180856551Y-63627613D01*
X180972440Y-63045000D01*
X180972440Y-61295000D01*
X180856551Y-60712387D01*
X180526528Y-60218472D01*
X180032613Y-59888449D01*
X179450000Y-59772560D01*
X177700000Y-59772560D01*
X177117387Y-59888449D01*
X176623472Y-60218472D01*
X176293449Y-60712387D01*
X176272440Y-60818006D01*
X176272440Y-57506890D01*
X183978524Y-57506890D01*
X184148355Y-57916924D01*
X184538642Y-58345183D01*
X185063108Y-58591486D01*
X185293000Y-58470819D01*
X185293000Y-57277000D01*
X185547000Y-57277000D01*
X185547000Y-58470819D01*
X185776892Y-58591486D01*
X186301358Y-58345183D01*
X186691645Y-57916924D01*
X186861476Y-57506890D01*
X186740155Y-57277000D01*
X185547000Y-57277000D01*
X185293000Y-57277000D01*
X184099845Y-57277000D01*
X183978524Y-57506890D01*
X176272440Y-57506890D01*
X176272440Y-57420000D01*
X176223157Y-57172235D01*
X176082809Y-56962191D01*
X175872765Y-56821843D01*
X175625000Y-56772560D01*
X172125000Y-56772560D01*
X171877235Y-56821843D01*
X171667191Y-56962191D01*
X171526843Y-57172235D01*
X171477560Y-57420000D01*
X166088711Y-57420000D01*
X165410000Y-56741290D01*
X165410000Y-54320000D01*
X165877560Y-54320000D01*
X165877560Y-56020000D01*
X165926843Y-56267765D01*
X166067191Y-56477809D01*
X166277235Y-56618157D01*
X166525000Y-56667440D01*
X168225000Y-56667440D01*
X168472765Y-56618157D01*
X168682809Y-56477809D01*
X168823157Y-56267765D01*
X168872440Y-56020000D01*
X168872440Y-54320000D01*
X169377560Y-54320000D01*
X169377560Y-56020000D01*
X169426843Y-56267765D01*
X169567191Y-56477809D01*
X169777235Y-56618157D01*
X170025000Y-56667440D01*
X171725000Y-56667440D01*
X171972765Y-56618157D01*
X172182809Y-56477809D01*
X172323157Y-56267765D01*
X172372440Y-56020000D01*
X172372440Y-54320000D01*
X172877560Y-54320000D01*
X172877560Y-56020000D01*
X172926843Y-56267765D01*
X173067191Y-56477809D01*
X173277235Y-56618157D01*
X173525000Y-56667440D01*
X175225000Y-56667440D01*
X175472765Y-56618157D01*
X175682809Y-56477809D01*
X175823157Y-56267765D01*
X175872440Y-56020000D01*
X175872440Y-54320000D01*
X176377560Y-54320000D01*
X176377560Y-56020000D01*
X176426843Y-56267765D01*
X176567191Y-56477809D01*
X176777235Y-56618157D01*
X177025000Y-56667440D01*
X178725000Y-56667440D01*
X178972765Y-56618157D01*
X179182809Y-56477809D01*
X179323157Y-56267765D01*
X179372440Y-56020000D01*
X179372440Y-54320000D01*
X179323157Y-54072235D01*
X179182809Y-53862191D01*
X178972765Y-53721843D01*
X178725000Y-53672560D01*
X177025000Y-53672560D01*
X176777235Y-53721843D01*
X176567191Y-53862191D01*
X176426843Y-54072235D01*
X176377560Y-54320000D01*
X175872440Y-54320000D01*
X175823157Y-54072235D01*
X175682809Y-53862191D01*
X175472765Y-53721843D01*
X175225000Y-53672560D01*
X173525000Y-53672560D01*
X173277235Y-53721843D01*
X173067191Y-53862191D01*
X172926843Y-54072235D01*
X172877560Y-54320000D01*
X172372440Y-54320000D01*
X172323157Y-54072235D01*
X172182809Y-53862191D01*
X171972765Y-53721843D01*
X171725000Y-53672560D01*
X170025000Y-53672560D01*
X169777235Y-53721843D01*
X169567191Y-53862191D01*
X169426843Y-54072235D01*
X169377560Y-54320000D01*
X168872440Y-54320000D01*
X168823157Y-54072235D01*
X168682809Y-53862191D01*
X168472765Y-53721843D01*
X168225000Y-53672560D01*
X166525000Y-53672560D01*
X166277235Y-53721843D01*
X166067191Y-53862191D01*
X165926843Y-54072235D01*
X165877560Y-54320000D01*
X165410000Y-54320000D01*
X165410000Y-51098710D01*
X165491270Y-51017440D01*
X167005000Y-51017440D01*
X167207560Y-50977149D01*
X167207560Y-52270000D01*
X167256843Y-52517765D01*
X167397191Y-52727809D01*
X167607235Y-52868157D01*
X167855000Y-52917440D01*
X168855000Y-52917440D01*
X169102765Y-52868157D01*
X169312809Y-52727809D01*
X169355000Y-52664666D01*
X169397191Y-52727809D01*
X169607235Y-52868157D01*
X169855000Y-52917440D01*
X170855000Y-52917440D01*
X171102765Y-52868157D01*
X171312809Y-52727809D01*
X171355000Y-52664666D01*
X171397191Y-52727809D01*
X171607235Y-52868157D01*
X171855000Y-52917440D01*
X172855000Y-52917440D01*
X173102765Y-52868157D01*
X173312809Y-52727809D01*
X173355000Y-52664666D01*
X173397191Y-52727809D01*
X173607235Y-52868157D01*
X173855000Y-52917440D01*
X174855000Y-52917440D01*
X175102765Y-52868157D01*
X175312809Y-52727809D01*
X175355000Y-52664666D01*
X175397191Y-52727809D01*
X175607235Y-52868157D01*
X175855000Y-52917440D01*
X176855000Y-52917440D01*
X177102765Y-52868157D01*
X177312809Y-52727809D01*
X177355000Y-52664666D01*
X177397191Y-52727809D01*
X177607235Y-52868157D01*
X177855000Y-52917440D01*
X178855000Y-52917440D01*
X179102765Y-52868157D01*
X179312809Y-52727809D01*
X179453157Y-52517765D01*
X179502440Y-52270000D01*
X179502440Y-50973416D01*
X179578691Y-51005000D01*
X180669250Y-51005000D01*
X180828000Y-50846250D01*
X180828000Y-49997000D01*
X180808000Y-49997000D01*
X180808000Y-49743000D01*
X180828000Y-49743000D01*
X180828000Y-48893750D01*
X180804250Y-48870000D01*
X180828000Y-48846250D01*
X180828000Y-47997000D01*
X179228750Y-47997000D01*
X179070000Y-48155750D01*
X179070000Y-48496310D01*
X179166673Y-48729699D01*
X179306975Y-48870000D01*
X179166673Y-49010301D01*
X179070000Y-49243690D01*
X179070000Y-49584250D01*
X179228748Y-49742998D01*
X179070000Y-49742998D01*
X179070000Y-49865326D01*
X178855000Y-49822560D01*
X177855000Y-49822560D01*
X177607235Y-49871843D01*
X177397191Y-50012191D01*
X177355000Y-50075334D01*
X177312809Y-50012191D01*
X177102765Y-49871843D01*
X176855000Y-49822560D01*
X175855000Y-49822560D01*
X175607235Y-49871843D01*
X175397191Y-50012191D01*
X175355000Y-50075334D01*
X175312809Y-50012191D01*
X175102765Y-49871843D01*
X174855000Y-49822560D01*
X173855000Y-49822560D01*
X173607235Y-49871843D01*
X173397191Y-50012191D01*
X173355000Y-50075334D01*
X173312809Y-50012191D01*
X173102765Y-49871843D01*
X172855000Y-49822560D01*
X171855000Y-49822560D01*
X171607235Y-49871843D01*
X171397191Y-50012191D01*
X171355000Y-50075334D01*
X171312809Y-50012191D01*
X171102765Y-49871843D01*
X170855000Y-49822560D01*
X169855000Y-49822560D01*
X169607235Y-49871843D01*
X169397191Y-50012191D01*
X169355000Y-50075334D01*
X169312809Y-50012191D01*
X169102765Y-49871843D01*
X168855000Y-49822560D01*
X167874729Y-49822560D01*
X170431259Y-47266031D01*
X170431261Y-47266028D01*
X171971028Y-45726261D01*
X172049097Y-45674097D01*
X172255750Y-45364819D01*
X172310000Y-45092086D01*
X172328317Y-45000000D01*
X172310000Y-44907914D01*
X172310000Y-43117296D01*
X172410000Y-42875874D01*
X172410000Y-42464126D01*
X172252431Y-42083720D01*
X171961280Y-41792569D01*
X171719859Y-41692570D01*
X169301261Y-39273972D01*
X169249097Y-39195903D01*
X168939819Y-38989250D01*
X168667086Y-38935000D01*
X168575000Y-38916683D01*
X168482914Y-38935000D01*
X167478050Y-38935000D01*
X167462809Y-38912191D01*
X167399666Y-38870000D01*
X167462809Y-38827809D01*
X167603157Y-38617765D01*
X167652440Y-38370000D01*
X167652440Y-37370000D01*
X167603157Y-37122235D01*
X167462809Y-36912191D01*
X167399666Y-36870000D01*
X167462809Y-36827809D01*
X167603157Y-36617765D01*
X167652440Y-36370000D01*
X167652440Y-35370000D01*
X167603157Y-35122235D01*
X167462809Y-34912191D01*
X167290415Y-34797000D01*
X179419585Y-34797000D01*
X179247191Y-34912191D01*
X179106843Y-35122235D01*
X179057560Y-35370000D01*
X179057560Y-36370000D01*
X179106843Y-36617765D01*
X179247191Y-36827809D01*
X179310334Y-36870000D01*
X179247191Y-36912191D01*
X179106843Y-37122235D01*
X179057560Y-37370000D01*
X179057560Y-38370000D01*
X179106843Y-38617765D01*
X179247191Y-38827809D01*
X179310334Y-38870000D01*
X179247191Y-38912191D01*
X179106843Y-39122235D01*
X179106182Y-39125558D01*
X179000903Y-39195903D01*
X178948739Y-39273972D01*
X171030142Y-47192569D01*
X170788720Y-47292569D01*
X170497569Y-47583720D01*
X170340000Y-47964126D01*
X170340000Y-48375874D01*
X170497569Y-48756280D01*
X170788720Y-49047431D01*
X171169126Y-49205000D01*
X171580874Y-49205000D01*
X171961280Y-49047431D01*
X172252431Y-48756280D01*
X172352431Y-48514858D01*
X175884348Y-44982941D01*
X175997569Y-45256280D01*
X176288720Y-45547431D01*
X176669126Y-45705000D01*
X177080874Y-45705000D01*
X177461280Y-45547431D01*
X177752431Y-45256280D01*
X177852431Y-45014858D01*
X179057560Y-43809730D01*
X179057560Y-44370000D01*
X179106843Y-44617765D01*
X179247191Y-44827809D01*
X179310334Y-44870000D01*
X179247191Y-44912191D01*
X179236072Y-44928831D01*
X179175000Y-44916683D01*
X179082914Y-44935000D01*
X178810181Y-44989250D01*
X178500903Y-45195903D01*
X178448741Y-45273970D01*
X178030141Y-45692569D01*
X177788720Y-45792569D01*
X177497569Y-46083720D01*
X177340000Y-46464126D01*
X177340000Y-46875874D01*
X177497569Y-47256280D01*
X177788720Y-47547431D01*
X178169126Y-47705000D01*
X178580874Y-47705000D01*
X178961280Y-47547431D01*
X179070000Y-47438711D01*
X179070000Y-47584250D01*
X179228750Y-47743000D01*
X180828000Y-47743000D01*
X180828000Y-47723000D01*
X181082000Y-47723000D01*
X181082000Y-47743000D01*
X181102000Y-47743000D01*
X181102000Y-47997000D01*
X181082000Y-47997000D01*
X181082000Y-48846250D01*
X181105750Y-48870000D01*
X181082000Y-48893750D01*
X181082000Y-49743000D01*
X181102000Y-49743000D01*
X181102000Y-49997000D01*
X181082000Y-49997000D01*
X181082000Y-50846250D01*
X181240750Y-51005000D01*
X182331309Y-51005000D01*
X182480001Y-50943410D01*
X182480001Y-52603061D01*
X182459724Y-52705000D01*
X182540052Y-53108836D01*
X182575470Y-53161843D01*
X182768808Y-53451193D01*
X182855225Y-53508935D01*
X183922560Y-54576271D01*
X183922560Y-55460000D01*
X183971843Y-55707765D01*
X184112191Y-55917809D01*
X184322235Y-56058157D01*
X184425708Y-56078739D01*
X184148355Y-56383076D01*
X183978524Y-56793110D01*
X184099845Y-57023000D01*
X185293000Y-57023000D01*
X185293000Y-57003000D01*
X185547000Y-57003000D01*
X185547000Y-57023000D01*
X186740155Y-57023000D01*
X186861476Y-56793110D01*
X186691645Y-56383076D01*
X186414292Y-56078739D01*
X186517765Y-56058157D01*
X186727809Y-55917809D01*
X186868157Y-55707765D01*
X186917440Y-55460000D01*
X186917440Y-53760000D01*
X186868157Y-53512235D01*
X186727809Y-53302191D01*
X186517765Y-53161843D01*
X186270000Y-53112560D01*
X185386271Y-53112560D01*
X184550000Y-52276290D01*
X184550000Y-50168026D01*
X184665302Y-50283327D01*
X184898691Y-50380000D01*
X185589250Y-50380000D01*
X185748000Y-50221250D01*
X185748000Y-49022000D01*
X186002000Y-49022000D01*
X186002000Y-50221250D01*
X186160750Y-50380000D01*
X186851309Y-50380000D01*
X187084698Y-50283327D01*
X187263327Y-50104699D01*
X187360000Y-49871310D01*
X187360000Y-49180750D01*
X187201250Y-49022000D01*
X186002000Y-49022000D01*
X185748000Y-49022000D01*
X185728000Y-49022000D01*
X185728000Y-48768000D01*
X185748000Y-48768000D01*
X185748000Y-48748000D01*
X186002000Y-48748000D01*
X186002000Y-48768000D01*
X187201250Y-48768000D01*
X187360000Y-48609250D01*
X187360000Y-47918690D01*
X187263327Y-47685301D01*
X187084698Y-47506673D01*
X186923967Y-47440096D01*
X186945625Y-47425625D01*
X187273839Y-46934418D01*
X187389092Y-46355000D01*
X187273839Y-45775582D01*
X186945625Y-45284375D01*
X186647239Y-45085000D01*
X186945625Y-44885625D01*
X187273839Y-44394418D01*
X187389092Y-43815000D01*
X187273839Y-43235582D01*
X186945625Y-42744375D01*
X186647239Y-42545000D01*
X186945625Y-42345625D01*
X187273839Y-41854418D01*
X187389092Y-41275000D01*
X187273839Y-40695582D01*
X186945625Y-40204375D01*
X186647239Y-40005000D01*
X186945625Y-39805625D01*
X187273839Y-39314418D01*
X187389092Y-38735000D01*
X187273839Y-38155582D01*
X186945625Y-37664375D01*
X186647239Y-37465000D01*
X186945625Y-37265625D01*
X187273839Y-36774418D01*
X187389092Y-36195000D01*
X187273839Y-35615582D01*
X186945625Y-35124375D01*
X186454418Y-34796161D01*
X186021256Y-34710000D01*
X185728744Y-34710000D01*
X185295582Y-34796161D01*
X184804375Y-35124375D01*
X184476161Y-35615582D01*
X184410081Y-35947791D01*
X183736261Y-35273972D01*
X183684097Y-35195903D01*
X183374819Y-34989250D01*
X183102086Y-34935000D01*
X183010000Y-34916683D01*
X182917914Y-34935000D01*
X182678050Y-34935000D01*
X182662809Y-34912191D01*
X182452765Y-34771843D01*
X182448156Y-34770926D01*
X182464803Y-34759803D01*
X182492333Y-34718601D01*
X182502000Y-34670000D01*
X182502000Y-29821151D01*
X183172455Y-29821151D01*
X183178206Y-30553402D01*
X183420836Y-31244311D01*
X183874182Y-31819377D01*
X184489360Y-32216593D01*
X185200036Y-32393126D01*
X185929578Y-32329940D01*
X186599321Y-32033850D01*
X187137046Y-31536783D01*
X187484770Y-30892336D01*
X187605000Y-30170000D01*
X187604725Y-30134973D01*
X187473164Y-29414614D01*
X187115360Y-28775709D01*
X186569894Y-28287149D01*
X185895583Y-28001615D01*
X185165138Y-27949897D01*
X184457323Y-28137571D01*
X183848460Y-28544400D01*
X183404203Y-29126517D01*
X183172455Y-29821151D01*
X182502000Y-29821151D01*
X182502000Y-27380000D01*
X185760910Y-27380000D01*
X187885001Y-29504092D01*
X187885000Y-67015909D01*
X185760910Y-69140000D01*
X165026798Y-69140000D01*
X165092440Y-68810000D01*
X165092440Y-68345000D01*
X165633066Y-68345000D01*
X165735000Y-68365276D01*
X165836934Y-68345000D01*
X165836935Y-68345000D01*
X166138837Y-68284948D01*
X166481193Y-68056193D01*
X166538937Y-67969773D01*
X167034773Y-67473937D01*
X167121193Y-67416193D01*
X167349948Y-67073837D01*
X167410000Y-66771935D01*
X167430276Y-66670000D01*
X167410000Y-66568066D01*
X167410000Y-65464126D01*
X167406531Y-65455750D01*
X171490000Y-65455750D01*
X171490000Y-66796309D01*
X171586673Y-67029698D01*
X171765301Y-67208327D01*
X171998690Y-67305000D01*
X173589250Y-67305000D01*
X173748000Y-67146250D01*
X173748000Y-65297000D01*
X174002000Y-65297000D01*
X174002000Y-67146250D01*
X174160750Y-67305000D01*
X175751310Y-67305000D01*
X175984699Y-67208327D01*
X176163327Y-67029698D01*
X176260000Y-66796309D01*
X176260000Y-65821151D01*
X183172455Y-65821151D01*
X183178206Y-66553402D01*
X183420836Y-67244311D01*
X183874182Y-67819377D01*
X184489360Y-68216593D01*
X185200036Y-68393126D01*
X185929578Y-68329940D01*
X186599321Y-68033850D01*
X187137046Y-67536783D01*
X187484770Y-66892336D01*
X187605000Y-66170000D01*
X187604725Y-66134973D01*
X187473164Y-65414614D01*
X187115360Y-64775709D01*
X186569894Y-64287149D01*
X185895583Y-64001615D01*
X185165138Y-63949897D01*
X184457323Y-64137571D01*
X183848460Y-64544400D01*
X183404203Y-65126517D01*
X183172455Y-65821151D01*
X176260000Y-65821151D01*
X176260000Y-65455750D01*
X176101250Y-65297000D01*
X174002000Y-65297000D01*
X173748000Y-65297000D01*
X171648750Y-65297000D01*
X171490000Y-65455750D01*
X167406531Y-65455750D01*
X167370224Y-65368099D01*
X167349948Y-65266163D01*
X167292207Y-65179747D01*
X167252431Y-65083720D01*
X167178935Y-65010224D01*
X167121193Y-64923807D01*
X167034777Y-64866066D01*
X166961280Y-64792569D01*
X166865251Y-64752793D01*
X166778836Y-64695052D01*
X166676902Y-64674776D01*
X166580874Y-64635000D01*
X166476934Y-64635000D01*
X166375000Y-64614724D01*
X166273065Y-64635000D01*
X166169126Y-64635000D01*
X166073098Y-64674776D01*
X165971163Y-64695052D01*
X165884747Y-64752793D01*
X165788720Y-64792569D01*
X165715224Y-64866065D01*
X165628807Y-64923807D01*
X165571066Y-65010223D01*
X165497569Y-65083720D01*
X165457793Y-65179749D01*
X165400052Y-65266164D01*
X165379776Y-65368098D01*
X165340000Y-65464126D01*
X165340000Y-65568066D01*
X165340001Y-66241289D01*
X165306290Y-66275000D01*
X165092440Y-66275000D01*
X165092440Y-65810000D01*
X165024126Y-65466565D01*
X164829586Y-65175414D01*
X164538435Y-64980874D01*
X164195000Y-64912560D01*
X162195000Y-64912560D01*
X161851565Y-64980874D01*
X161560414Y-65175414D01*
X161365874Y-65466565D01*
X161297560Y-65810000D01*
X161297560Y-66175000D01*
X159195132Y-66175000D01*
X158467440Y-65447309D01*
X158467440Y-63543691D01*
X171490000Y-63543691D01*
X171490000Y-64884250D01*
X171648750Y-65043000D01*
X173748000Y-65043000D01*
X173748000Y-63193750D01*
X174002000Y-63193750D01*
X174002000Y-65043000D01*
X176101250Y-65043000D01*
X176260000Y-64884250D01*
X176260000Y-63543691D01*
X176163327Y-63310302D01*
X175984699Y-63131673D01*
X175751310Y-63035000D01*
X174160750Y-63035000D01*
X174002000Y-63193750D01*
X173748000Y-63193750D01*
X173589250Y-63035000D01*
X171998690Y-63035000D01*
X171765301Y-63131673D01*
X171586673Y-63310302D01*
X171490000Y-63543691D01*
X158467440Y-63543691D01*
X158467440Y-63505000D01*
X158418157Y-63257235D01*
X158277809Y-63047191D01*
X158067765Y-62906843D01*
X157820000Y-62857560D01*
X155820000Y-62857560D01*
X155572235Y-62906843D01*
X155362191Y-63047191D01*
X155221843Y-63257235D01*
X155172560Y-63505000D01*
X155172560Y-64270000D01*
X152026459Y-64270000D01*
X152017073Y-64255953D01*
X152058327Y-64214699D01*
X152155000Y-63981310D01*
X152155000Y-63390750D01*
X151996250Y-63232000D01*
X150647000Y-63232000D01*
X150647000Y-63252000D01*
X150393000Y-63252000D01*
X150393000Y-63232000D01*
X150373000Y-63232000D01*
X150373000Y-62978000D01*
X150393000Y-62978000D01*
X150393000Y-61878750D01*
X150647000Y-61878750D01*
X150647000Y-62978000D01*
X151996250Y-62978000D01*
X152155000Y-62819250D01*
X152155000Y-62228690D01*
X152058327Y-61995301D01*
X151879698Y-61816673D01*
X151646309Y-61720000D01*
X150805750Y-61720000D01*
X150647000Y-61878750D01*
X150393000Y-61878750D01*
X150234250Y-61720000D01*
X149751210Y-61720000D01*
X150375460Y-61095750D01*
X161310000Y-61095750D01*
X161310000Y-62686309D01*
X161406673Y-62919698D01*
X161585301Y-63098327D01*
X161818690Y-63195000D01*
X162909250Y-63195000D01*
X163068000Y-63036250D01*
X163068000Y-60937000D01*
X163322000Y-60937000D01*
X163322000Y-63036250D01*
X163480750Y-63195000D01*
X164571310Y-63195000D01*
X164804699Y-63098327D01*
X164983327Y-62919698D01*
X165080000Y-62686309D01*
X165080000Y-61095750D01*
X164921250Y-60937000D01*
X163322000Y-60937000D01*
X163068000Y-60937000D01*
X161468750Y-60937000D01*
X161310000Y-61095750D01*
X150375460Y-61095750D01*
X150961584Y-60509627D01*
X151302500Y-60577440D01*
X152227500Y-60577440D01*
X152570935Y-60509126D01*
X152862086Y-60314586D01*
X153056626Y-60023435D01*
X153124940Y-59680000D01*
X153124940Y-59340750D01*
X153392500Y-59340750D01*
X153392500Y-60056310D01*
X153489173Y-60289699D01*
X153667802Y-60468327D01*
X153901191Y-60565000D01*
X154454250Y-60565000D01*
X154613000Y-60406250D01*
X154613000Y-59182000D01*
X154867000Y-59182000D01*
X154867000Y-60406250D01*
X155025750Y-60565000D01*
X155578809Y-60565000D01*
X155812198Y-60468327D01*
X155990827Y-60289699D01*
X156087500Y-60056310D01*
X156087500Y-59340750D01*
X155928750Y-59182000D01*
X154867000Y-59182000D01*
X154613000Y-59182000D01*
X153551250Y-59182000D01*
X153392500Y-59340750D01*
X153124940Y-59340750D01*
X153124940Y-58933691D01*
X161310000Y-58933691D01*
X161310000Y-60524250D01*
X161468750Y-60683000D01*
X163068000Y-60683000D01*
X163068000Y-58583750D01*
X162909250Y-58425000D01*
X161818690Y-58425000D01*
X161585301Y-58521673D01*
X161406673Y-58700302D01*
X161310000Y-58933691D01*
X153124940Y-58933691D01*
X153124940Y-58430000D01*
X153056626Y-58086565D01*
X153034660Y-58053690D01*
X153392500Y-58053690D01*
X153392500Y-58769250D01*
X153551250Y-58928000D01*
X154613000Y-58928000D01*
X154613000Y-57703750D01*
X154867000Y-57703750D01*
X154867000Y-58928000D01*
X155928750Y-58928000D01*
X156087500Y-58769250D01*
X156087500Y-58053690D01*
X155990827Y-57820301D01*
X155812198Y-57641673D01*
X155578809Y-57545000D01*
X155025750Y-57545000D01*
X154867000Y-57703750D01*
X154613000Y-57703750D01*
X154454250Y-57545000D01*
X153901191Y-57545000D01*
X153667802Y-57641673D01*
X153489173Y-57820301D01*
X153392500Y-58053690D01*
X153034660Y-58053690D01*
X152862086Y-57795414D01*
X152570935Y-57600874D01*
X152227500Y-57532560D01*
X151302500Y-57532560D01*
X150959065Y-57600874D01*
X150667914Y-57795414D01*
X150584669Y-57920000D01*
X149230132Y-57920000D01*
X148716612Y-57406481D01*
X148653289Y-57311711D01*
X148277855Y-57060854D01*
X147946783Y-56995000D01*
X147835000Y-56972765D01*
X147723217Y-56995000D01*
X146849281Y-56995000D01*
X146454418Y-56731161D01*
X146021256Y-56645000D01*
X145995132Y-56645000D01*
X145510000Y-56159869D01*
X145510000Y-52918380D01*
X145556712Y-52988289D01*
X145651480Y-53051611D01*
X147038389Y-54438521D01*
X147101711Y-54533289D01*
X147422390Y-54747560D01*
X147477145Y-54784146D01*
X147920000Y-54872235D01*
X148031783Y-54850000D01*
X148602560Y-54850000D01*
X148602560Y-56615000D01*
X148651843Y-56862765D01*
X148792191Y-57072809D01*
X149002235Y-57213157D01*
X149250000Y-57262440D01*
X155650000Y-57262440D01*
X155897765Y-57213157D01*
X156107809Y-57072809D01*
X156248157Y-56862765D01*
X156297440Y-56615000D01*
X156297440Y-51720750D01*
X157015000Y-51720750D01*
X157015000Y-52161310D01*
X157111673Y-52394699D01*
X157290302Y-52573327D01*
X157523691Y-52670000D01*
X158464250Y-52670000D01*
X158623000Y-52511250D01*
X158623000Y-51562000D01*
X158877000Y-51562000D01*
X158877000Y-52511250D01*
X159035750Y-52670000D01*
X159976309Y-52670000D01*
X160209698Y-52573327D01*
X160388327Y-52394699D01*
X160485000Y-52161310D01*
X160485000Y-51720750D01*
X160326250Y-51562000D01*
X158877000Y-51562000D01*
X158623000Y-51562000D01*
X157173750Y-51562000D01*
X157015000Y-51720750D01*
X156297440Y-51720750D01*
X156297440Y-50815000D01*
X156276294Y-50708690D01*
X157015000Y-50708690D01*
X157015000Y-51149250D01*
X157173750Y-51308000D01*
X158623000Y-51308000D01*
X158623000Y-50358750D01*
X158877000Y-50358750D01*
X158877000Y-51308000D01*
X160326250Y-51308000D01*
X160485000Y-51149250D01*
X160485000Y-50783691D01*
X160815000Y-50783691D01*
X160815000Y-51149250D01*
X160973750Y-51308000D01*
X161798000Y-51308000D01*
X161798000Y-50433750D01*
X161639250Y-50275000D01*
X161323690Y-50275000D01*
X161090301Y-50371673D01*
X160911673Y-50550302D01*
X160815000Y-50783691D01*
X160485000Y-50783691D01*
X160485000Y-50708690D01*
X160388327Y-50475301D01*
X160209698Y-50296673D01*
X159976309Y-50200000D01*
X159035750Y-50200000D01*
X158877000Y-50358750D01*
X158623000Y-50358750D01*
X158464250Y-50200000D01*
X157523691Y-50200000D01*
X157290302Y-50296673D01*
X157111673Y-50475301D01*
X157015000Y-50708690D01*
X156276294Y-50708690D01*
X156248157Y-50567235D01*
X156107809Y-50357191D01*
X155897765Y-50216843D01*
X155650000Y-50167560D01*
X149250000Y-50167560D01*
X149002235Y-50216843D01*
X148792191Y-50357191D01*
X148651843Y-50567235D01*
X148602560Y-50815000D01*
X148602560Y-52580000D01*
X148390132Y-52580000D01*
X147535800Y-51725669D01*
X147773839Y-51369418D01*
X147889092Y-50790000D01*
X147773839Y-50210582D01*
X147445625Y-49719375D01*
X147147239Y-49520000D01*
X147349281Y-49385000D01*
X149050300Y-49385000D01*
X149182235Y-49473157D01*
X149430000Y-49522440D01*
X155830000Y-49522440D01*
X156077765Y-49473157D01*
X156287809Y-49332809D01*
X156428157Y-49122765D01*
X156477440Y-48875000D01*
X156477440Y-43980750D01*
X157195000Y-43980750D01*
X157195000Y-44421310D01*
X157291673Y-44654699D01*
X157470302Y-44833327D01*
X157703691Y-44930000D01*
X158644250Y-44930000D01*
X158803000Y-44771250D01*
X158803000Y-43822000D01*
X159057000Y-43822000D01*
X159057000Y-44771250D01*
X159215750Y-44930000D01*
X160156309Y-44930000D01*
X160389698Y-44833327D01*
X160568327Y-44654699D01*
X160665000Y-44421310D01*
X160665000Y-43980750D01*
X160506250Y-43822000D01*
X159057000Y-43822000D01*
X158803000Y-43822000D01*
X157353750Y-43822000D01*
X157195000Y-43980750D01*
X156477440Y-43980750D01*
X156477440Y-43075000D01*
X156456294Y-42968690D01*
X157195000Y-42968690D01*
X157195000Y-43409250D01*
X157353750Y-43568000D01*
X158803000Y-43568000D01*
X158803000Y-42618750D01*
X159057000Y-42618750D01*
X159057000Y-43568000D01*
X160506250Y-43568000D01*
X160665000Y-43409250D01*
X160665000Y-43163691D01*
X160815000Y-43163691D01*
X160815000Y-43529250D01*
X160973750Y-43688000D01*
X161798000Y-43688000D01*
X161798000Y-42813750D01*
X162052000Y-42813750D01*
X162052000Y-43688000D01*
X162876250Y-43688000D01*
X163035000Y-43529250D01*
X163035000Y-43163691D01*
X162938327Y-42930302D01*
X162759699Y-42751673D01*
X162526310Y-42655000D01*
X162210750Y-42655000D01*
X162052000Y-42813750D01*
X161798000Y-42813750D01*
X161639250Y-42655000D01*
X161323690Y-42655000D01*
X161090301Y-42751673D01*
X160911673Y-42930302D01*
X160815000Y-43163691D01*
X160665000Y-43163691D01*
X160665000Y-42968690D01*
X160568327Y-42735301D01*
X160389698Y-42556673D01*
X160156309Y-42460000D01*
X159215750Y-42460000D01*
X159057000Y-42618750D01*
X158803000Y-42618750D01*
X158644250Y-42460000D01*
X157703691Y-42460000D01*
X157470302Y-42556673D01*
X157291673Y-42735301D01*
X157195000Y-42968690D01*
X156456294Y-42968690D01*
X156428157Y-42827235D01*
X156287809Y-42617191D01*
X156077765Y-42476843D01*
X155830000Y-42427560D01*
X149510000Y-42427560D01*
X149510000Y-41621582D01*
X149640000Y-41647440D01*
X156040000Y-41647440D01*
X156287765Y-41598157D01*
X156497809Y-41457809D01*
X156638157Y-41247765D01*
X156687440Y-41000000D01*
X156687440Y-36105750D01*
X157405000Y-36105750D01*
X157405000Y-36546310D01*
X157501673Y-36779699D01*
X157680302Y-36958327D01*
X157913691Y-37055000D01*
X158854250Y-37055000D01*
X159013000Y-36896250D01*
X159013000Y-35947000D01*
X157563750Y-35947000D01*
X157405000Y-36105750D01*
X156687440Y-36105750D01*
X156687440Y-35200000D01*
X156666294Y-35093690D01*
X157405000Y-35093690D01*
X157405000Y-35534250D01*
X157563750Y-35693000D01*
X159013000Y-35693000D01*
X159013000Y-34743750D01*
X158854250Y-34585000D01*
X157913691Y-34585000D01*
X157680302Y-34681673D01*
X157501673Y-34860301D01*
X157405000Y-35093690D01*
X156666294Y-35093690D01*
X156638157Y-34952235D01*
X156497809Y-34742191D01*
X156287765Y-34601843D01*
X156040000Y-34552560D01*
X149640000Y-34552560D01*
X149392235Y-34601843D01*
X149182191Y-34742191D01*
X149041843Y-34952235D01*
X148992560Y-35200000D01*
X148992560Y-37018837D01*
X148932145Y-37030854D01*
X148556711Y-37281711D01*
X148493391Y-37376477D01*
X147651479Y-38218390D01*
X147556712Y-38281711D01*
X147433554Y-38466030D01*
X147305854Y-38657146D01*
X147217765Y-39100000D01*
X147240001Y-39211788D01*
X147240001Y-41675544D01*
X147225000Y-41672560D01*
X145525000Y-41672560D01*
X145277235Y-41721843D01*
X145067191Y-41862191D01*
X144926843Y-42072235D01*
X144919465Y-42109326D01*
X144556711Y-42351711D01*
X144493391Y-42446477D01*
X143651479Y-43288390D01*
X143585000Y-43332810D01*
X143585000Y-29821151D01*
X144172455Y-29821151D01*
X144178206Y-30553402D01*
X144420836Y-31244311D01*
X144874182Y-31819377D01*
X145489360Y-32216593D01*
X146200036Y-32393126D01*
X146929578Y-32329940D01*
X147599321Y-32033850D01*
X148137046Y-31536783D01*
X148484770Y-30892336D01*
X148505839Y-30765750D01*
X149415000Y-30765750D01*
X149415000Y-31166310D01*
X149511673Y-31399699D01*
X149690302Y-31578327D01*
X149923691Y-31675000D01*
X150984250Y-31675000D01*
X151143000Y-31516250D01*
X151143000Y-30607000D01*
X151397000Y-30607000D01*
X151397000Y-31516250D01*
X151555750Y-31675000D01*
X152616309Y-31675000D01*
X152849698Y-31578327D01*
X153028327Y-31399699D01*
X153125000Y-31166310D01*
X153125000Y-30765750D01*
X152966250Y-30607000D01*
X151397000Y-30607000D01*
X151143000Y-30607000D01*
X149573750Y-30607000D01*
X149415000Y-30765750D01*
X148505839Y-30765750D01*
X148605000Y-30170000D01*
X148604725Y-30134973D01*
X148542396Y-29793690D01*
X149415000Y-29793690D01*
X149415000Y-30194250D01*
X149573750Y-30353000D01*
X151143000Y-30353000D01*
X151143000Y-29443750D01*
X151397000Y-29443750D01*
X151397000Y-30353000D01*
X152966250Y-30353000D01*
X153125000Y-30194250D01*
X153125000Y-29793690D01*
X153028327Y-29560301D01*
X152849698Y-29381673D01*
X152616309Y-29285000D01*
X151555750Y-29285000D01*
X151397000Y-29443750D01*
X151143000Y-29443750D01*
X150984250Y-29285000D01*
X149923691Y-29285000D01*
X149690302Y-29381673D01*
X149511673Y-29560301D01*
X149415000Y-29793690D01*
X148542396Y-29793690D01*
X148473164Y-29414614D01*
X148115360Y-28775709D01*
X147569894Y-28287149D01*
X146895583Y-28001615D01*
X146165138Y-27949897D01*
X145457323Y-28137571D01*
X144848460Y-28544400D01*
X144404203Y-29126517D01*
X144172455Y-29821151D01*
X143585000Y-29821151D01*
X143585000Y-29504090D01*
X145709091Y-27380000D01*
X164248000Y-27380000D01*
X164248000Y-30862133D01*
G04 #@! TD*
M02*
